G75*
%MOIN*%
%OFA0B0*%
%FSLAX25Y25*%
%IPPOS*%
%LPD*%
%AMOC8*
5,1,8,0,0,1.08239X$1,22.5*
%
%ADD10C,0.00400*%
%ADD11C,0.00300*%
%ADD12C,0.00600*%
%ADD13C,0.00800*%
%ADD14C,0.00500*%
%ADD15C,0.00200*%
%ADD16R,0.02559X0.05512*%
%ADD17R,0.05512X0.02559*%
%ADD18C,0.00100*%
D10*
X0017750Y0052000D02*
X0017750Y0056604D01*
X0020052Y0056604D01*
X0020819Y0055837D01*
X0020819Y0054302D01*
X0020052Y0053535D01*
X0017750Y0053535D01*
X0019285Y0053535D02*
X0020819Y0052000D01*
X0022354Y0052000D02*
X0025423Y0055069D01*
X0025423Y0055837D01*
X0024656Y0056604D01*
X0023121Y0056604D01*
X0022354Y0055837D01*
X0022354Y0052000D02*
X0025423Y0052000D01*
X0030250Y0052000D02*
X0030250Y0056604D01*
X0032552Y0056604D01*
X0033319Y0055837D01*
X0033319Y0054302D01*
X0032552Y0053535D01*
X0030250Y0053535D01*
X0031785Y0053535D02*
X0033319Y0052000D01*
X0034854Y0052767D02*
X0035621Y0052000D01*
X0037156Y0052000D01*
X0037923Y0052767D01*
X0037923Y0053535D01*
X0037156Y0054302D01*
X0034854Y0054302D01*
X0034854Y0052767D01*
X0034854Y0054302D02*
X0036389Y0055837D01*
X0037923Y0056604D01*
X0042750Y0056604D02*
X0042750Y0052000D01*
X0042750Y0053535D02*
X0045052Y0053535D01*
X0045819Y0054302D01*
X0045819Y0055837D01*
X0045052Y0056604D01*
X0042750Y0056604D01*
X0044285Y0053535D02*
X0045819Y0052000D01*
X0047354Y0054302D02*
X0050423Y0054302D01*
X0049656Y0052000D02*
X0049656Y0056604D01*
X0047354Y0054302D01*
X0078292Y0027604D02*
X0080594Y0027604D01*
X0081361Y0026837D01*
X0081361Y0025302D01*
X0080594Y0024535D01*
X0078292Y0024535D01*
X0079827Y0024535D02*
X0081361Y0023000D01*
X0082896Y0023767D02*
X0082896Y0024535D01*
X0083663Y0025302D01*
X0085198Y0025302D01*
X0085965Y0024535D01*
X0085965Y0023767D01*
X0085198Y0023000D01*
X0083663Y0023000D01*
X0082896Y0023767D01*
X0083663Y0025302D02*
X0082896Y0026069D01*
X0082896Y0026837D01*
X0083663Y0027604D01*
X0085198Y0027604D01*
X0085965Y0026837D01*
X0085965Y0026069D01*
X0085198Y0025302D01*
X0078292Y0023000D02*
X0078292Y0027604D01*
X0118917Y0039250D02*
X0118917Y0043854D01*
X0121219Y0043854D01*
X0121986Y0043087D01*
X0121986Y0041552D01*
X0121219Y0040785D01*
X0118917Y0040785D01*
X0120452Y0040785D02*
X0121986Y0039250D01*
X0123521Y0040017D02*
X0124288Y0039250D01*
X0125823Y0039250D01*
X0126590Y0040017D01*
X0126590Y0043087D01*
X0125823Y0043854D01*
X0124288Y0043854D01*
X0123521Y0043087D01*
X0123521Y0042319D01*
X0124288Y0041552D01*
X0126590Y0041552D01*
X0156188Y0027604D02*
X0156188Y0023000D01*
X0156188Y0024535D02*
X0158490Y0024535D01*
X0159257Y0025302D01*
X0159257Y0026837D01*
X0158490Y0027604D01*
X0156188Y0027604D01*
X0157723Y0024535D02*
X0159257Y0023000D01*
X0160792Y0023000D02*
X0163861Y0023000D01*
X0162327Y0023000D02*
X0162327Y0027604D01*
X0160792Y0026069D01*
X0165396Y0026837D02*
X0165396Y0023767D01*
X0168465Y0026837D01*
X0168465Y0023767D01*
X0167698Y0023000D01*
X0166163Y0023000D01*
X0165396Y0023767D01*
X0165396Y0026837D02*
X0166163Y0027604D01*
X0167698Y0027604D01*
X0168465Y0026837D01*
X0219625Y0054000D02*
X0219625Y0058604D01*
X0221927Y0058604D01*
X0222694Y0057837D01*
X0222694Y0056302D01*
X0221927Y0055535D01*
X0219625Y0055535D01*
X0221160Y0055535D02*
X0222694Y0054000D01*
X0224229Y0054767D02*
X0224996Y0054000D01*
X0226531Y0054000D01*
X0227298Y0054767D01*
X0227298Y0055535D01*
X0226531Y0056302D01*
X0225764Y0056302D01*
X0226531Y0056302D02*
X0227298Y0057069D01*
X0227298Y0057837D01*
X0226531Y0058604D01*
X0224996Y0058604D01*
X0224229Y0057837D01*
X0234000Y0058604D02*
X0234000Y0054000D01*
X0234000Y0055535D02*
X0236302Y0055535D01*
X0237069Y0056302D01*
X0237069Y0057837D01*
X0236302Y0058604D01*
X0234000Y0058604D01*
X0235535Y0055535D02*
X0237069Y0054000D01*
X0238604Y0054767D02*
X0239371Y0054000D01*
X0240906Y0054000D01*
X0241673Y0054767D01*
X0241673Y0056302D01*
X0240906Y0057069D01*
X0240139Y0057069D01*
X0238604Y0056302D01*
X0238604Y0058604D01*
X0241673Y0058604D01*
X0249000Y0058604D02*
X0249000Y0054000D01*
X0249000Y0055535D02*
X0251302Y0055535D01*
X0252069Y0056302D01*
X0252069Y0057837D01*
X0251302Y0058604D01*
X0249000Y0058604D01*
X0250535Y0055535D02*
X0252069Y0054000D01*
X0253604Y0054000D02*
X0253604Y0054767D01*
X0256673Y0057837D01*
X0256673Y0058604D01*
X0253604Y0058604D01*
X0193965Y0083625D02*
X0190896Y0083625D01*
X0192431Y0083625D02*
X0192431Y0088229D01*
X0190896Y0086694D01*
X0189361Y0087462D02*
X0188594Y0088229D01*
X0187059Y0088229D01*
X0186292Y0087462D01*
X0186292Y0084392D01*
X0187059Y0083625D01*
X0188594Y0083625D01*
X0189361Y0084392D01*
X0178436Y0092842D02*
X0175367Y0092842D01*
X0176901Y0092842D02*
X0176901Y0097446D01*
X0175367Y0095911D01*
X0173832Y0097446D02*
X0173832Y0093609D01*
X0173065Y0092842D01*
X0171530Y0092842D01*
X0170763Y0093609D01*
X0170763Y0097446D01*
X0146190Y0097765D02*
X0146190Y0094910D01*
X0143335Y0094910D01*
X0135265Y0094910D02*
X0132410Y0094910D01*
X0132410Y0097765D01*
X0127424Y0099961D02*
X0127424Y0100728D01*
X0124355Y0100728D01*
X0122820Y0100728D02*
X0122820Y0096891D01*
X0122053Y0096124D01*
X0120518Y0096124D01*
X0119751Y0096891D01*
X0119751Y0100728D01*
X0124355Y0096891D02*
X0124355Y0096124D01*
X0124355Y0096891D02*
X0127424Y0099961D01*
X0132440Y0105835D02*
X0132440Y0108690D01*
X0132410Y0108660D02*
X0135265Y0108660D01*
X0143335Y0108690D02*
X0146190Y0108690D01*
X0146190Y0105835D01*
X0111173Y0098587D02*
X0111173Y0097819D01*
X0110406Y0097052D01*
X0111173Y0096285D01*
X0111173Y0095517D01*
X0110406Y0094750D01*
X0108871Y0094750D01*
X0108104Y0095517D01*
X0106569Y0095517D02*
X0105802Y0094750D01*
X0104267Y0094750D01*
X0103500Y0095517D01*
X0103500Y0098587D01*
X0104267Y0099354D01*
X0105802Y0099354D01*
X0106569Y0098587D01*
X0108104Y0098587D02*
X0108871Y0099354D01*
X0110406Y0099354D01*
X0111173Y0098587D01*
X0110406Y0097052D02*
X0109639Y0097052D01*
X0104277Y0108500D02*
X0101208Y0108500D01*
X0102742Y0108500D02*
X0102742Y0113104D01*
X0101208Y0111569D01*
X0098139Y0113104D02*
X0098139Y0108500D01*
X0099673Y0108500D02*
X0096604Y0108500D01*
X0095069Y0108500D02*
X0093535Y0110035D01*
X0094302Y0110035D02*
X0092000Y0110035D01*
X0092000Y0108500D02*
X0092000Y0113104D01*
X0094302Y0113104D01*
X0095069Y0112337D01*
X0095069Y0110802D01*
X0094302Y0110035D01*
X0096604Y0111569D02*
X0098139Y0113104D01*
X0098139Y0118000D02*
X0098139Y0122604D01*
X0096604Y0121069D01*
X0095069Y0120302D02*
X0094302Y0119535D01*
X0092000Y0119535D01*
X0093535Y0119535D02*
X0095069Y0118000D01*
X0096604Y0118000D02*
X0099673Y0118000D01*
X0101208Y0118000D02*
X0104277Y0121069D01*
X0104277Y0121837D01*
X0103510Y0122604D01*
X0101975Y0122604D01*
X0101208Y0121837D01*
X0101208Y0118000D02*
X0104277Y0118000D01*
X0095069Y0120302D02*
X0095069Y0121837D01*
X0094302Y0122604D01*
X0092000Y0122604D01*
X0092000Y0118000D01*
X0092000Y0126125D02*
X0092000Y0130729D01*
X0094302Y0130729D01*
X0095069Y0129962D01*
X0095069Y0128427D01*
X0094302Y0127660D01*
X0092000Y0127660D01*
X0093535Y0127660D02*
X0095069Y0126125D01*
X0096604Y0126125D02*
X0099673Y0126125D01*
X0098139Y0126125D02*
X0098139Y0130729D01*
X0096604Y0129194D01*
X0042277Y0144729D02*
X0039208Y0144729D01*
X0039208Y0140125D01*
X0039208Y0142427D02*
X0040742Y0142427D01*
X0037673Y0144729D02*
X0034604Y0144729D01*
X0034604Y0140125D01*
X0033069Y0140892D02*
X0033069Y0143962D01*
X0032302Y0144729D01*
X0030767Y0144729D01*
X0030000Y0143962D01*
X0030000Y0140892D01*
X0030767Y0140125D01*
X0032302Y0140125D01*
X0033069Y0140892D01*
X0034604Y0142427D02*
X0036139Y0142427D01*
X0037673Y0150750D02*
X0037673Y0155354D01*
X0034604Y0155354D02*
X0037673Y0150750D01*
X0034604Y0150750D02*
X0034604Y0155354D01*
X0033069Y0154587D02*
X0032302Y0155354D01*
X0030767Y0155354D01*
X0030000Y0154587D01*
X0030000Y0151517D01*
X0030767Y0150750D01*
X0032302Y0150750D01*
X0033069Y0151517D01*
X0033069Y0154587D01*
X0031323Y0130354D02*
X0029788Y0130354D01*
X0029021Y0129587D01*
X0027486Y0129587D02*
X0026719Y0130354D01*
X0025184Y0130354D01*
X0024417Y0129587D01*
X0024417Y0128819D01*
X0025184Y0128052D01*
X0026719Y0128052D01*
X0027486Y0127285D01*
X0027486Y0126517D01*
X0026719Y0125750D01*
X0025184Y0125750D01*
X0024417Y0126517D01*
X0029021Y0125750D02*
X0032090Y0128819D01*
X0032090Y0129587D01*
X0031323Y0130354D01*
X0032090Y0125750D02*
X0029021Y0125750D01*
X0066767Y0086854D02*
X0066000Y0086087D01*
X0066000Y0083017D01*
X0066767Y0082250D01*
X0068302Y0082250D01*
X0069069Y0083017D01*
X0070604Y0082250D02*
X0073673Y0085319D01*
X0073673Y0086087D01*
X0072906Y0086854D01*
X0071371Y0086854D01*
X0070604Y0086087D01*
X0069069Y0086087D02*
X0068302Y0086854D01*
X0066767Y0086854D01*
X0070604Y0082250D02*
X0073673Y0082250D01*
X0255000Y0123250D02*
X0255000Y0127854D01*
X0257302Y0127854D01*
X0258069Y0127087D01*
X0258069Y0125552D01*
X0257302Y0124785D01*
X0255000Y0124785D01*
X0256535Y0124785D02*
X0258069Y0123250D01*
X0259604Y0123250D02*
X0262673Y0127854D01*
X0264208Y0127854D02*
X0266510Y0127854D01*
X0267277Y0127087D01*
X0267277Y0124017D01*
X0266510Y0123250D01*
X0264208Y0123250D01*
X0264208Y0127854D01*
X0259604Y0127854D02*
X0262673Y0123250D01*
X0262673Y0132625D02*
X0259604Y0137229D01*
X0258069Y0137229D02*
X0255000Y0137229D01*
X0256535Y0137229D02*
X0256535Y0132625D01*
X0259604Y0132625D02*
X0262673Y0137229D01*
X0264208Y0137229D02*
X0266510Y0137229D01*
X0267277Y0136462D01*
X0267277Y0133392D01*
X0266510Y0132625D01*
X0264208Y0132625D01*
X0264208Y0137229D01*
X0264208Y0145125D02*
X0266510Y0145125D01*
X0267277Y0145892D01*
X0267277Y0148962D01*
X0266510Y0149729D01*
X0264208Y0149729D01*
X0264208Y0145125D01*
X0262673Y0145125D02*
X0262673Y0149729D01*
X0259604Y0149729D02*
X0262673Y0145125D01*
X0259604Y0145125D02*
X0259604Y0149729D01*
X0258069Y0148962D02*
X0257302Y0149729D01*
X0255767Y0149729D01*
X0255000Y0148962D01*
X0255000Y0145892D01*
X0255767Y0145125D01*
X0257302Y0145125D01*
X0258069Y0145892D01*
X0258069Y0147427D01*
X0256535Y0147427D01*
X0256535Y0154500D02*
X0256535Y0159104D01*
X0258069Y0159104D02*
X0255000Y0159104D01*
X0259604Y0159104D02*
X0259604Y0154500D01*
X0262673Y0154500D01*
X0264208Y0155267D02*
X0264975Y0154500D01*
X0266510Y0154500D01*
X0267277Y0155267D01*
X0267277Y0156035D01*
X0266510Y0156802D01*
X0264975Y0156802D01*
X0264208Y0157569D01*
X0264208Y0158337D01*
X0264975Y0159104D01*
X0266510Y0159104D01*
X0267277Y0158337D01*
X0268812Y0159104D02*
X0271881Y0159104D01*
X0270346Y0159104D02*
X0270346Y0154500D01*
X0262673Y0159104D02*
X0259604Y0159104D01*
X0259604Y0156802D02*
X0261139Y0156802D01*
X0261906Y0165125D02*
X0260371Y0165125D01*
X0259604Y0165892D01*
X0258069Y0165125D02*
X0256535Y0166660D01*
X0257302Y0166660D02*
X0255000Y0166660D01*
X0255000Y0165125D02*
X0255000Y0169729D01*
X0257302Y0169729D01*
X0258069Y0168962D01*
X0258069Y0167427D01*
X0257302Y0166660D01*
X0259604Y0168194D02*
X0259604Y0168962D01*
X0260371Y0169729D01*
X0261906Y0169729D01*
X0262673Y0168962D01*
X0264208Y0169729D02*
X0267277Y0169729D01*
X0265742Y0169729D02*
X0265742Y0165125D01*
X0262673Y0165892D02*
X0262673Y0166660D01*
X0261906Y0167427D01*
X0260371Y0167427D01*
X0259604Y0168194D01*
X0262673Y0165892D02*
X0261906Y0165125D01*
D11*
X0183617Y0138119D02*
X0183617Y0136184D01*
X0183134Y0135700D01*
X0182166Y0135700D01*
X0181682Y0136184D01*
X0181682Y0138119D01*
X0182166Y0138602D01*
X0183134Y0138602D01*
X0183617Y0138119D01*
X0180686Y0138602D02*
X0179718Y0138602D01*
X0180202Y0138602D02*
X0180202Y0135700D01*
X0179718Y0135700D02*
X0180686Y0135700D01*
X0178706Y0137151D02*
X0178223Y0136667D01*
X0176772Y0136667D01*
X0176772Y0135700D02*
X0176772Y0138602D01*
X0178223Y0138602D01*
X0178706Y0138119D01*
X0178706Y0137151D01*
X0175760Y0137151D02*
X0174792Y0137151D01*
X0175760Y0137151D02*
X0175760Y0136184D01*
X0175276Y0135700D01*
X0174309Y0135700D01*
X0173825Y0136184D01*
X0173825Y0138119D01*
X0174309Y0138602D01*
X0175276Y0138602D01*
X0175760Y0138119D01*
X0095265Y0086495D02*
X0095265Y0083359D01*
X0094481Y0082575D01*
X0092913Y0082575D01*
X0092129Y0083359D01*
X0090661Y0083359D02*
X0089877Y0082575D01*
X0088309Y0082575D01*
X0087525Y0083359D01*
X0087525Y0087279D01*
X0090661Y0087279D02*
X0090661Y0083359D01*
X0092913Y0084927D02*
X0092129Y0085711D01*
X0092129Y0086495D01*
X0092913Y0087279D01*
X0094481Y0087279D01*
X0095265Y0086495D01*
X0095265Y0084927D02*
X0092913Y0084927D01*
X0107700Y0049977D02*
X0107700Y0047559D01*
X0108184Y0047075D01*
X0109151Y0047075D01*
X0109635Y0047559D01*
X0109635Y0049977D01*
X0110647Y0048526D02*
X0112581Y0048526D01*
X0112098Y0047075D02*
X0112098Y0049977D01*
X0110647Y0048526D01*
X0150825Y0049352D02*
X0150825Y0046934D01*
X0151309Y0046450D01*
X0152276Y0046450D01*
X0152760Y0046934D01*
X0152760Y0049352D01*
X0153772Y0049352D02*
X0153772Y0047901D01*
X0154739Y0048385D01*
X0155223Y0048385D01*
X0155706Y0047901D01*
X0155706Y0046934D01*
X0155223Y0046450D01*
X0154255Y0046450D01*
X0153772Y0046934D01*
X0153772Y0049352D02*
X0155706Y0049352D01*
X0187700Y0049352D02*
X0187700Y0046934D01*
X0188184Y0046450D01*
X0189151Y0046450D01*
X0189635Y0046934D01*
X0189635Y0049352D01*
X0190647Y0047901D02*
X0191614Y0048869D01*
X0192581Y0049352D01*
X0192098Y0047901D02*
X0190647Y0047901D01*
X0190647Y0046934D01*
X0191130Y0046450D01*
X0192098Y0046450D01*
X0192581Y0046934D01*
X0192581Y0047417D01*
X0192098Y0047901D01*
D12*
X0198133Y0014005D02*
X0198133Y0007600D01*
X0195998Y0007600D02*
X0200268Y0007600D01*
X0202443Y0007600D02*
X0203511Y0007600D01*
X0203511Y0008668D01*
X0202443Y0008668D01*
X0202443Y0007600D01*
X0205666Y0008668D02*
X0209937Y0012938D01*
X0209937Y0008668D01*
X0208869Y0007600D01*
X0206734Y0007600D01*
X0205666Y0008668D01*
X0205666Y0012938D01*
X0206734Y0014005D01*
X0208869Y0014005D01*
X0209937Y0012938D01*
X0198133Y0014005D02*
X0195998Y0011870D01*
X0187377Y0011870D02*
X0185242Y0007600D01*
X0183107Y0011870D01*
X0180932Y0010803D02*
X0180932Y0009735D01*
X0176661Y0009735D01*
X0176661Y0008668D02*
X0176661Y0010803D01*
X0177729Y0011870D01*
X0179864Y0011870D01*
X0180932Y0010803D01*
X0179864Y0007600D02*
X0177729Y0007600D01*
X0176661Y0008668D01*
X0174486Y0007600D02*
X0172351Y0009735D01*
X0173419Y0009735D02*
X0170216Y0009735D01*
X0170216Y0007600D02*
X0170216Y0014005D01*
X0173419Y0014005D01*
X0174486Y0012938D01*
X0174486Y0010803D01*
X0173419Y0009735D01*
X0161595Y0007600D02*
X0158393Y0007600D01*
X0157325Y0008668D01*
X0157325Y0010803D01*
X0158393Y0011870D01*
X0161595Y0011870D01*
X0161595Y0014005D02*
X0161595Y0007600D01*
X0155156Y0011870D02*
X0154089Y0011870D01*
X0151954Y0009735D01*
X0151954Y0007600D02*
X0151954Y0011870D01*
X0149779Y0010803D02*
X0149779Y0007600D01*
X0146576Y0007600D01*
X0145508Y0008668D01*
X0146576Y0009735D01*
X0149779Y0009735D01*
X0149779Y0010803D02*
X0148711Y0011870D01*
X0146576Y0011870D01*
X0143333Y0010803D02*
X0142265Y0011870D01*
X0140130Y0011870D01*
X0139063Y0010803D01*
X0139063Y0008668D01*
X0140130Y0007600D01*
X0142265Y0007600D01*
X0143333Y0008668D01*
X0143333Y0010803D01*
X0136888Y0011870D02*
X0135820Y0010803D01*
X0132617Y0010803D01*
X0132617Y0014005D02*
X0132617Y0007600D01*
X0135820Y0007600D01*
X0136888Y0008668D01*
X0136888Y0009735D01*
X0135820Y0010803D01*
X0136888Y0011870D02*
X0136888Y0012938D01*
X0135820Y0014005D01*
X0132617Y0014005D01*
X0123997Y0010803D02*
X0123997Y0007600D01*
X0123997Y0010803D02*
X0122929Y0011870D01*
X0119726Y0011870D01*
X0119726Y0007600D01*
X0117564Y0007600D02*
X0115429Y0007600D01*
X0116497Y0007600D02*
X0116497Y0011870D01*
X0115429Y0011870D01*
X0116497Y0014005D02*
X0116497Y0015073D01*
X0113254Y0010803D02*
X0112186Y0011870D01*
X0108984Y0011870D01*
X0108984Y0005465D01*
X0108984Y0007600D02*
X0112186Y0007600D01*
X0113254Y0008668D01*
X0113254Y0010803D01*
X0106809Y0009735D02*
X0106809Y0008668D01*
X0105741Y0007600D01*
X0103606Y0007600D01*
X0102538Y0008668D01*
X0103606Y0010803D02*
X0105741Y0010803D01*
X0106809Y0009735D01*
X0106809Y0012938D02*
X0105741Y0014005D01*
X0103606Y0014005D01*
X0102538Y0012938D01*
X0102538Y0011870D01*
X0103606Y0010803D01*
X0093924Y0011870D02*
X0092857Y0011870D01*
X0090722Y0009735D01*
X0090722Y0007600D02*
X0090722Y0011870D01*
X0088546Y0010803D02*
X0087479Y0011870D01*
X0085344Y0011870D01*
X0084276Y0010803D01*
X0084276Y0008668D01*
X0085344Y0007600D01*
X0087479Y0007600D01*
X0088546Y0008668D01*
X0088546Y0010803D01*
X0082114Y0007600D02*
X0079979Y0007600D01*
X0081047Y0007600D02*
X0081047Y0014005D01*
X0079979Y0014005D01*
X0077804Y0010803D02*
X0076736Y0011870D01*
X0074601Y0011870D01*
X0073534Y0010803D01*
X0073534Y0008668D01*
X0074601Y0007600D01*
X0076736Y0007600D01*
X0077804Y0008668D01*
X0077804Y0010803D01*
X0071358Y0012938D02*
X0070291Y0014005D01*
X0068156Y0014005D01*
X0067088Y0012938D01*
X0067088Y0008668D01*
X0068156Y0007600D01*
X0070291Y0007600D01*
X0071358Y0008668D01*
X0081925Y0094175D02*
X0081925Y0096175D01*
X0081025Y0096175D01*
X0081025Y0101075D01*
X0081125Y0101075D01*
X0081925Y0101075D01*
X0081925Y0103175D01*
X0082825Y0103175D01*
X0082825Y0101075D01*
X0084525Y0101075D01*
X0084525Y0103175D01*
X0085325Y0103175D01*
X0085325Y0101075D01*
X0087025Y0101075D01*
X0087025Y0103175D01*
X0087925Y0103175D01*
X0087925Y0101075D01*
X0088725Y0101075D01*
X0088825Y0101075D01*
X0088825Y0096175D01*
X0087925Y0096175D01*
X0087925Y0096275D01*
X0088725Y0096275D01*
X0088725Y0101075D01*
X0087925Y0101075D02*
X0087925Y0100975D01*
X0087025Y0100975D01*
X0087025Y0101075D01*
X0085325Y0101075D02*
X0085325Y0100975D01*
X0084525Y0100975D01*
X0084525Y0101075D01*
X0082825Y0101075D02*
X0082825Y0100975D01*
X0081925Y0100975D01*
X0081925Y0101075D01*
X0081125Y0101075D02*
X0081125Y0096275D01*
X0081925Y0096275D01*
X0081925Y0096375D01*
X0082825Y0096375D01*
X0082825Y0096275D01*
X0084525Y0096275D01*
X0084525Y0096375D01*
X0085325Y0096375D01*
X0085325Y0096275D01*
X0087025Y0096275D01*
X0087025Y0096375D01*
X0087925Y0096375D01*
X0087925Y0096275D01*
X0087925Y0096175D02*
X0087925Y0094175D01*
X0087025Y0094175D01*
X0087025Y0096175D01*
X0085325Y0096175D01*
X0085325Y0096275D01*
X0085325Y0096175D02*
X0085325Y0094175D01*
X0084525Y0094175D01*
X0084525Y0096175D01*
X0082825Y0096175D01*
X0082825Y0096275D01*
X0082825Y0096175D02*
X0082825Y0094175D01*
X0081925Y0094175D01*
X0081925Y0096175D02*
X0081925Y0096275D01*
X0082325Y0096975D02*
X0082283Y0096977D01*
X0082242Y0096983D01*
X0082202Y0096992D01*
X0082162Y0097005D01*
X0082124Y0097022D01*
X0082088Y0097042D01*
X0082054Y0097066D01*
X0082022Y0097092D01*
X0081992Y0097122D01*
X0081966Y0097154D01*
X0081942Y0097188D01*
X0081922Y0097224D01*
X0081905Y0097262D01*
X0081892Y0097302D01*
X0081883Y0097342D01*
X0081877Y0097383D01*
X0081875Y0097425D01*
X0081877Y0097467D01*
X0081883Y0097508D01*
X0081892Y0097548D01*
X0081905Y0097588D01*
X0081922Y0097626D01*
X0081942Y0097662D01*
X0081966Y0097696D01*
X0081992Y0097728D01*
X0082022Y0097758D01*
X0082054Y0097784D01*
X0082088Y0097808D01*
X0082124Y0097828D01*
X0082162Y0097845D01*
X0082202Y0097858D01*
X0082242Y0097867D01*
X0082283Y0097873D01*
X0082325Y0097875D01*
X0082367Y0097873D01*
X0082408Y0097867D01*
X0082448Y0097858D01*
X0082488Y0097845D01*
X0082526Y0097828D01*
X0082562Y0097808D01*
X0082596Y0097784D01*
X0082628Y0097758D01*
X0082658Y0097728D01*
X0082684Y0097696D01*
X0082708Y0097662D01*
X0082728Y0097626D01*
X0082745Y0097588D01*
X0082758Y0097548D01*
X0082767Y0097508D01*
X0082773Y0097467D01*
X0082775Y0097425D01*
X0082773Y0097383D01*
X0082767Y0097342D01*
X0082758Y0097302D01*
X0082745Y0097262D01*
X0082728Y0097224D01*
X0082708Y0097188D01*
X0082684Y0097154D01*
X0082658Y0097122D01*
X0082628Y0097092D01*
X0082596Y0097066D01*
X0082562Y0097042D01*
X0082526Y0097022D01*
X0082488Y0097005D01*
X0082448Y0096992D01*
X0082408Y0096983D01*
X0082367Y0096977D01*
X0082325Y0096975D01*
X0084525Y0096275D02*
X0084525Y0096175D01*
X0087025Y0096175D02*
X0087025Y0096275D01*
X0132050Y0127300D02*
X0135550Y0127300D01*
X0145050Y0127300D01*
X0149050Y0127300D01*
X0152550Y0135300D02*
X0152550Y0136300D01*
X0153550Y0136300D01*
X0153550Y0142300D01*
X0152550Y0142300D01*
X0152550Y0143300D01*
X0149050Y0151300D02*
X0145550Y0151300D01*
X0135550Y0151300D01*
X0132050Y0151300D01*
X0128550Y0143300D02*
X0128550Y0142300D01*
X0127550Y0142300D01*
X0127550Y0136300D01*
X0128550Y0136300D01*
X0128550Y0135300D01*
X0139550Y0139300D02*
X0139552Y0139363D01*
X0139558Y0139425D01*
X0139568Y0139487D01*
X0139581Y0139549D01*
X0139599Y0139609D01*
X0139620Y0139668D01*
X0139645Y0139726D01*
X0139674Y0139782D01*
X0139706Y0139836D01*
X0139741Y0139888D01*
X0139779Y0139937D01*
X0139821Y0139985D01*
X0139865Y0140029D01*
X0139913Y0140071D01*
X0139962Y0140109D01*
X0140014Y0140144D01*
X0140068Y0140176D01*
X0140124Y0140205D01*
X0140182Y0140230D01*
X0140241Y0140251D01*
X0140301Y0140269D01*
X0140363Y0140282D01*
X0140425Y0140292D01*
X0140487Y0140298D01*
X0140550Y0140300D01*
X0140613Y0140298D01*
X0140675Y0140292D01*
X0140737Y0140282D01*
X0140799Y0140269D01*
X0140859Y0140251D01*
X0140918Y0140230D01*
X0140976Y0140205D01*
X0141032Y0140176D01*
X0141086Y0140144D01*
X0141138Y0140109D01*
X0141187Y0140071D01*
X0141235Y0140029D01*
X0141279Y0139985D01*
X0141321Y0139937D01*
X0141359Y0139888D01*
X0141394Y0139836D01*
X0141426Y0139782D01*
X0141455Y0139726D01*
X0141480Y0139668D01*
X0141501Y0139609D01*
X0141519Y0139549D01*
X0141532Y0139487D01*
X0141542Y0139425D01*
X0141548Y0139363D01*
X0141550Y0139300D01*
X0141548Y0139237D01*
X0141542Y0139175D01*
X0141532Y0139113D01*
X0141519Y0139051D01*
X0141501Y0138991D01*
X0141480Y0138932D01*
X0141455Y0138874D01*
X0141426Y0138818D01*
X0141394Y0138764D01*
X0141359Y0138712D01*
X0141321Y0138663D01*
X0141279Y0138615D01*
X0141235Y0138571D01*
X0141187Y0138529D01*
X0141138Y0138491D01*
X0141086Y0138456D01*
X0141032Y0138424D01*
X0140976Y0138395D01*
X0140918Y0138370D01*
X0140859Y0138349D01*
X0140799Y0138331D01*
X0140737Y0138318D01*
X0140675Y0138308D01*
X0140613Y0138302D01*
X0140550Y0138300D01*
X0140487Y0138302D01*
X0140425Y0138308D01*
X0140363Y0138318D01*
X0140301Y0138331D01*
X0140241Y0138349D01*
X0140182Y0138370D01*
X0140124Y0138395D01*
X0140068Y0138424D01*
X0140014Y0138456D01*
X0139962Y0138491D01*
X0139913Y0138529D01*
X0139865Y0138571D01*
X0139821Y0138615D01*
X0139779Y0138663D01*
X0139741Y0138712D01*
X0139706Y0138764D01*
X0139674Y0138818D01*
X0139645Y0138874D01*
X0139620Y0138932D01*
X0139599Y0138991D01*
X0139581Y0139051D01*
X0139568Y0139113D01*
X0139558Y0139175D01*
X0139552Y0139237D01*
X0139550Y0139300D01*
X0133550Y0139300D02*
X0133552Y0139472D01*
X0133558Y0139643D01*
X0133569Y0139815D01*
X0133584Y0139986D01*
X0133603Y0140157D01*
X0133626Y0140327D01*
X0133653Y0140497D01*
X0133685Y0140666D01*
X0133720Y0140834D01*
X0133760Y0141001D01*
X0133804Y0141167D01*
X0133851Y0141332D01*
X0133903Y0141496D01*
X0133959Y0141658D01*
X0134019Y0141819D01*
X0134083Y0141979D01*
X0134151Y0142137D01*
X0134222Y0142293D01*
X0134297Y0142447D01*
X0134377Y0142600D01*
X0134459Y0142750D01*
X0134546Y0142899D01*
X0134636Y0143045D01*
X0134730Y0143189D01*
X0134827Y0143331D01*
X0134928Y0143470D01*
X0135032Y0143607D01*
X0135139Y0143741D01*
X0135250Y0143872D01*
X0135363Y0144001D01*
X0135480Y0144127D01*
X0135600Y0144250D01*
X0135723Y0144370D01*
X0135849Y0144487D01*
X0135978Y0144600D01*
X0136109Y0144711D01*
X0136243Y0144818D01*
X0136380Y0144922D01*
X0136519Y0145023D01*
X0136661Y0145120D01*
X0136805Y0145214D01*
X0136951Y0145304D01*
X0137100Y0145391D01*
X0137250Y0145473D01*
X0137403Y0145553D01*
X0137557Y0145628D01*
X0137713Y0145699D01*
X0137871Y0145767D01*
X0138031Y0145831D01*
X0138192Y0145891D01*
X0138354Y0145947D01*
X0138518Y0145999D01*
X0138683Y0146046D01*
X0138849Y0146090D01*
X0139016Y0146130D01*
X0139184Y0146165D01*
X0139353Y0146197D01*
X0139523Y0146224D01*
X0139693Y0146247D01*
X0139864Y0146266D01*
X0140035Y0146281D01*
X0140207Y0146292D01*
X0140378Y0146298D01*
X0140550Y0146300D01*
X0140722Y0146298D01*
X0140893Y0146292D01*
X0141065Y0146281D01*
X0141236Y0146266D01*
X0141407Y0146247D01*
X0141577Y0146224D01*
X0141747Y0146197D01*
X0141916Y0146165D01*
X0142084Y0146130D01*
X0142251Y0146090D01*
X0142417Y0146046D01*
X0142582Y0145999D01*
X0142746Y0145947D01*
X0142908Y0145891D01*
X0143069Y0145831D01*
X0143229Y0145767D01*
X0143387Y0145699D01*
X0143543Y0145628D01*
X0143697Y0145553D01*
X0143850Y0145473D01*
X0144000Y0145391D01*
X0144149Y0145304D01*
X0144295Y0145214D01*
X0144439Y0145120D01*
X0144581Y0145023D01*
X0144720Y0144922D01*
X0144857Y0144818D01*
X0144991Y0144711D01*
X0145122Y0144600D01*
X0145251Y0144487D01*
X0145377Y0144370D01*
X0145500Y0144250D01*
X0145620Y0144127D01*
X0145737Y0144001D01*
X0145850Y0143872D01*
X0145961Y0143741D01*
X0146068Y0143607D01*
X0146172Y0143470D01*
X0146273Y0143331D01*
X0146370Y0143189D01*
X0146464Y0143045D01*
X0146554Y0142899D01*
X0146641Y0142750D01*
X0146723Y0142600D01*
X0146803Y0142447D01*
X0146878Y0142293D01*
X0146949Y0142137D01*
X0147017Y0141979D01*
X0147081Y0141819D01*
X0147141Y0141658D01*
X0147197Y0141496D01*
X0147249Y0141332D01*
X0147296Y0141167D01*
X0147340Y0141001D01*
X0147380Y0140834D01*
X0147415Y0140666D01*
X0147447Y0140497D01*
X0147474Y0140327D01*
X0147497Y0140157D01*
X0147516Y0139986D01*
X0147531Y0139815D01*
X0147542Y0139643D01*
X0147548Y0139472D01*
X0147550Y0139300D01*
X0147548Y0139128D01*
X0147542Y0138957D01*
X0147531Y0138785D01*
X0147516Y0138614D01*
X0147497Y0138443D01*
X0147474Y0138273D01*
X0147447Y0138103D01*
X0147415Y0137934D01*
X0147380Y0137766D01*
X0147340Y0137599D01*
X0147296Y0137433D01*
X0147249Y0137268D01*
X0147197Y0137104D01*
X0147141Y0136942D01*
X0147081Y0136781D01*
X0147017Y0136621D01*
X0146949Y0136463D01*
X0146878Y0136307D01*
X0146803Y0136153D01*
X0146723Y0136000D01*
X0146641Y0135850D01*
X0146554Y0135701D01*
X0146464Y0135555D01*
X0146370Y0135411D01*
X0146273Y0135269D01*
X0146172Y0135130D01*
X0146068Y0134993D01*
X0145961Y0134859D01*
X0145850Y0134728D01*
X0145737Y0134599D01*
X0145620Y0134473D01*
X0145500Y0134350D01*
X0145377Y0134230D01*
X0145251Y0134113D01*
X0145122Y0134000D01*
X0144991Y0133889D01*
X0144857Y0133782D01*
X0144720Y0133678D01*
X0144581Y0133577D01*
X0144439Y0133480D01*
X0144295Y0133386D01*
X0144149Y0133296D01*
X0144000Y0133209D01*
X0143850Y0133127D01*
X0143697Y0133047D01*
X0143543Y0132972D01*
X0143387Y0132901D01*
X0143229Y0132833D01*
X0143069Y0132769D01*
X0142908Y0132709D01*
X0142746Y0132653D01*
X0142582Y0132601D01*
X0142417Y0132554D01*
X0142251Y0132510D01*
X0142084Y0132470D01*
X0141916Y0132435D01*
X0141747Y0132403D01*
X0141577Y0132376D01*
X0141407Y0132353D01*
X0141236Y0132334D01*
X0141065Y0132319D01*
X0140893Y0132308D01*
X0140722Y0132302D01*
X0140550Y0132300D01*
X0140378Y0132302D01*
X0140207Y0132308D01*
X0140035Y0132319D01*
X0139864Y0132334D01*
X0139693Y0132353D01*
X0139523Y0132376D01*
X0139353Y0132403D01*
X0139184Y0132435D01*
X0139016Y0132470D01*
X0138849Y0132510D01*
X0138683Y0132554D01*
X0138518Y0132601D01*
X0138354Y0132653D01*
X0138192Y0132709D01*
X0138031Y0132769D01*
X0137871Y0132833D01*
X0137713Y0132901D01*
X0137557Y0132972D01*
X0137403Y0133047D01*
X0137250Y0133127D01*
X0137100Y0133209D01*
X0136951Y0133296D01*
X0136805Y0133386D01*
X0136661Y0133480D01*
X0136519Y0133577D01*
X0136380Y0133678D01*
X0136243Y0133782D01*
X0136109Y0133889D01*
X0135978Y0134000D01*
X0135849Y0134113D01*
X0135723Y0134230D01*
X0135600Y0134350D01*
X0135480Y0134473D01*
X0135363Y0134599D01*
X0135250Y0134728D01*
X0135139Y0134859D01*
X0135032Y0134993D01*
X0134928Y0135130D01*
X0134827Y0135269D01*
X0134730Y0135411D01*
X0134636Y0135555D01*
X0134546Y0135701D01*
X0134459Y0135850D01*
X0134377Y0136000D01*
X0134297Y0136153D01*
X0134222Y0136307D01*
X0134151Y0136463D01*
X0134083Y0136621D01*
X0134019Y0136781D01*
X0133959Y0136942D01*
X0133903Y0137104D01*
X0133851Y0137268D01*
X0133804Y0137433D01*
X0133760Y0137599D01*
X0133720Y0137766D01*
X0133685Y0137934D01*
X0133653Y0138103D01*
X0133626Y0138273D01*
X0133603Y0138443D01*
X0133584Y0138614D01*
X0133569Y0138785D01*
X0133558Y0138957D01*
X0133552Y0139128D01*
X0133550Y0139300D01*
X0161800Y0141175D02*
X0161800Y0136175D01*
X0164300Y0133675D01*
X0169300Y0133675D01*
X0171800Y0136175D01*
X0171800Y0141175D01*
X0169300Y0143675D01*
X0164300Y0143675D01*
X0161800Y0141175D01*
X0241175Y0144925D02*
X0243675Y0142425D01*
X0248675Y0142425D01*
X0251175Y0144925D01*
X0251175Y0149925D01*
X0248675Y0152425D01*
X0251175Y0154925D01*
X0251175Y0159925D01*
X0248675Y0162425D01*
X0251175Y0164925D01*
X0251175Y0169925D01*
X0248675Y0172425D01*
X0243675Y0172425D01*
X0241175Y0169925D01*
X0241175Y0164925D01*
X0243675Y0162425D01*
X0248675Y0162425D01*
X0243675Y0162425D02*
X0241175Y0159925D01*
X0241175Y0154925D01*
X0243675Y0152425D01*
X0248675Y0152425D01*
X0243675Y0152425D02*
X0241175Y0149925D01*
X0241175Y0144925D01*
X0243675Y0139300D02*
X0241175Y0136800D01*
X0241175Y0131800D01*
X0243675Y0129300D01*
X0241175Y0126800D01*
X0241175Y0121800D01*
X0243675Y0119300D01*
X0248675Y0119300D01*
X0251175Y0121800D01*
X0251175Y0126800D01*
X0248675Y0129300D01*
X0243675Y0129300D01*
X0248675Y0129300D02*
X0251175Y0131800D01*
X0251175Y0136800D01*
X0248675Y0139300D01*
X0243675Y0139300D01*
D13*
X0156631Y0178450D02*
X0156631Y0184589D01*
X0153561Y0187658D01*
X0150492Y0184589D01*
X0150492Y0178450D01*
X0147423Y0178450D02*
X0147423Y0184589D01*
X0144354Y0187658D01*
X0141284Y0184589D01*
X0141284Y0178450D01*
X0138215Y0178450D02*
X0138215Y0184589D01*
X0135146Y0187658D01*
X0132076Y0184589D01*
X0132076Y0178450D01*
X0132076Y0183054D02*
X0138215Y0183054D01*
X0141284Y0183054D02*
X0147423Y0183054D01*
X0150492Y0183054D02*
X0156631Y0183054D01*
X0145806Y0047937D02*
X0142656Y0047937D01*
X0145806Y0047937D02*
X0145806Y0045575D01*
X0145806Y0039275D02*
X0145806Y0036913D01*
X0142656Y0036913D01*
X0105181Y0036913D02*
X0102031Y0036913D01*
X0105181Y0036913D02*
X0105181Y0039275D01*
X0105181Y0045575D02*
X0105181Y0047937D01*
X0102031Y0047937D01*
X0181406Y0047312D02*
X0184556Y0047312D01*
X0184556Y0044950D01*
X0184556Y0038650D02*
X0184556Y0036288D01*
X0181406Y0036288D01*
D14*
X0182450Y0045700D02*
X0182452Y0045736D01*
X0182458Y0045771D01*
X0182468Y0045806D01*
X0182481Y0045839D01*
X0182498Y0045870D01*
X0182519Y0045900D01*
X0182542Y0045927D01*
X0182568Y0045951D01*
X0182597Y0045972D01*
X0182628Y0045990D01*
X0182661Y0046004D01*
X0182695Y0046015D01*
X0182730Y0046022D01*
X0182766Y0046025D01*
X0182802Y0046024D01*
X0182837Y0046019D01*
X0182872Y0046010D01*
X0182906Y0045998D01*
X0182937Y0045981D01*
X0182967Y0045962D01*
X0182995Y0045939D01*
X0183020Y0045913D01*
X0183042Y0045885D01*
X0183061Y0045855D01*
X0183076Y0045822D01*
X0183088Y0045788D01*
X0183096Y0045753D01*
X0183100Y0045718D01*
X0183100Y0045682D01*
X0183096Y0045647D01*
X0183088Y0045612D01*
X0183076Y0045578D01*
X0183061Y0045545D01*
X0183042Y0045515D01*
X0183020Y0045487D01*
X0182995Y0045461D01*
X0182967Y0045438D01*
X0182938Y0045419D01*
X0182906Y0045402D01*
X0182872Y0045390D01*
X0182837Y0045381D01*
X0182802Y0045376D01*
X0182766Y0045375D01*
X0182730Y0045378D01*
X0182695Y0045385D01*
X0182661Y0045396D01*
X0182628Y0045410D01*
X0182597Y0045428D01*
X0182568Y0045449D01*
X0182542Y0045473D01*
X0182519Y0045500D01*
X0182498Y0045530D01*
X0182481Y0045561D01*
X0182468Y0045594D01*
X0182458Y0045629D01*
X0182452Y0045664D01*
X0182450Y0045700D01*
X0143700Y0046325D02*
X0143702Y0046361D01*
X0143708Y0046396D01*
X0143718Y0046431D01*
X0143731Y0046464D01*
X0143748Y0046495D01*
X0143769Y0046525D01*
X0143792Y0046552D01*
X0143818Y0046576D01*
X0143847Y0046597D01*
X0143878Y0046615D01*
X0143911Y0046629D01*
X0143945Y0046640D01*
X0143980Y0046647D01*
X0144016Y0046650D01*
X0144052Y0046649D01*
X0144087Y0046644D01*
X0144122Y0046635D01*
X0144156Y0046623D01*
X0144187Y0046606D01*
X0144217Y0046587D01*
X0144245Y0046564D01*
X0144270Y0046538D01*
X0144292Y0046510D01*
X0144311Y0046480D01*
X0144326Y0046447D01*
X0144338Y0046413D01*
X0144346Y0046378D01*
X0144350Y0046343D01*
X0144350Y0046307D01*
X0144346Y0046272D01*
X0144338Y0046237D01*
X0144326Y0046203D01*
X0144311Y0046170D01*
X0144292Y0046140D01*
X0144270Y0046112D01*
X0144245Y0046086D01*
X0144217Y0046063D01*
X0144188Y0046044D01*
X0144156Y0046027D01*
X0144122Y0046015D01*
X0144087Y0046006D01*
X0144052Y0046001D01*
X0144016Y0046000D01*
X0143980Y0046003D01*
X0143945Y0046010D01*
X0143911Y0046021D01*
X0143878Y0046035D01*
X0143847Y0046053D01*
X0143818Y0046074D01*
X0143792Y0046098D01*
X0143769Y0046125D01*
X0143748Y0046155D01*
X0143731Y0046186D01*
X0143718Y0046219D01*
X0143708Y0046254D01*
X0143702Y0046289D01*
X0143700Y0046325D01*
X0103075Y0046325D02*
X0103077Y0046361D01*
X0103083Y0046396D01*
X0103093Y0046431D01*
X0103106Y0046464D01*
X0103123Y0046495D01*
X0103144Y0046525D01*
X0103167Y0046552D01*
X0103193Y0046576D01*
X0103222Y0046597D01*
X0103253Y0046615D01*
X0103286Y0046629D01*
X0103320Y0046640D01*
X0103355Y0046647D01*
X0103391Y0046650D01*
X0103427Y0046649D01*
X0103462Y0046644D01*
X0103497Y0046635D01*
X0103531Y0046623D01*
X0103562Y0046606D01*
X0103592Y0046587D01*
X0103620Y0046564D01*
X0103645Y0046538D01*
X0103667Y0046510D01*
X0103686Y0046480D01*
X0103701Y0046447D01*
X0103713Y0046413D01*
X0103721Y0046378D01*
X0103725Y0046343D01*
X0103725Y0046307D01*
X0103721Y0046272D01*
X0103713Y0046237D01*
X0103701Y0046203D01*
X0103686Y0046170D01*
X0103667Y0046140D01*
X0103645Y0046112D01*
X0103620Y0046086D01*
X0103592Y0046063D01*
X0103563Y0046044D01*
X0103531Y0046027D01*
X0103497Y0046015D01*
X0103462Y0046006D01*
X0103427Y0046001D01*
X0103391Y0046000D01*
X0103355Y0046003D01*
X0103320Y0046010D01*
X0103286Y0046021D01*
X0103253Y0046035D01*
X0103222Y0046053D01*
X0103193Y0046074D01*
X0103167Y0046098D01*
X0103144Y0046125D01*
X0103123Y0046155D01*
X0103106Y0046186D01*
X0103093Y0046219D01*
X0103083Y0046254D01*
X0103077Y0046289D01*
X0103075Y0046325D01*
X0046328Y0087272D02*
X0046328Y0112863D01*
X0042391Y0116800D01*
X0016800Y0116800D01*
X0016800Y0087272D01*
X0046328Y0087272D01*
X0072676Y0109644D02*
X0072676Y0121456D01*
X0088424Y0121456D01*
X0088424Y0109644D01*
X0072676Y0109644D01*
X0113175Y0136550D02*
X0113175Y0141054D01*
X0115427Y0141054D01*
X0116178Y0140303D01*
X0116178Y0138802D01*
X0115427Y0138051D01*
X0113175Y0138051D01*
X0114676Y0138051D02*
X0116178Y0136550D01*
X0117779Y0137301D02*
X0118530Y0136550D01*
X0120031Y0136550D01*
X0120781Y0137301D01*
X0120781Y0138051D01*
X0120031Y0138802D01*
X0118530Y0138802D01*
X0117779Y0139553D01*
X0117779Y0140303D01*
X0118530Y0141054D01*
X0120031Y0141054D01*
X0120781Y0140303D01*
X0122383Y0141054D02*
X0125385Y0141054D01*
X0123884Y0141054D02*
X0123884Y0136550D01*
X0133698Y0106800D02*
X0133700Y0106848D01*
X0133706Y0106897D01*
X0133715Y0106944D01*
X0133729Y0106991D01*
X0133746Y0107036D01*
X0133767Y0107080D01*
X0133791Y0107122D01*
X0133819Y0107162D01*
X0133849Y0107199D01*
X0133883Y0107234D01*
X0133919Y0107266D01*
X0133958Y0107295D01*
X0133999Y0107321D01*
X0134042Y0107344D01*
X0134087Y0107363D01*
X0134133Y0107378D01*
X0134180Y0107390D01*
X0134227Y0107398D01*
X0134276Y0107402D01*
X0134324Y0107402D01*
X0134373Y0107398D01*
X0134420Y0107390D01*
X0134467Y0107378D01*
X0134513Y0107363D01*
X0134558Y0107344D01*
X0134601Y0107321D01*
X0134642Y0107295D01*
X0134681Y0107266D01*
X0134717Y0107234D01*
X0134751Y0107199D01*
X0134781Y0107162D01*
X0134809Y0107122D01*
X0134833Y0107080D01*
X0134854Y0107036D01*
X0134871Y0106991D01*
X0134885Y0106944D01*
X0134894Y0106897D01*
X0134900Y0106848D01*
X0134902Y0106800D01*
X0134900Y0106752D01*
X0134894Y0106703D01*
X0134885Y0106656D01*
X0134871Y0106609D01*
X0134854Y0106564D01*
X0134833Y0106520D01*
X0134809Y0106478D01*
X0134781Y0106438D01*
X0134751Y0106401D01*
X0134717Y0106366D01*
X0134681Y0106334D01*
X0134642Y0106305D01*
X0134601Y0106279D01*
X0134558Y0106256D01*
X0134513Y0106237D01*
X0134467Y0106222D01*
X0134420Y0106210D01*
X0134373Y0106202D01*
X0134324Y0106198D01*
X0134276Y0106198D01*
X0134227Y0106202D01*
X0134180Y0106210D01*
X0134133Y0106222D01*
X0134087Y0106237D01*
X0134042Y0106256D01*
X0133999Y0106279D01*
X0133958Y0106305D01*
X0133919Y0106334D01*
X0133883Y0106366D01*
X0133849Y0106401D01*
X0133819Y0106438D01*
X0133791Y0106478D01*
X0133767Y0106520D01*
X0133746Y0106564D01*
X0133729Y0106609D01*
X0133715Y0106656D01*
X0133706Y0106703D01*
X0133700Y0106752D01*
X0133698Y0106800D01*
X0167165Y0100645D02*
X0167165Y0128794D01*
X0184488Y0128794D01*
X0184488Y0100645D01*
X0167165Y0100645D01*
X0182913Y0102219D02*
X0182915Y0102246D01*
X0182921Y0102273D01*
X0182930Y0102299D01*
X0182943Y0102323D01*
X0182959Y0102346D01*
X0182978Y0102365D01*
X0183000Y0102382D01*
X0183024Y0102396D01*
X0183049Y0102406D01*
X0183076Y0102413D01*
X0183103Y0102416D01*
X0183131Y0102415D01*
X0183158Y0102410D01*
X0183184Y0102402D01*
X0183208Y0102390D01*
X0183231Y0102374D01*
X0183252Y0102356D01*
X0183269Y0102335D01*
X0183284Y0102311D01*
X0183295Y0102286D01*
X0183303Y0102260D01*
X0183307Y0102233D01*
X0183307Y0102205D01*
X0183303Y0102178D01*
X0183295Y0102152D01*
X0183284Y0102127D01*
X0183269Y0102103D01*
X0183252Y0102082D01*
X0183231Y0102064D01*
X0183209Y0102048D01*
X0183184Y0102036D01*
X0183158Y0102028D01*
X0183131Y0102023D01*
X0183103Y0102022D01*
X0183076Y0102025D01*
X0183049Y0102032D01*
X0183024Y0102042D01*
X0183000Y0102056D01*
X0182978Y0102073D01*
X0182959Y0102092D01*
X0182943Y0102115D01*
X0182930Y0102139D01*
X0182921Y0102165D01*
X0182915Y0102192D01*
X0182913Y0102219D01*
X0223238Y0121876D02*
X0223989Y0121125D01*
X0224739Y0121125D01*
X0225490Y0121876D01*
X0225490Y0125629D01*
X0224739Y0125629D02*
X0226241Y0125629D01*
X0227842Y0125629D02*
X0230094Y0125629D01*
X0230845Y0124878D01*
X0230845Y0123377D01*
X0230094Y0122626D01*
X0227842Y0122626D01*
X0227842Y0121125D02*
X0227842Y0125629D01*
X0232446Y0124878D02*
X0233197Y0125629D01*
X0234698Y0125629D01*
X0235449Y0124878D01*
X0235449Y0124128D01*
X0234698Y0123377D01*
X0235449Y0122626D01*
X0235449Y0121876D01*
X0234698Y0121125D01*
X0233197Y0121125D01*
X0232446Y0121876D01*
X0233947Y0123377D02*
X0234698Y0123377D01*
X0232272Y0116800D02*
X0232272Y0087272D01*
X0257863Y0087272D01*
X0261800Y0091209D01*
X0261800Y0116800D01*
X0232272Y0116800D01*
X0232446Y0144225D02*
X0235449Y0147228D01*
X0235449Y0147978D01*
X0234698Y0148729D01*
X0233197Y0148729D01*
X0232446Y0147978D01*
X0230845Y0147978D02*
X0230094Y0148729D01*
X0227842Y0148729D01*
X0227842Y0144225D01*
X0227842Y0145726D02*
X0230094Y0145726D01*
X0230845Y0146477D01*
X0230845Y0147978D01*
X0226241Y0148729D02*
X0224739Y0148729D01*
X0225490Y0148729D02*
X0225490Y0144976D01*
X0224739Y0144225D01*
X0223989Y0144225D01*
X0223238Y0144976D01*
X0232446Y0144225D02*
X0235449Y0144225D01*
X0237700Y0157450D02*
X0040900Y0157450D01*
X0040900Y0208650D01*
X0237700Y0208650D01*
X0237700Y0157450D01*
X0244300Y0183050D02*
X0254300Y0183050D01*
X0039300Y0173050D02*
X0034300Y0173050D01*
X0034300Y0193050D01*
X0039300Y0193050D01*
X0029300Y0183050D02*
X0019300Y0183050D01*
X0024300Y0178050D02*
X0024300Y0188050D01*
X0021675Y0171050D02*
X0021675Y0149050D01*
X0020675Y0148050D01*
X0021675Y0147050D01*
X0021675Y0125050D01*
X0019675Y0125050D01*
X0019675Y0127050D01*
X0007675Y0127050D01*
X0007675Y0125050D01*
X0005675Y0125050D01*
X0005675Y0147050D01*
X0006675Y0148050D01*
X0005675Y0149050D01*
X0005675Y0171050D01*
X0007675Y0171050D01*
X0007675Y0169050D01*
X0019675Y0169050D01*
X0019675Y0171050D01*
X0021675Y0171050D01*
X0017675Y0157050D02*
X0009675Y0157050D01*
X0009675Y0139050D01*
X0017675Y0139050D01*
X0017675Y0157050D01*
X0017675Y0146050D02*
X0009675Y0146050D01*
X0009675Y0145050D02*
X0017675Y0145050D01*
X0017675Y0144050D02*
X0009675Y0144050D01*
X0009675Y0143050D02*
X0017675Y0143050D01*
X0017675Y0142050D02*
X0009675Y0142050D01*
X0009675Y0141050D02*
X0017675Y0141050D01*
X0017675Y0140050D02*
X0009675Y0140050D01*
D15*
X0020332Y0107158D02*
X0019965Y0106791D01*
X0019965Y0106057D01*
X0020332Y0105690D01*
X0021800Y0105690D01*
X0022167Y0106057D01*
X0022167Y0106791D01*
X0021800Y0107158D01*
X0021066Y0107158D01*
X0021066Y0106424D01*
X0020672Y0097075D02*
X0021039Y0096708D01*
X0021039Y0095607D01*
X0021773Y0095607D02*
X0019571Y0095607D01*
X0019571Y0096708D01*
X0019938Y0097075D01*
X0020672Y0097075D01*
X0021039Y0096341D02*
X0021773Y0097075D01*
X0040945Y0097004D02*
X0040945Y0096270D01*
X0041312Y0095903D01*
X0042780Y0095903D01*
X0043147Y0096270D01*
X0043147Y0097004D01*
X0042780Y0097371D01*
X0041312Y0097371D02*
X0040945Y0097004D01*
X0041044Y0106186D02*
X0041044Y0107287D01*
X0041411Y0107654D01*
X0041778Y0107654D01*
X0042145Y0107287D01*
X0042145Y0106186D01*
X0043246Y0106186D02*
X0043246Y0107287D01*
X0042879Y0107654D01*
X0042512Y0107654D01*
X0042145Y0107287D01*
X0043246Y0106186D02*
X0041044Y0106186D01*
X0066511Y0114340D02*
X0066878Y0113973D01*
X0067612Y0113973D01*
X0067979Y0114340D01*
X0067979Y0116175D01*
X0068721Y0115808D02*
X0069088Y0116175D01*
X0069822Y0116175D01*
X0070189Y0115808D01*
X0070189Y0115441D01*
X0069822Y0115074D01*
X0069088Y0115074D01*
X0068721Y0115441D01*
X0068721Y0115808D01*
X0069088Y0115074D02*
X0068721Y0114707D01*
X0068721Y0114340D01*
X0069088Y0113973D01*
X0069822Y0113973D01*
X0070189Y0114340D01*
X0070189Y0114707D01*
X0069822Y0115074D01*
X0066511Y0114340D02*
X0066511Y0116175D01*
X0135550Y0127300D02*
X0135550Y0128300D01*
X0145050Y0128300D01*
X0145050Y0127300D01*
X0164963Y0130717D02*
X0165330Y0130350D01*
X0165697Y0130350D01*
X0166064Y0130717D01*
X0166064Y0132552D01*
X0165697Y0132552D02*
X0166431Y0132552D01*
X0167173Y0132552D02*
X0167173Y0130350D01*
X0167173Y0131084D02*
X0168274Y0131084D01*
X0168641Y0131451D01*
X0168641Y0132185D01*
X0168274Y0132552D01*
X0167173Y0132552D01*
X0169383Y0131818D02*
X0170117Y0132552D01*
X0170117Y0130350D01*
X0169383Y0130350D02*
X0170851Y0130350D01*
X0145550Y0150300D02*
X0145550Y0151300D01*
X0145550Y0150300D02*
X0135550Y0150300D01*
X0135550Y0151300D01*
X0240607Y0114029D02*
X0240607Y0111827D01*
X0240607Y0112561D02*
X0241708Y0112561D01*
X0242075Y0112928D01*
X0242075Y0113662D01*
X0241708Y0114029D01*
X0240607Y0114029D01*
X0241341Y0112561D02*
X0242075Y0111827D01*
X0250690Y0111800D02*
X0251057Y0111433D01*
X0251791Y0111433D01*
X0252158Y0111800D01*
X0252158Y0112534D01*
X0251424Y0112534D01*
X0250690Y0113268D02*
X0251057Y0113635D01*
X0251791Y0113635D01*
X0252158Y0113268D01*
X0250690Y0113268D02*
X0250690Y0111800D01*
X0251186Y0092556D02*
X0252287Y0092556D01*
X0252654Y0092189D01*
X0252654Y0091822D01*
X0252287Y0091455D01*
X0251186Y0091455D01*
X0251186Y0090354D02*
X0252287Y0090354D01*
X0252654Y0090721D01*
X0252654Y0091088D01*
X0252287Y0091455D01*
X0251186Y0090354D02*
X0251186Y0092556D01*
X0242371Y0092288D02*
X0242004Y0092655D01*
X0241270Y0092655D01*
X0240903Y0092288D01*
X0240903Y0090820D01*
X0241270Y0090453D01*
X0242004Y0090453D01*
X0242371Y0090820D01*
D16*
X0167220Y0033669D03*
X0161420Y0033669D03*
X0126595Y0033669D03*
X0120795Y0033669D03*
X0086595Y0033669D03*
X0080795Y0033669D03*
X0108920Y0129919D03*
X0114720Y0129919D03*
D17*
X0046181Y0069720D03*
X0046181Y0063920D03*
X0034306Y0063920D03*
X0034306Y0069720D03*
X0021181Y0069720D03*
X0021181Y0063920D03*
X0223681Y0065795D03*
X0223681Y0071595D03*
X0238056Y0071595D03*
X0238056Y0065795D03*
X0252431Y0065795D03*
X0252431Y0071595D03*
D18*
X0252735Y0099427D02*
X0252735Y0100928D01*
X0252235Y0100428D01*
X0251734Y0100928D01*
X0251734Y0099427D01*
X0251262Y0099677D02*
X0251012Y0099427D01*
X0250511Y0099427D01*
X0250261Y0099677D01*
X0250261Y0100178D02*
X0250761Y0100428D01*
X0251012Y0100428D01*
X0251262Y0100178D01*
X0251262Y0099677D01*
X0250261Y0100178D02*
X0250261Y0100928D01*
X0251262Y0100928D01*
X0253207Y0100928D02*
X0253708Y0100428D01*
X0254208Y0100928D01*
X0254208Y0099427D01*
X0253207Y0099427D02*
X0253207Y0100928D01*
X0248315Y0100428D02*
X0248315Y0099427D01*
X0248315Y0100178D02*
X0247314Y0100178D01*
X0247314Y0100428D02*
X0247815Y0100928D01*
X0248315Y0100428D01*
X0247314Y0100428D02*
X0247314Y0099427D01*
X0246842Y0099427D02*
X0246842Y0100928D01*
X0246842Y0100178D02*
X0245841Y0100178D01*
X0245841Y0100928D02*
X0245841Y0099427D01*
X0245369Y0099427D02*
X0245369Y0100928D01*
X0244368Y0100928D02*
X0244368Y0099427D01*
X0243895Y0099427D02*
X0243895Y0100428D01*
X0243395Y0100928D01*
X0242895Y0100428D01*
X0242895Y0099427D01*
X0242422Y0099427D02*
X0241922Y0099928D01*
X0242172Y0099928D02*
X0241421Y0099928D01*
X0241421Y0099427D02*
X0241421Y0100928D01*
X0242172Y0100928D01*
X0242422Y0100678D01*
X0242422Y0100178D01*
X0242172Y0099928D01*
X0242895Y0100178D02*
X0243895Y0100178D01*
X0244368Y0100928D02*
X0245369Y0099427D01*
X0240940Y0099427D02*
X0240439Y0099427D01*
X0240689Y0099427D02*
X0240689Y0100928D01*
X0240439Y0100928D02*
X0240940Y0100928D01*
X0239967Y0100678D02*
X0239967Y0100178D01*
X0239717Y0099928D01*
X0238966Y0099928D01*
X0238966Y0099427D02*
X0238966Y0100928D01*
X0239717Y0100928D01*
X0239967Y0100678D01*
X0034173Y0100841D02*
X0032672Y0100841D01*
X0032672Y0100369D02*
X0034173Y0100369D01*
X0032672Y0099368D01*
X0034173Y0099368D01*
X0034173Y0098895D02*
X0033172Y0098895D01*
X0032672Y0098395D01*
X0033172Y0097895D01*
X0034173Y0097895D01*
X0034173Y0097422D02*
X0033672Y0096922D01*
X0033672Y0097172D02*
X0033672Y0096421D01*
X0034173Y0096421D02*
X0032672Y0096421D01*
X0032672Y0097172D01*
X0032922Y0097422D01*
X0033422Y0097422D01*
X0033672Y0097172D01*
X0033422Y0097895D02*
X0033422Y0098895D01*
X0033422Y0100841D02*
X0033422Y0101842D01*
X0033422Y0102314D02*
X0033422Y0103315D01*
X0033172Y0103315D02*
X0034173Y0103315D01*
X0034173Y0102314D02*
X0033172Y0102314D01*
X0032672Y0102815D01*
X0033172Y0103315D01*
X0032672Y0101842D02*
X0034173Y0101842D01*
X0033923Y0105261D02*
X0034173Y0105511D01*
X0034173Y0106012D01*
X0033923Y0106262D01*
X0033422Y0106262D01*
X0033172Y0106012D01*
X0033172Y0105761D01*
X0033422Y0105261D01*
X0032672Y0105261D01*
X0032672Y0106262D01*
X0032672Y0106734D02*
X0033172Y0107235D01*
X0032672Y0107735D01*
X0034173Y0107735D01*
X0034173Y0108207D02*
X0032672Y0108207D01*
X0033172Y0108708D01*
X0032672Y0109208D01*
X0034173Y0109208D01*
X0034173Y0106734D02*
X0032672Y0106734D01*
X0032672Y0095940D02*
X0032672Y0095439D01*
X0032672Y0095689D02*
X0034173Y0095689D01*
X0034173Y0095439D02*
X0034173Y0095940D01*
X0033422Y0094967D02*
X0033672Y0094717D01*
X0033672Y0093966D01*
X0034173Y0093966D02*
X0032672Y0093966D01*
X0032672Y0094717D01*
X0032922Y0094967D01*
X0033422Y0094967D01*
M02*
