G75*
%MOIN*%
%OFA0B0*%
%FSLAX25Y25*%
%IPPOS*%
%LPD*%
%AMOC8*
5,1,8,0,0,1.08239X$1,22.5*
%
%ADD10C,0.00000*%
D10*
X0001800Y0001800D02*
X0001800Y0216800D01*
X0276800Y0216800D01*
X0276800Y0001800D01*
X0001800Y0001800D01*
X0012800Y0019300D02*
X0012802Y0019461D01*
X0012808Y0019621D01*
X0012818Y0019782D01*
X0012832Y0019942D01*
X0012850Y0020102D01*
X0012871Y0020261D01*
X0012897Y0020420D01*
X0012927Y0020578D01*
X0012960Y0020735D01*
X0012998Y0020892D01*
X0013039Y0021047D01*
X0013084Y0021201D01*
X0013133Y0021354D01*
X0013186Y0021506D01*
X0013242Y0021657D01*
X0013303Y0021806D01*
X0013366Y0021954D01*
X0013434Y0022100D01*
X0013505Y0022244D01*
X0013579Y0022386D01*
X0013657Y0022527D01*
X0013739Y0022665D01*
X0013824Y0022802D01*
X0013912Y0022936D01*
X0014004Y0023068D01*
X0014099Y0023198D01*
X0014197Y0023326D01*
X0014298Y0023451D01*
X0014402Y0023573D01*
X0014509Y0023693D01*
X0014619Y0023810D01*
X0014732Y0023925D01*
X0014848Y0024036D01*
X0014967Y0024145D01*
X0015088Y0024250D01*
X0015212Y0024353D01*
X0015338Y0024453D01*
X0015466Y0024549D01*
X0015597Y0024642D01*
X0015731Y0024732D01*
X0015866Y0024819D01*
X0016004Y0024902D01*
X0016143Y0024982D01*
X0016285Y0025058D01*
X0016428Y0025131D01*
X0016573Y0025200D01*
X0016720Y0025266D01*
X0016868Y0025328D01*
X0017018Y0025386D01*
X0017169Y0025441D01*
X0017322Y0025492D01*
X0017476Y0025539D01*
X0017631Y0025582D01*
X0017787Y0025621D01*
X0017943Y0025657D01*
X0018101Y0025688D01*
X0018259Y0025716D01*
X0018418Y0025740D01*
X0018578Y0025760D01*
X0018738Y0025776D01*
X0018898Y0025788D01*
X0019059Y0025796D01*
X0019220Y0025800D01*
X0019380Y0025800D01*
X0019541Y0025796D01*
X0019702Y0025788D01*
X0019862Y0025776D01*
X0020022Y0025760D01*
X0020182Y0025740D01*
X0020341Y0025716D01*
X0020499Y0025688D01*
X0020657Y0025657D01*
X0020813Y0025621D01*
X0020969Y0025582D01*
X0021124Y0025539D01*
X0021278Y0025492D01*
X0021431Y0025441D01*
X0021582Y0025386D01*
X0021732Y0025328D01*
X0021880Y0025266D01*
X0022027Y0025200D01*
X0022172Y0025131D01*
X0022315Y0025058D01*
X0022457Y0024982D01*
X0022596Y0024902D01*
X0022734Y0024819D01*
X0022869Y0024732D01*
X0023003Y0024642D01*
X0023134Y0024549D01*
X0023262Y0024453D01*
X0023388Y0024353D01*
X0023512Y0024250D01*
X0023633Y0024145D01*
X0023752Y0024036D01*
X0023868Y0023925D01*
X0023981Y0023810D01*
X0024091Y0023693D01*
X0024198Y0023573D01*
X0024302Y0023451D01*
X0024403Y0023326D01*
X0024501Y0023198D01*
X0024596Y0023068D01*
X0024688Y0022936D01*
X0024776Y0022802D01*
X0024861Y0022665D01*
X0024943Y0022527D01*
X0025021Y0022386D01*
X0025095Y0022244D01*
X0025166Y0022100D01*
X0025234Y0021954D01*
X0025297Y0021806D01*
X0025358Y0021657D01*
X0025414Y0021506D01*
X0025467Y0021354D01*
X0025516Y0021201D01*
X0025561Y0021047D01*
X0025602Y0020892D01*
X0025640Y0020735D01*
X0025673Y0020578D01*
X0025703Y0020420D01*
X0025729Y0020261D01*
X0025750Y0020102D01*
X0025768Y0019942D01*
X0025782Y0019782D01*
X0025792Y0019621D01*
X0025798Y0019461D01*
X0025800Y0019300D01*
X0025798Y0019139D01*
X0025792Y0018979D01*
X0025782Y0018818D01*
X0025768Y0018658D01*
X0025750Y0018498D01*
X0025729Y0018339D01*
X0025703Y0018180D01*
X0025673Y0018022D01*
X0025640Y0017865D01*
X0025602Y0017708D01*
X0025561Y0017553D01*
X0025516Y0017399D01*
X0025467Y0017246D01*
X0025414Y0017094D01*
X0025358Y0016943D01*
X0025297Y0016794D01*
X0025234Y0016646D01*
X0025166Y0016500D01*
X0025095Y0016356D01*
X0025021Y0016214D01*
X0024943Y0016073D01*
X0024861Y0015935D01*
X0024776Y0015798D01*
X0024688Y0015664D01*
X0024596Y0015532D01*
X0024501Y0015402D01*
X0024403Y0015274D01*
X0024302Y0015149D01*
X0024198Y0015027D01*
X0024091Y0014907D01*
X0023981Y0014790D01*
X0023868Y0014675D01*
X0023752Y0014564D01*
X0023633Y0014455D01*
X0023512Y0014350D01*
X0023388Y0014247D01*
X0023262Y0014147D01*
X0023134Y0014051D01*
X0023003Y0013958D01*
X0022869Y0013868D01*
X0022734Y0013781D01*
X0022596Y0013698D01*
X0022457Y0013618D01*
X0022315Y0013542D01*
X0022172Y0013469D01*
X0022027Y0013400D01*
X0021880Y0013334D01*
X0021732Y0013272D01*
X0021582Y0013214D01*
X0021431Y0013159D01*
X0021278Y0013108D01*
X0021124Y0013061D01*
X0020969Y0013018D01*
X0020813Y0012979D01*
X0020657Y0012943D01*
X0020499Y0012912D01*
X0020341Y0012884D01*
X0020182Y0012860D01*
X0020022Y0012840D01*
X0019862Y0012824D01*
X0019702Y0012812D01*
X0019541Y0012804D01*
X0019380Y0012800D01*
X0019220Y0012800D01*
X0019059Y0012804D01*
X0018898Y0012812D01*
X0018738Y0012824D01*
X0018578Y0012840D01*
X0018418Y0012860D01*
X0018259Y0012884D01*
X0018101Y0012912D01*
X0017943Y0012943D01*
X0017787Y0012979D01*
X0017631Y0013018D01*
X0017476Y0013061D01*
X0017322Y0013108D01*
X0017169Y0013159D01*
X0017018Y0013214D01*
X0016868Y0013272D01*
X0016720Y0013334D01*
X0016573Y0013400D01*
X0016428Y0013469D01*
X0016285Y0013542D01*
X0016143Y0013618D01*
X0016004Y0013698D01*
X0015866Y0013781D01*
X0015731Y0013868D01*
X0015597Y0013958D01*
X0015466Y0014051D01*
X0015338Y0014147D01*
X0015212Y0014247D01*
X0015088Y0014350D01*
X0014967Y0014455D01*
X0014848Y0014564D01*
X0014732Y0014675D01*
X0014619Y0014790D01*
X0014509Y0014907D01*
X0014402Y0015027D01*
X0014298Y0015149D01*
X0014197Y0015274D01*
X0014099Y0015402D01*
X0014004Y0015532D01*
X0013912Y0015664D01*
X0013824Y0015798D01*
X0013739Y0015935D01*
X0013657Y0016073D01*
X0013579Y0016214D01*
X0013505Y0016356D01*
X0013434Y0016500D01*
X0013366Y0016646D01*
X0013303Y0016794D01*
X0013242Y0016943D01*
X0013186Y0017094D01*
X0013133Y0017246D01*
X0013084Y0017399D01*
X0013039Y0017553D01*
X0012998Y0017708D01*
X0012960Y0017865D01*
X0012927Y0018022D01*
X0012897Y0018180D01*
X0012871Y0018339D01*
X0012850Y0018498D01*
X0012832Y0018658D01*
X0012818Y0018818D01*
X0012808Y0018979D01*
X0012802Y0019139D01*
X0012800Y0019300D01*
X0095501Y0148675D02*
X0095503Y0148833D01*
X0095509Y0148991D01*
X0095519Y0149149D01*
X0095533Y0149307D01*
X0095551Y0149464D01*
X0095572Y0149621D01*
X0095598Y0149777D01*
X0095628Y0149933D01*
X0095661Y0150088D01*
X0095699Y0150241D01*
X0095740Y0150394D01*
X0095785Y0150546D01*
X0095834Y0150697D01*
X0095887Y0150846D01*
X0095943Y0150994D01*
X0096003Y0151140D01*
X0096067Y0151285D01*
X0096135Y0151428D01*
X0096206Y0151570D01*
X0096280Y0151710D01*
X0096358Y0151847D01*
X0096440Y0151983D01*
X0096524Y0152117D01*
X0096613Y0152248D01*
X0096704Y0152377D01*
X0096799Y0152504D01*
X0096896Y0152629D01*
X0096997Y0152751D01*
X0097101Y0152870D01*
X0097208Y0152987D01*
X0097318Y0153101D01*
X0097431Y0153212D01*
X0097546Y0153321D01*
X0097664Y0153426D01*
X0097785Y0153528D01*
X0097908Y0153628D01*
X0098034Y0153724D01*
X0098162Y0153817D01*
X0098292Y0153907D01*
X0098425Y0153993D01*
X0098560Y0154077D01*
X0098696Y0154156D01*
X0098835Y0154233D01*
X0098976Y0154305D01*
X0099118Y0154375D01*
X0099262Y0154440D01*
X0099408Y0154502D01*
X0099555Y0154560D01*
X0099704Y0154615D01*
X0099854Y0154666D01*
X0100005Y0154713D01*
X0100157Y0154756D01*
X0100310Y0154795D01*
X0100465Y0154831D01*
X0100620Y0154862D01*
X0100776Y0154890D01*
X0100932Y0154914D01*
X0101089Y0154934D01*
X0101247Y0154950D01*
X0101404Y0154962D01*
X0101563Y0154970D01*
X0101721Y0154974D01*
X0101879Y0154974D01*
X0102037Y0154970D01*
X0102196Y0154962D01*
X0102353Y0154950D01*
X0102511Y0154934D01*
X0102668Y0154914D01*
X0102824Y0154890D01*
X0102980Y0154862D01*
X0103135Y0154831D01*
X0103290Y0154795D01*
X0103443Y0154756D01*
X0103595Y0154713D01*
X0103746Y0154666D01*
X0103896Y0154615D01*
X0104045Y0154560D01*
X0104192Y0154502D01*
X0104338Y0154440D01*
X0104482Y0154375D01*
X0104624Y0154305D01*
X0104765Y0154233D01*
X0104904Y0154156D01*
X0105040Y0154077D01*
X0105175Y0153993D01*
X0105308Y0153907D01*
X0105438Y0153817D01*
X0105566Y0153724D01*
X0105692Y0153628D01*
X0105815Y0153528D01*
X0105936Y0153426D01*
X0106054Y0153321D01*
X0106169Y0153212D01*
X0106282Y0153101D01*
X0106392Y0152987D01*
X0106499Y0152870D01*
X0106603Y0152751D01*
X0106704Y0152629D01*
X0106801Y0152504D01*
X0106896Y0152377D01*
X0106987Y0152248D01*
X0107076Y0152117D01*
X0107160Y0151983D01*
X0107242Y0151847D01*
X0107320Y0151710D01*
X0107394Y0151570D01*
X0107465Y0151428D01*
X0107533Y0151285D01*
X0107597Y0151140D01*
X0107657Y0150994D01*
X0107713Y0150846D01*
X0107766Y0150697D01*
X0107815Y0150546D01*
X0107860Y0150394D01*
X0107901Y0150241D01*
X0107939Y0150088D01*
X0107972Y0149933D01*
X0108002Y0149777D01*
X0108028Y0149621D01*
X0108049Y0149464D01*
X0108067Y0149307D01*
X0108081Y0149149D01*
X0108091Y0148991D01*
X0108097Y0148833D01*
X0108099Y0148675D01*
X0108097Y0148517D01*
X0108091Y0148359D01*
X0108081Y0148201D01*
X0108067Y0148043D01*
X0108049Y0147886D01*
X0108028Y0147729D01*
X0108002Y0147573D01*
X0107972Y0147417D01*
X0107939Y0147262D01*
X0107901Y0147109D01*
X0107860Y0146956D01*
X0107815Y0146804D01*
X0107766Y0146653D01*
X0107713Y0146504D01*
X0107657Y0146356D01*
X0107597Y0146210D01*
X0107533Y0146065D01*
X0107465Y0145922D01*
X0107394Y0145780D01*
X0107320Y0145640D01*
X0107242Y0145503D01*
X0107160Y0145367D01*
X0107076Y0145233D01*
X0106987Y0145102D01*
X0106896Y0144973D01*
X0106801Y0144846D01*
X0106704Y0144721D01*
X0106603Y0144599D01*
X0106499Y0144480D01*
X0106392Y0144363D01*
X0106282Y0144249D01*
X0106169Y0144138D01*
X0106054Y0144029D01*
X0105936Y0143924D01*
X0105815Y0143822D01*
X0105692Y0143722D01*
X0105566Y0143626D01*
X0105438Y0143533D01*
X0105308Y0143443D01*
X0105175Y0143357D01*
X0105040Y0143273D01*
X0104904Y0143194D01*
X0104765Y0143117D01*
X0104624Y0143045D01*
X0104482Y0142975D01*
X0104338Y0142910D01*
X0104192Y0142848D01*
X0104045Y0142790D01*
X0103896Y0142735D01*
X0103746Y0142684D01*
X0103595Y0142637D01*
X0103443Y0142594D01*
X0103290Y0142555D01*
X0103135Y0142519D01*
X0102980Y0142488D01*
X0102824Y0142460D01*
X0102668Y0142436D01*
X0102511Y0142416D01*
X0102353Y0142400D01*
X0102196Y0142388D01*
X0102037Y0142380D01*
X0101879Y0142376D01*
X0101721Y0142376D01*
X0101563Y0142380D01*
X0101404Y0142388D01*
X0101247Y0142400D01*
X0101089Y0142416D01*
X0100932Y0142436D01*
X0100776Y0142460D01*
X0100620Y0142488D01*
X0100465Y0142519D01*
X0100310Y0142555D01*
X0100157Y0142594D01*
X0100005Y0142637D01*
X0099854Y0142684D01*
X0099704Y0142735D01*
X0099555Y0142790D01*
X0099408Y0142848D01*
X0099262Y0142910D01*
X0099118Y0142975D01*
X0098976Y0143045D01*
X0098835Y0143117D01*
X0098696Y0143194D01*
X0098560Y0143273D01*
X0098425Y0143357D01*
X0098292Y0143443D01*
X0098162Y0143533D01*
X0098034Y0143626D01*
X0097908Y0143722D01*
X0097785Y0143822D01*
X0097664Y0143924D01*
X0097546Y0144029D01*
X0097431Y0144138D01*
X0097318Y0144249D01*
X0097208Y0144363D01*
X0097101Y0144480D01*
X0096997Y0144599D01*
X0096896Y0144721D01*
X0096799Y0144846D01*
X0096704Y0144973D01*
X0096613Y0145102D01*
X0096524Y0145233D01*
X0096440Y0145367D01*
X0096358Y0145503D01*
X0096280Y0145640D01*
X0096206Y0145780D01*
X0096135Y0145922D01*
X0096067Y0146065D01*
X0096003Y0146210D01*
X0095943Y0146356D01*
X0095887Y0146504D01*
X0095834Y0146653D01*
X0095785Y0146804D01*
X0095740Y0146956D01*
X0095699Y0147109D01*
X0095661Y0147262D01*
X0095628Y0147417D01*
X0095598Y0147573D01*
X0095572Y0147729D01*
X0095551Y0147886D01*
X0095533Y0148043D01*
X0095519Y0148201D01*
X0095509Y0148359D01*
X0095503Y0148517D01*
X0095501Y0148675D01*
X0012800Y0199300D02*
X0012802Y0199461D01*
X0012808Y0199621D01*
X0012818Y0199782D01*
X0012832Y0199942D01*
X0012850Y0200102D01*
X0012871Y0200261D01*
X0012897Y0200420D01*
X0012927Y0200578D01*
X0012960Y0200735D01*
X0012998Y0200892D01*
X0013039Y0201047D01*
X0013084Y0201201D01*
X0013133Y0201354D01*
X0013186Y0201506D01*
X0013242Y0201657D01*
X0013303Y0201806D01*
X0013366Y0201954D01*
X0013434Y0202100D01*
X0013505Y0202244D01*
X0013579Y0202386D01*
X0013657Y0202527D01*
X0013739Y0202665D01*
X0013824Y0202802D01*
X0013912Y0202936D01*
X0014004Y0203068D01*
X0014099Y0203198D01*
X0014197Y0203326D01*
X0014298Y0203451D01*
X0014402Y0203573D01*
X0014509Y0203693D01*
X0014619Y0203810D01*
X0014732Y0203925D01*
X0014848Y0204036D01*
X0014967Y0204145D01*
X0015088Y0204250D01*
X0015212Y0204353D01*
X0015338Y0204453D01*
X0015466Y0204549D01*
X0015597Y0204642D01*
X0015731Y0204732D01*
X0015866Y0204819D01*
X0016004Y0204902D01*
X0016143Y0204982D01*
X0016285Y0205058D01*
X0016428Y0205131D01*
X0016573Y0205200D01*
X0016720Y0205266D01*
X0016868Y0205328D01*
X0017018Y0205386D01*
X0017169Y0205441D01*
X0017322Y0205492D01*
X0017476Y0205539D01*
X0017631Y0205582D01*
X0017787Y0205621D01*
X0017943Y0205657D01*
X0018101Y0205688D01*
X0018259Y0205716D01*
X0018418Y0205740D01*
X0018578Y0205760D01*
X0018738Y0205776D01*
X0018898Y0205788D01*
X0019059Y0205796D01*
X0019220Y0205800D01*
X0019380Y0205800D01*
X0019541Y0205796D01*
X0019702Y0205788D01*
X0019862Y0205776D01*
X0020022Y0205760D01*
X0020182Y0205740D01*
X0020341Y0205716D01*
X0020499Y0205688D01*
X0020657Y0205657D01*
X0020813Y0205621D01*
X0020969Y0205582D01*
X0021124Y0205539D01*
X0021278Y0205492D01*
X0021431Y0205441D01*
X0021582Y0205386D01*
X0021732Y0205328D01*
X0021880Y0205266D01*
X0022027Y0205200D01*
X0022172Y0205131D01*
X0022315Y0205058D01*
X0022457Y0204982D01*
X0022596Y0204902D01*
X0022734Y0204819D01*
X0022869Y0204732D01*
X0023003Y0204642D01*
X0023134Y0204549D01*
X0023262Y0204453D01*
X0023388Y0204353D01*
X0023512Y0204250D01*
X0023633Y0204145D01*
X0023752Y0204036D01*
X0023868Y0203925D01*
X0023981Y0203810D01*
X0024091Y0203693D01*
X0024198Y0203573D01*
X0024302Y0203451D01*
X0024403Y0203326D01*
X0024501Y0203198D01*
X0024596Y0203068D01*
X0024688Y0202936D01*
X0024776Y0202802D01*
X0024861Y0202665D01*
X0024943Y0202527D01*
X0025021Y0202386D01*
X0025095Y0202244D01*
X0025166Y0202100D01*
X0025234Y0201954D01*
X0025297Y0201806D01*
X0025358Y0201657D01*
X0025414Y0201506D01*
X0025467Y0201354D01*
X0025516Y0201201D01*
X0025561Y0201047D01*
X0025602Y0200892D01*
X0025640Y0200735D01*
X0025673Y0200578D01*
X0025703Y0200420D01*
X0025729Y0200261D01*
X0025750Y0200102D01*
X0025768Y0199942D01*
X0025782Y0199782D01*
X0025792Y0199621D01*
X0025798Y0199461D01*
X0025800Y0199300D01*
X0025798Y0199139D01*
X0025792Y0198979D01*
X0025782Y0198818D01*
X0025768Y0198658D01*
X0025750Y0198498D01*
X0025729Y0198339D01*
X0025703Y0198180D01*
X0025673Y0198022D01*
X0025640Y0197865D01*
X0025602Y0197708D01*
X0025561Y0197553D01*
X0025516Y0197399D01*
X0025467Y0197246D01*
X0025414Y0197094D01*
X0025358Y0196943D01*
X0025297Y0196794D01*
X0025234Y0196646D01*
X0025166Y0196500D01*
X0025095Y0196356D01*
X0025021Y0196214D01*
X0024943Y0196073D01*
X0024861Y0195935D01*
X0024776Y0195798D01*
X0024688Y0195664D01*
X0024596Y0195532D01*
X0024501Y0195402D01*
X0024403Y0195274D01*
X0024302Y0195149D01*
X0024198Y0195027D01*
X0024091Y0194907D01*
X0023981Y0194790D01*
X0023868Y0194675D01*
X0023752Y0194564D01*
X0023633Y0194455D01*
X0023512Y0194350D01*
X0023388Y0194247D01*
X0023262Y0194147D01*
X0023134Y0194051D01*
X0023003Y0193958D01*
X0022869Y0193868D01*
X0022734Y0193781D01*
X0022596Y0193698D01*
X0022457Y0193618D01*
X0022315Y0193542D01*
X0022172Y0193469D01*
X0022027Y0193400D01*
X0021880Y0193334D01*
X0021732Y0193272D01*
X0021582Y0193214D01*
X0021431Y0193159D01*
X0021278Y0193108D01*
X0021124Y0193061D01*
X0020969Y0193018D01*
X0020813Y0192979D01*
X0020657Y0192943D01*
X0020499Y0192912D01*
X0020341Y0192884D01*
X0020182Y0192860D01*
X0020022Y0192840D01*
X0019862Y0192824D01*
X0019702Y0192812D01*
X0019541Y0192804D01*
X0019380Y0192800D01*
X0019220Y0192800D01*
X0019059Y0192804D01*
X0018898Y0192812D01*
X0018738Y0192824D01*
X0018578Y0192840D01*
X0018418Y0192860D01*
X0018259Y0192884D01*
X0018101Y0192912D01*
X0017943Y0192943D01*
X0017787Y0192979D01*
X0017631Y0193018D01*
X0017476Y0193061D01*
X0017322Y0193108D01*
X0017169Y0193159D01*
X0017018Y0193214D01*
X0016868Y0193272D01*
X0016720Y0193334D01*
X0016573Y0193400D01*
X0016428Y0193469D01*
X0016285Y0193542D01*
X0016143Y0193618D01*
X0016004Y0193698D01*
X0015866Y0193781D01*
X0015731Y0193868D01*
X0015597Y0193958D01*
X0015466Y0194051D01*
X0015338Y0194147D01*
X0015212Y0194247D01*
X0015088Y0194350D01*
X0014967Y0194455D01*
X0014848Y0194564D01*
X0014732Y0194675D01*
X0014619Y0194790D01*
X0014509Y0194907D01*
X0014402Y0195027D01*
X0014298Y0195149D01*
X0014197Y0195274D01*
X0014099Y0195402D01*
X0014004Y0195532D01*
X0013912Y0195664D01*
X0013824Y0195798D01*
X0013739Y0195935D01*
X0013657Y0196073D01*
X0013579Y0196214D01*
X0013505Y0196356D01*
X0013434Y0196500D01*
X0013366Y0196646D01*
X0013303Y0196794D01*
X0013242Y0196943D01*
X0013186Y0197094D01*
X0013133Y0197246D01*
X0013084Y0197399D01*
X0013039Y0197553D01*
X0012998Y0197708D01*
X0012960Y0197865D01*
X0012927Y0198022D01*
X0012897Y0198180D01*
X0012871Y0198339D01*
X0012850Y0198498D01*
X0012832Y0198658D01*
X0012818Y0198818D01*
X0012808Y0198979D01*
X0012802Y0199139D01*
X0012800Y0199300D01*
X0170501Y0148675D02*
X0170503Y0148833D01*
X0170509Y0148991D01*
X0170519Y0149149D01*
X0170533Y0149307D01*
X0170551Y0149464D01*
X0170572Y0149621D01*
X0170598Y0149777D01*
X0170628Y0149933D01*
X0170661Y0150088D01*
X0170699Y0150241D01*
X0170740Y0150394D01*
X0170785Y0150546D01*
X0170834Y0150697D01*
X0170887Y0150846D01*
X0170943Y0150994D01*
X0171003Y0151140D01*
X0171067Y0151285D01*
X0171135Y0151428D01*
X0171206Y0151570D01*
X0171280Y0151710D01*
X0171358Y0151847D01*
X0171440Y0151983D01*
X0171524Y0152117D01*
X0171613Y0152248D01*
X0171704Y0152377D01*
X0171799Y0152504D01*
X0171896Y0152629D01*
X0171997Y0152751D01*
X0172101Y0152870D01*
X0172208Y0152987D01*
X0172318Y0153101D01*
X0172431Y0153212D01*
X0172546Y0153321D01*
X0172664Y0153426D01*
X0172785Y0153528D01*
X0172908Y0153628D01*
X0173034Y0153724D01*
X0173162Y0153817D01*
X0173292Y0153907D01*
X0173425Y0153993D01*
X0173560Y0154077D01*
X0173696Y0154156D01*
X0173835Y0154233D01*
X0173976Y0154305D01*
X0174118Y0154375D01*
X0174262Y0154440D01*
X0174408Y0154502D01*
X0174555Y0154560D01*
X0174704Y0154615D01*
X0174854Y0154666D01*
X0175005Y0154713D01*
X0175157Y0154756D01*
X0175310Y0154795D01*
X0175465Y0154831D01*
X0175620Y0154862D01*
X0175776Y0154890D01*
X0175932Y0154914D01*
X0176089Y0154934D01*
X0176247Y0154950D01*
X0176404Y0154962D01*
X0176563Y0154970D01*
X0176721Y0154974D01*
X0176879Y0154974D01*
X0177037Y0154970D01*
X0177196Y0154962D01*
X0177353Y0154950D01*
X0177511Y0154934D01*
X0177668Y0154914D01*
X0177824Y0154890D01*
X0177980Y0154862D01*
X0178135Y0154831D01*
X0178290Y0154795D01*
X0178443Y0154756D01*
X0178595Y0154713D01*
X0178746Y0154666D01*
X0178896Y0154615D01*
X0179045Y0154560D01*
X0179192Y0154502D01*
X0179338Y0154440D01*
X0179482Y0154375D01*
X0179624Y0154305D01*
X0179765Y0154233D01*
X0179904Y0154156D01*
X0180040Y0154077D01*
X0180175Y0153993D01*
X0180308Y0153907D01*
X0180438Y0153817D01*
X0180566Y0153724D01*
X0180692Y0153628D01*
X0180815Y0153528D01*
X0180936Y0153426D01*
X0181054Y0153321D01*
X0181169Y0153212D01*
X0181282Y0153101D01*
X0181392Y0152987D01*
X0181499Y0152870D01*
X0181603Y0152751D01*
X0181704Y0152629D01*
X0181801Y0152504D01*
X0181896Y0152377D01*
X0181987Y0152248D01*
X0182076Y0152117D01*
X0182160Y0151983D01*
X0182242Y0151847D01*
X0182320Y0151710D01*
X0182394Y0151570D01*
X0182465Y0151428D01*
X0182533Y0151285D01*
X0182597Y0151140D01*
X0182657Y0150994D01*
X0182713Y0150846D01*
X0182766Y0150697D01*
X0182815Y0150546D01*
X0182860Y0150394D01*
X0182901Y0150241D01*
X0182939Y0150088D01*
X0182972Y0149933D01*
X0183002Y0149777D01*
X0183028Y0149621D01*
X0183049Y0149464D01*
X0183067Y0149307D01*
X0183081Y0149149D01*
X0183091Y0148991D01*
X0183097Y0148833D01*
X0183099Y0148675D01*
X0183097Y0148517D01*
X0183091Y0148359D01*
X0183081Y0148201D01*
X0183067Y0148043D01*
X0183049Y0147886D01*
X0183028Y0147729D01*
X0183002Y0147573D01*
X0182972Y0147417D01*
X0182939Y0147262D01*
X0182901Y0147109D01*
X0182860Y0146956D01*
X0182815Y0146804D01*
X0182766Y0146653D01*
X0182713Y0146504D01*
X0182657Y0146356D01*
X0182597Y0146210D01*
X0182533Y0146065D01*
X0182465Y0145922D01*
X0182394Y0145780D01*
X0182320Y0145640D01*
X0182242Y0145503D01*
X0182160Y0145367D01*
X0182076Y0145233D01*
X0181987Y0145102D01*
X0181896Y0144973D01*
X0181801Y0144846D01*
X0181704Y0144721D01*
X0181603Y0144599D01*
X0181499Y0144480D01*
X0181392Y0144363D01*
X0181282Y0144249D01*
X0181169Y0144138D01*
X0181054Y0144029D01*
X0180936Y0143924D01*
X0180815Y0143822D01*
X0180692Y0143722D01*
X0180566Y0143626D01*
X0180438Y0143533D01*
X0180308Y0143443D01*
X0180175Y0143357D01*
X0180040Y0143273D01*
X0179904Y0143194D01*
X0179765Y0143117D01*
X0179624Y0143045D01*
X0179482Y0142975D01*
X0179338Y0142910D01*
X0179192Y0142848D01*
X0179045Y0142790D01*
X0178896Y0142735D01*
X0178746Y0142684D01*
X0178595Y0142637D01*
X0178443Y0142594D01*
X0178290Y0142555D01*
X0178135Y0142519D01*
X0177980Y0142488D01*
X0177824Y0142460D01*
X0177668Y0142436D01*
X0177511Y0142416D01*
X0177353Y0142400D01*
X0177196Y0142388D01*
X0177037Y0142380D01*
X0176879Y0142376D01*
X0176721Y0142376D01*
X0176563Y0142380D01*
X0176404Y0142388D01*
X0176247Y0142400D01*
X0176089Y0142416D01*
X0175932Y0142436D01*
X0175776Y0142460D01*
X0175620Y0142488D01*
X0175465Y0142519D01*
X0175310Y0142555D01*
X0175157Y0142594D01*
X0175005Y0142637D01*
X0174854Y0142684D01*
X0174704Y0142735D01*
X0174555Y0142790D01*
X0174408Y0142848D01*
X0174262Y0142910D01*
X0174118Y0142975D01*
X0173976Y0143045D01*
X0173835Y0143117D01*
X0173696Y0143194D01*
X0173560Y0143273D01*
X0173425Y0143357D01*
X0173292Y0143443D01*
X0173162Y0143533D01*
X0173034Y0143626D01*
X0172908Y0143722D01*
X0172785Y0143822D01*
X0172664Y0143924D01*
X0172546Y0144029D01*
X0172431Y0144138D01*
X0172318Y0144249D01*
X0172208Y0144363D01*
X0172101Y0144480D01*
X0171997Y0144599D01*
X0171896Y0144721D01*
X0171799Y0144846D01*
X0171704Y0144973D01*
X0171613Y0145102D01*
X0171524Y0145233D01*
X0171440Y0145367D01*
X0171358Y0145503D01*
X0171280Y0145640D01*
X0171206Y0145780D01*
X0171135Y0145922D01*
X0171067Y0146065D01*
X0171003Y0146210D01*
X0170943Y0146356D01*
X0170887Y0146504D01*
X0170834Y0146653D01*
X0170785Y0146804D01*
X0170740Y0146956D01*
X0170699Y0147109D01*
X0170661Y0147262D01*
X0170628Y0147417D01*
X0170598Y0147573D01*
X0170572Y0147729D01*
X0170551Y0147886D01*
X0170533Y0148043D01*
X0170519Y0148201D01*
X0170509Y0148359D01*
X0170503Y0148517D01*
X0170501Y0148675D01*
X0252800Y0199300D02*
X0252802Y0199461D01*
X0252808Y0199621D01*
X0252818Y0199782D01*
X0252832Y0199942D01*
X0252850Y0200102D01*
X0252871Y0200261D01*
X0252897Y0200420D01*
X0252927Y0200578D01*
X0252960Y0200735D01*
X0252998Y0200892D01*
X0253039Y0201047D01*
X0253084Y0201201D01*
X0253133Y0201354D01*
X0253186Y0201506D01*
X0253242Y0201657D01*
X0253303Y0201806D01*
X0253366Y0201954D01*
X0253434Y0202100D01*
X0253505Y0202244D01*
X0253579Y0202386D01*
X0253657Y0202527D01*
X0253739Y0202665D01*
X0253824Y0202802D01*
X0253912Y0202936D01*
X0254004Y0203068D01*
X0254099Y0203198D01*
X0254197Y0203326D01*
X0254298Y0203451D01*
X0254402Y0203573D01*
X0254509Y0203693D01*
X0254619Y0203810D01*
X0254732Y0203925D01*
X0254848Y0204036D01*
X0254967Y0204145D01*
X0255088Y0204250D01*
X0255212Y0204353D01*
X0255338Y0204453D01*
X0255466Y0204549D01*
X0255597Y0204642D01*
X0255731Y0204732D01*
X0255866Y0204819D01*
X0256004Y0204902D01*
X0256143Y0204982D01*
X0256285Y0205058D01*
X0256428Y0205131D01*
X0256573Y0205200D01*
X0256720Y0205266D01*
X0256868Y0205328D01*
X0257018Y0205386D01*
X0257169Y0205441D01*
X0257322Y0205492D01*
X0257476Y0205539D01*
X0257631Y0205582D01*
X0257787Y0205621D01*
X0257943Y0205657D01*
X0258101Y0205688D01*
X0258259Y0205716D01*
X0258418Y0205740D01*
X0258578Y0205760D01*
X0258738Y0205776D01*
X0258898Y0205788D01*
X0259059Y0205796D01*
X0259220Y0205800D01*
X0259380Y0205800D01*
X0259541Y0205796D01*
X0259702Y0205788D01*
X0259862Y0205776D01*
X0260022Y0205760D01*
X0260182Y0205740D01*
X0260341Y0205716D01*
X0260499Y0205688D01*
X0260657Y0205657D01*
X0260813Y0205621D01*
X0260969Y0205582D01*
X0261124Y0205539D01*
X0261278Y0205492D01*
X0261431Y0205441D01*
X0261582Y0205386D01*
X0261732Y0205328D01*
X0261880Y0205266D01*
X0262027Y0205200D01*
X0262172Y0205131D01*
X0262315Y0205058D01*
X0262457Y0204982D01*
X0262596Y0204902D01*
X0262734Y0204819D01*
X0262869Y0204732D01*
X0263003Y0204642D01*
X0263134Y0204549D01*
X0263262Y0204453D01*
X0263388Y0204353D01*
X0263512Y0204250D01*
X0263633Y0204145D01*
X0263752Y0204036D01*
X0263868Y0203925D01*
X0263981Y0203810D01*
X0264091Y0203693D01*
X0264198Y0203573D01*
X0264302Y0203451D01*
X0264403Y0203326D01*
X0264501Y0203198D01*
X0264596Y0203068D01*
X0264688Y0202936D01*
X0264776Y0202802D01*
X0264861Y0202665D01*
X0264943Y0202527D01*
X0265021Y0202386D01*
X0265095Y0202244D01*
X0265166Y0202100D01*
X0265234Y0201954D01*
X0265297Y0201806D01*
X0265358Y0201657D01*
X0265414Y0201506D01*
X0265467Y0201354D01*
X0265516Y0201201D01*
X0265561Y0201047D01*
X0265602Y0200892D01*
X0265640Y0200735D01*
X0265673Y0200578D01*
X0265703Y0200420D01*
X0265729Y0200261D01*
X0265750Y0200102D01*
X0265768Y0199942D01*
X0265782Y0199782D01*
X0265792Y0199621D01*
X0265798Y0199461D01*
X0265800Y0199300D01*
X0265798Y0199139D01*
X0265792Y0198979D01*
X0265782Y0198818D01*
X0265768Y0198658D01*
X0265750Y0198498D01*
X0265729Y0198339D01*
X0265703Y0198180D01*
X0265673Y0198022D01*
X0265640Y0197865D01*
X0265602Y0197708D01*
X0265561Y0197553D01*
X0265516Y0197399D01*
X0265467Y0197246D01*
X0265414Y0197094D01*
X0265358Y0196943D01*
X0265297Y0196794D01*
X0265234Y0196646D01*
X0265166Y0196500D01*
X0265095Y0196356D01*
X0265021Y0196214D01*
X0264943Y0196073D01*
X0264861Y0195935D01*
X0264776Y0195798D01*
X0264688Y0195664D01*
X0264596Y0195532D01*
X0264501Y0195402D01*
X0264403Y0195274D01*
X0264302Y0195149D01*
X0264198Y0195027D01*
X0264091Y0194907D01*
X0263981Y0194790D01*
X0263868Y0194675D01*
X0263752Y0194564D01*
X0263633Y0194455D01*
X0263512Y0194350D01*
X0263388Y0194247D01*
X0263262Y0194147D01*
X0263134Y0194051D01*
X0263003Y0193958D01*
X0262869Y0193868D01*
X0262734Y0193781D01*
X0262596Y0193698D01*
X0262457Y0193618D01*
X0262315Y0193542D01*
X0262172Y0193469D01*
X0262027Y0193400D01*
X0261880Y0193334D01*
X0261732Y0193272D01*
X0261582Y0193214D01*
X0261431Y0193159D01*
X0261278Y0193108D01*
X0261124Y0193061D01*
X0260969Y0193018D01*
X0260813Y0192979D01*
X0260657Y0192943D01*
X0260499Y0192912D01*
X0260341Y0192884D01*
X0260182Y0192860D01*
X0260022Y0192840D01*
X0259862Y0192824D01*
X0259702Y0192812D01*
X0259541Y0192804D01*
X0259380Y0192800D01*
X0259220Y0192800D01*
X0259059Y0192804D01*
X0258898Y0192812D01*
X0258738Y0192824D01*
X0258578Y0192840D01*
X0258418Y0192860D01*
X0258259Y0192884D01*
X0258101Y0192912D01*
X0257943Y0192943D01*
X0257787Y0192979D01*
X0257631Y0193018D01*
X0257476Y0193061D01*
X0257322Y0193108D01*
X0257169Y0193159D01*
X0257018Y0193214D01*
X0256868Y0193272D01*
X0256720Y0193334D01*
X0256573Y0193400D01*
X0256428Y0193469D01*
X0256285Y0193542D01*
X0256143Y0193618D01*
X0256004Y0193698D01*
X0255866Y0193781D01*
X0255731Y0193868D01*
X0255597Y0193958D01*
X0255466Y0194051D01*
X0255338Y0194147D01*
X0255212Y0194247D01*
X0255088Y0194350D01*
X0254967Y0194455D01*
X0254848Y0194564D01*
X0254732Y0194675D01*
X0254619Y0194790D01*
X0254509Y0194907D01*
X0254402Y0195027D01*
X0254298Y0195149D01*
X0254197Y0195274D01*
X0254099Y0195402D01*
X0254004Y0195532D01*
X0253912Y0195664D01*
X0253824Y0195798D01*
X0253739Y0195935D01*
X0253657Y0196073D01*
X0253579Y0196214D01*
X0253505Y0196356D01*
X0253434Y0196500D01*
X0253366Y0196646D01*
X0253303Y0196794D01*
X0253242Y0196943D01*
X0253186Y0197094D01*
X0253133Y0197246D01*
X0253084Y0197399D01*
X0253039Y0197553D01*
X0252998Y0197708D01*
X0252960Y0197865D01*
X0252927Y0198022D01*
X0252897Y0198180D01*
X0252871Y0198339D01*
X0252850Y0198498D01*
X0252832Y0198658D01*
X0252818Y0198818D01*
X0252808Y0198979D01*
X0252802Y0199139D01*
X0252800Y0199300D01*
X0252800Y0019300D02*
X0252802Y0019461D01*
X0252808Y0019621D01*
X0252818Y0019782D01*
X0252832Y0019942D01*
X0252850Y0020102D01*
X0252871Y0020261D01*
X0252897Y0020420D01*
X0252927Y0020578D01*
X0252960Y0020735D01*
X0252998Y0020892D01*
X0253039Y0021047D01*
X0253084Y0021201D01*
X0253133Y0021354D01*
X0253186Y0021506D01*
X0253242Y0021657D01*
X0253303Y0021806D01*
X0253366Y0021954D01*
X0253434Y0022100D01*
X0253505Y0022244D01*
X0253579Y0022386D01*
X0253657Y0022527D01*
X0253739Y0022665D01*
X0253824Y0022802D01*
X0253912Y0022936D01*
X0254004Y0023068D01*
X0254099Y0023198D01*
X0254197Y0023326D01*
X0254298Y0023451D01*
X0254402Y0023573D01*
X0254509Y0023693D01*
X0254619Y0023810D01*
X0254732Y0023925D01*
X0254848Y0024036D01*
X0254967Y0024145D01*
X0255088Y0024250D01*
X0255212Y0024353D01*
X0255338Y0024453D01*
X0255466Y0024549D01*
X0255597Y0024642D01*
X0255731Y0024732D01*
X0255866Y0024819D01*
X0256004Y0024902D01*
X0256143Y0024982D01*
X0256285Y0025058D01*
X0256428Y0025131D01*
X0256573Y0025200D01*
X0256720Y0025266D01*
X0256868Y0025328D01*
X0257018Y0025386D01*
X0257169Y0025441D01*
X0257322Y0025492D01*
X0257476Y0025539D01*
X0257631Y0025582D01*
X0257787Y0025621D01*
X0257943Y0025657D01*
X0258101Y0025688D01*
X0258259Y0025716D01*
X0258418Y0025740D01*
X0258578Y0025760D01*
X0258738Y0025776D01*
X0258898Y0025788D01*
X0259059Y0025796D01*
X0259220Y0025800D01*
X0259380Y0025800D01*
X0259541Y0025796D01*
X0259702Y0025788D01*
X0259862Y0025776D01*
X0260022Y0025760D01*
X0260182Y0025740D01*
X0260341Y0025716D01*
X0260499Y0025688D01*
X0260657Y0025657D01*
X0260813Y0025621D01*
X0260969Y0025582D01*
X0261124Y0025539D01*
X0261278Y0025492D01*
X0261431Y0025441D01*
X0261582Y0025386D01*
X0261732Y0025328D01*
X0261880Y0025266D01*
X0262027Y0025200D01*
X0262172Y0025131D01*
X0262315Y0025058D01*
X0262457Y0024982D01*
X0262596Y0024902D01*
X0262734Y0024819D01*
X0262869Y0024732D01*
X0263003Y0024642D01*
X0263134Y0024549D01*
X0263262Y0024453D01*
X0263388Y0024353D01*
X0263512Y0024250D01*
X0263633Y0024145D01*
X0263752Y0024036D01*
X0263868Y0023925D01*
X0263981Y0023810D01*
X0264091Y0023693D01*
X0264198Y0023573D01*
X0264302Y0023451D01*
X0264403Y0023326D01*
X0264501Y0023198D01*
X0264596Y0023068D01*
X0264688Y0022936D01*
X0264776Y0022802D01*
X0264861Y0022665D01*
X0264943Y0022527D01*
X0265021Y0022386D01*
X0265095Y0022244D01*
X0265166Y0022100D01*
X0265234Y0021954D01*
X0265297Y0021806D01*
X0265358Y0021657D01*
X0265414Y0021506D01*
X0265467Y0021354D01*
X0265516Y0021201D01*
X0265561Y0021047D01*
X0265602Y0020892D01*
X0265640Y0020735D01*
X0265673Y0020578D01*
X0265703Y0020420D01*
X0265729Y0020261D01*
X0265750Y0020102D01*
X0265768Y0019942D01*
X0265782Y0019782D01*
X0265792Y0019621D01*
X0265798Y0019461D01*
X0265800Y0019300D01*
X0265798Y0019139D01*
X0265792Y0018979D01*
X0265782Y0018818D01*
X0265768Y0018658D01*
X0265750Y0018498D01*
X0265729Y0018339D01*
X0265703Y0018180D01*
X0265673Y0018022D01*
X0265640Y0017865D01*
X0265602Y0017708D01*
X0265561Y0017553D01*
X0265516Y0017399D01*
X0265467Y0017246D01*
X0265414Y0017094D01*
X0265358Y0016943D01*
X0265297Y0016794D01*
X0265234Y0016646D01*
X0265166Y0016500D01*
X0265095Y0016356D01*
X0265021Y0016214D01*
X0264943Y0016073D01*
X0264861Y0015935D01*
X0264776Y0015798D01*
X0264688Y0015664D01*
X0264596Y0015532D01*
X0264501Y0015402D01*
X0264403Y0015274D01*
X0264302Y0015149D01*
X0264198Y0015027D01*
X0264091Y0014907D01*
X0263981Y0014790D01*
X0263868Y0014675D01*
X0263752Y0014564D01*
X0263633Y0014455D01*
X0263512Y0014350D01*
X0263388Y0014247D01*
X0263262Y0014147D01*
X0263134Y0014051D01*
X0263003Y0013958D01*
X0262869Y0013868D01*
X0262734Y0013781D01*
X0262596Y0013698D01*
X0262457Y0013618D01*
X0262315Y0013542D01*
X0262172Y0013469D01*
X0262027Y0013400D01*
X0261880Y0013334D01*
X0261732Y0013272D01*
X0261582Y0013214D01*
X0261431Y0013159D01*
X0261278Y0013108D01*
X0261124Y0013061D01*
X0260969Y0013018D01*
X0260813Y0012979D01*
X0260657Y0012943D01*
X0260499Y0012912D01*
X0260341Y0012884D01*
X0260182Y0012860D01*
X0260022Y0012840D01*
X0259862Y0012824D01*
X0259702Y0012812D01*
X0259541Y0012804D01*
X0259380Y0012800D01*
X0259220Y0012800D01*
X0259059Y0012804D01*
X0258898Y0012812D01*
X0258738Y0012824D01*
X0258578Y0012840D01*
X0258418Y0012860D01*
X0258259Y0012884D01*
X0258101Y0012912D01*
X0257943Y0012943D01*
X0257787Y0012979D01*
X0257631Y0013018D01*
X0257476Y0013061D01*
X0257322Y0013108D01*
X0257169Y0013159D01*
X0257018Y0013214D01*
X0256868Y0013272D01*
X0256720Y0013334D01*
X0256573Y0013400D01*
X0256428Y0013469D01*
X0256285Y0013542D01*
X0256143Y0013618D01*
X0256004Y0013698D01*
X0255866Y0013781D01*
X0255731Y0013868D01*
X0255597Y0013958D01*
X0255466Y0014051D01*
X0255338Y0014147D01*
X0255212Y0014247D01*
X0255088Y0014350D01*
X0254967Y0014455D01*
X0254848Y0014564D01*
X0254732Y0014675D01*
X0254619Y0014790D01*
X0254509Y0014907D01*
X0254402Y0015027D01*
X0254298Y0015149D01*
X0254197Y0015274D01*
X0254099Y0015402D01*
X0254004Y0015532D01*
X0253912Y0015664D01*
X0253824Y0015798D01*
X0253739Y0015935D01*
X0253657Y0016073D01*
X0253579Y0016214D01*
X0253505Y0016356D01*
X0253434Y0016500D01*
X0253366Y0016646D01*
X0253303Y0016794D01*
X0253242Y0016943D01*
X0253186Y0017094D01*
X0253133Y0017246D01*
X0253084Y0017399D01*
X0253039Y0017553D01*
X0252998Y0017708D01*
X0252960Y0017865D01*
X0252927Y0018022D01*
X0252897Y0018180D01*
X0252871Y0018339D01*
X0252850Y0018498D01*
X0252832Y0018658D01*
X0252818Y0018818D01*
X0252808Y0018979D01*
X0252802Y0019139D01*
X0252800Y0019300D01*
M02*
