G75*
%MOIN*%
%OFA0B0*%
%FSLAX25Y25*%
%IPPOS*%
%LPD*%
%AMOC8*
5,1,8,0,0,1.08239X$1,22.5*
%
%ADD10C,0.10000*%
%ADD11R,0.05118X0.05906*%
%ADD12R,0.05906X0.05118*%
%ADD13OC8,0.06000*%
%ADD14C,0.06000*%
%ADD15R,0.04331X0.05512*%
%ADD16R,0.05512X0.04331*%
%ADD17R,0.05118X0.06299*%
%ADD18C,0.06600*%
%ADD19R,0.04724X0.01181*%
%ADD20R,0.03543X0.03150*%
%ADD21C,0.05315*%
%ADD22R,0.05512X0.11811*%
%ADD23R,0.01575X0.04134*%
%ADD24C,0.00886*%
%ADD25C,0.01200*%
%ADD26C,0.01000*%
%ADD27C,0.01600*%
%ADD28C,0.03762*%
%ADD29C,0.05600*%
%ADD30C,0.02000*%
%ADD31C,0.04000*%
D10*
X0051300Y0183050D03*
X0227300Y0183050D03*
D11*
X0194521Y0094925D03*
X0187829Y0094925D03*
D12*
X0097425Y0094079D03*
X0097425Y0100771D03*
X0068675Y0099521D03*
X0068675Y0092829D03*
D13*
X0166800Y0138675D03*
D14*
X0156350Y0130400D02*
X0150350Y0130400D01*
X0130750Y0130400D02*
X0124750Y0130400D01*
X0124750Y0148200D02*
X0130750Y0148200D01*
X0150350Y0148200D02*
X0156350Y0148200D01*
X0243175Y0147425D02*
X0249175Y0147425D01*
X0249175Y0157425D02*
X0243175Y0157425D01*
X0243175Y0167425D02*
X0249175Y0167425D01*
X0249175Y0134300D02*
X0243175Y0134300D01*
X0243175Y0124300D02*
X0249175Y0124300D01*
D15*
X0168237Y0033675D03*
X0160363Y0033675D03*
X0127612Y0033675D03*
X0119738Y0033675D03*
X0087612Y0033675D03*
X0079738Y0033675D03*
X0107863Y0129925D03*
X0115737Y0129925D03*
D16*
X0046175Y0070737D03*
X0046175Y0062863D03*
X0034300Y0062863D03*
X0034300Y0070737D03*
X0021175Y0070737D03*
X0021175Y0062863D03*
X0223675Y0064738D03*
X0223675Y0072612D03*
X0238050Y0072612D03*
X0238050Y0064738D03*
X0252425Y0064738D03*
X0252425Y0072612D03*
D17*
X0115540Y0110550D03*
X0108060Y0110550D03*
X0108060Y0120550D03*
X0115540Y0120550D03*
D18*
X0013675Y0138050D03*
X0013675Y0148050D03*
X0013675Y0158050D03*
D19*
X0164409Y0126235D03*
X0164409Y0123676D03*
X0164409Y0121117D03*
X0164409Y0118558D03*
X0164409Y0115999D03*
X0164409Y0113440D03*
X0164409Y0110881D03*
X0164409Y0108322D03*
X0164409Y0105763D03*
X0164409Y0103204D03*
X0187244Y0103204D03*
X0187244Y0105763D03*
X0187244Y0108322D03*
X0187244Y0110881D03*
X0187244Y0113440D03*
X0187244Y0115999D03*
X0187244Y0118558D03*
X0187244Y0121117D03*
X0187244Y0123676D03*
X0187244Y0126235D03*
D20*
X0139113Y0046165D03*
X0147381Y0042425D03*
X0139113Y0038685D03*
X0106756Y0042425D03*
X0098488Y0038685D03*
X0098488Y0046165D03*
X0177863Y0045540D03*
X0177863Y0038060D03*
X0186131Y0041800D03*
D21*
X0236662Y0091713D03*
X0257383Y0091666D03*
X0257367Y0112367D03*
X0236646Y0112414D03*
X0041934Y0112383D03*
X0021233Y0112367D03*
X0021186Y0091646D03*
X0041887Y0091662D03*
D22*
X0075432Y0115550D03*
X0085668Y0115550D03*
D23*
X0084925Y0102415D03*
X0082366Y0102415D03*
X0087484Y0102415D03*
X0087484Y0094935D03*
X0084925Y0094935D03*
X0082366Y0094935D03*
D24*
X0131554Y0098700D02*
X0134014Y0098700D01*
X0131554Y0098700D02*
X0131554Y0098994D01*
X0134014Y0098994D01*
X0134014Y0098700D01*
X0134014Y0100669D02*
X0131554Y0100669D01*
X0131554Y0100963D01*
X0134014Y0100963D01*
X0134014Y0100669D01*
X0134014Y0102637D02*
X0131554Y0102637D01*
X0131554Y0102931D01*
X0134014Y0102931D01*
X0134014Y0102637D01*
X0134014Y0104606D02*
X0131554Y0104606D01*
X0131554Y0104900D01*
X0134014Y0104900D01*
X0134014Y0104606D01*
X0136200Y0107086D02*
X0136200Y0109546D01*
X0136494Y0109546D01*
X0136494Y0107086D01*
X0136200Y0107086D01*
X0136200Y0107971D02*
X0136494Y0107971D01*
X0136494Y0108856D02*
X0136200Y0108856D01*
X0138169Y0109546D02*
X0138169Y0107086D01*
X0138169Y0109546D02*
X0138463Y0109546D01*
X0138463Y0107086D01*
X0138169Y0107086D01*
X0138169Y0107971D02*
X0138463Y0107971D01*
X0138463Y0108856D02*
X0138169Y0108856D01*
X0140137Y0109546D02*
X0140137Y0107086D01*
X0140137Y0109546D02*
X0140431Y0109546D01*
X0140431Y0107086D01*
X0140137Y0107086D01*
X0140137Y0107971D02*
X0140431Y0107971D01*
X0140431Y0108856D02*
X0140137Y0108856D01*
X0142106Y0109546D02*
X0142106Y0107086D01*
X0142106Y0109546D02*
X0142400Y0109546D01*
X0142400Y0107086D01*
X0142106Y0107086D01*
X0142106Y0107971D02*
X0142400Y0107971D01*
X0142400Y0108856D02*
X0142106Y0108856D01*
X0144586Y0104900D02*
X0147046Y0104900D01*
X0147046Y0104606D01*
X0144586Y0104606D01*
X0144586Y0104900D01*
X0144586Y0102931D02*
X0147046Y0102931D01*
X0147046Y0102637D01*
X0144586Y0102637D01*
X0144586Y0102931D01*
X0144586Y0100963D02*
X0147046Y0100963D01*
X0147046Y0100669D01*
X0144586Y0100669D01*
X0144586Y0100963D01*
X0144586Y0098994D02*
X0147046Y0098994D01*
X0147046Y0098700D01*
X0144586Y0098700D01*
X0144586Y0098994D01*
X0142400Y0096514D02*
X0142400Y0094054D01*
X0142106Y0094054D01*
X0142106Y0096514D01*
X0142400Y0096514D01*
X0142400Y0094939D02*
X0142106Y0094939D01*
X0142106Y0095824D02*
X0142400Y0095824D01*
X0140431Y0096514D02*
X0140431Y0094054D01*
X0140137Y0094054D01*
X0140137Y0096514D01*
X0140431Y0096514D01*
X0140431Y0094939D02*
X0140137Y0094939D01*
X0140137Y0095824D02*
X0140431Y0095824D01*
X0138463Y0096514D02*
X0138463Y0094054D01*
X0138169Y0094054D01*
X0138169Y0096514D01*
X0138463Y0096514D01*
X0138463Y0094939D02*
X0138169Y0094939D01*
X0138169Y0095824D02*
X0138463Y0095824D01*
X0136494Y0096514D02*
X0136494Y0094054D01*
X0136200Y0094054D01*
X0136200Y0096514D01*
X0136494Y0096514D01*
X0136494Y0094939D02*
X0136200Y0094939D01*
X0136200Y0095824D02*
X0136494Y0095824D01*
D25*
X0097425Y0100771D02*
X0097425Y0102425D01*
X0091173Y0102419D01*
X0087484Y0102415D01*
D26*
X0087425Y0102650D02*
X0100550Y0102650D01*
X0101175Y0102650D02*
X0127825Y0102650D01*
X0126827Y0103648D02*
X0101175Y0103648D01*
X0100550Y0103648D02*
X0087425Y0103648D01*
X0087425Y0104300D02*
X0100550Y0104300D01*
X0100550Y0098675D01*
X0090339Y0098675D01*
X0090080Y0098709D01*
X0089839Y0098809D01*
X0089632Y0098968D01*
X0087425Y0101175D01*
X0090550Y0101175D01*
X0090550Y0098675D01*
X0087425Y0098675D01*
X0087425Y0101175D01*
X0087425Y0104300D01*
X0086126Y0105645D02*
X0084300Y0105645D01*
X0084300Y0104647D02*
X0085550Y0104647D01*
X0085550Y0104925D02*
X0085550Y0103050D01*
X0084300Y0103050D01*
X0084300Y0109300D01*
X0083675Y0109925D01*
X0088050Y0109925D01*
X0088050Y0108050D01*
X0085550Y0104925D01*
X0085550Y0103648D02*
X0084300Y0103648D01*
X0084300Y0106644D02*
X0086925Y0106644D01*
X0087724Y0107642D02*
X0084300Y0107642D01*
X0084300Y0108641D02*
X0088050Y0108641D01*
X0088050Y0109639D02*
X0083961Y0109639D01*
X0078050Y0109925D02*
X0073050Y0109925D01*
X0071175Y0108050D01*
X0071175Y0096800D01*
X0064300Y0096800D01*
X0061175Y0093675D01*
X0054925Y0093675D01*
X0051175Y0097425D01*
X0051175Y0117425D01*
X0055550Y0121800D01*
X0078050Y0121800D01*
X0078050Y0109925D01*
X0078050Y0110638D02*
X0051175Y0110638D01*
X0051175Y0111636D02*
X0078050Y0111636D01*
X0078050Y0112635D02*
X0051175Y0112635D01*
X0051175Y0113633D02*
X0078050Y0113633D01*
X0078050Y0114632D02*
X0051175Y0114632D01*
X0051175Y0115630D02*
X0078050Y0115630D01*
X0078050Y0116629D02*
X0051175Y0116629D01*
X0051377Y0117627D02*
X0078050Y0117627D01*
X0078050Y0118626D02*
X0052376Y0118626D01*
X0053374Y0119624D02*
X0078050Y0119624D01*
X0078050Y0120623D02*
X0054373Y0120623D01*
X0055371Y0121621D02*
X0078050Y0121621D01*
X0072764Y0109639D02*
X0051175Y0109639D01*
X0051175Y0108641D02*
X0071766Y0108641D01*
X0071175Y0107642D02*
X0051175Y0107642D01*
X0051175Y0106644D02*
X0071175Y0106644D01*
X0071175Y0105645D02*
X0051175Y0105645D01*
X0051175Y0104647D02*
X0071175Y0104647D01*
X0071175Y0103648D02*
X0051175Y0103648D01*
X0051175Y0102650D02*
X0071175Y0102650D01*
X0071175Y0101651D02*
X0051175Y0101651D01*
X0051175Y0100653D02*
X0071175Y0100653D01*
X0071175Y0099654D02*
X0051175Y0099654D01*
X0051175Y0098656D02*
X0071175Y0098656D01*
X0071175Y0097657D02*
X0051175Y0097657D01*
X0051941Y0096659D02*
X0064159Y0096659D01*
X0063160Y0095660D02*
X0052940Y0095660D01*
X0053938Y0094662D02*
X0062162Y0094662D01*
X0082366Y0088818D02*
X0082368Y0088792D01*
X0082373Y0088766D01*
X0082381Y0088741D01*
X0082393Y0088717D01*
X0082408Y0088695D01*
X0082425Y0088675D01*
X0087425Y0091175D02*
X0087425Y0096175D01*
X0089925Y0096175D01*
X0089925Y0091175D01*
X0087425Y0091175D01*
X0087425Y0091666D02*
X0089925Y0091666D01*
X0089925Y0092665D02*
X0087425Y0092665D01*
X0087425Y0093663D02*
X0089925Y0093663D01*
X0089925Y0094662D02*
X0087425Y0094662D01*
X0087425Y0095660D02*
X0089925Y0095660D01*
X0091175Y0098675D02*
X0084925Y0098675D01*
X0084925Y0094935D01*
X0087425Y0099654D02*
X0090550Y0099654D01*
X0090550Y0100653D02*
X0087425Y0100653D01*
X0087947Y0100653D02*
X0100550Y0100653D01*
X0101175Y0100653D02*
X0129822Y0100653D01*
X0129925Y0100550D02*
X0126175Y0104300D01*
X0101175Y0104300D01*
X0101175Y0100550D01*
X0109300Y0092425D01*
X0109300Y0083050D01*
X0116800Y0075550D01*
X0179925Y0075550D01*
X0187425Y0083050D01*
X0187425Y0096175D01*
X0163675Y0096175D01*
X0151800Y0084300D01*
X0131800Y0084300D01*
X0130550Y0085550D01*
X0130550Y0096800D01*
X0132425Y0098675D01*
X0132425Y0100550D01*
X0129925Y0100550D01*
X0129300Y0100816D02*
X0130976Y0099140D01*
X0131683Y0098847D02*
X0132784Y0098847D01*
X0130843Y0096906D01*
X0130550Y0096659D02*
X0105066Y0096659D01*
X0104068Y0097657D02*
X0131407Y0097657D01*
X0132406Y0098656D02*
X0103069Y0098656D01*
X0102071Y0099654D02*
X0132425Y0099654D01*
X0131683Y0098847D02*
X0131623Y0098849D01*
X0131562Y0098854D01*
X0131503Y0098863D01*
X0131444Y0098876D01*
X0131385Y0098892D01*
X0131328Y0098912D01*
X0131273Y0098935D01*
X0131218Y0098962D01*
X0131166Y0098991D01*
X0131115Y0099024D01*
X0131066Y0099060D01*
X0131020Y0099098D01*
X0130976Y0099140D01*
X0129300Y0100816D02*
X0097532Y0100816D01*
X0097508Y0100814D01*
X0097485Y0100809D01*
X0097463Y0100800D01*
X0097443Y0100787D01*
X0097425Y0100772D01*
X0100550Y0101651D02*
X0087425Y0101651D01*
X0088946Y0099654D02*
X0100550Y0099654D01*
X0101175Y0101651D02*
X0128824Y0101651D01*
X0129300Y0100816D02*
X0132784Y0100816D01*
X0132784Y0104753D02*
X0130097Y0104753D01*
X0124300Y0110550D01*
X0126175Y0112425D01*
X0124300Y0110550D02*
X0115540Y0110550D01*
X0115540Y0120550D02*
X0134300Y0120550D01*
X0136292Y0118558D01*
X0164409Y0118558D01*
X0164409Y0115999D02*
X0160374Y0115999D01*
X0145292Y0116038D01*
X0141800Y0114925D01*
X0140550Y0111800D02*
X0144925Y0111800D01*
X0145816Y0110909D01*
X0145816Y0104753D01*
X0148207Y0104753D01*
X0148283Y0104751D01*
X0148359Y0104746D01*
X0148434Y0104736D01*
X0148509Y0104723D01*
X0148583Y0104707D01*
X0148656Y0104686D01*
X0148728Y0104663D01*
X0148799Y0104635D01*
X0148868Y0104605D01*
X0148936Y0104570D01*
X0149002Y0104533D01*
X0149066Y0104492D01*
X0149128Y0104449D01*
X0149188Y0104402D01*
X0149245Y0104353D01*
X0149300Y0104300D01*
X0145816Y0100816D02*
X0146081Y0100550D01*
X0174300Y0100550D01*
X0183050Y0109300D01*
X0183050Y0115550D01*
X0183499Y0115999D01*
X0187244Y0115999D01*
X0187246Y0123675D02*
X0199300Y0123675D01*
X0194925Y0129300D02*
X0192425Y0126800D01*
X0187809Y0126800D01*
X0187244Y0126235D01*
X0187244Y0123676D02*
X0187246Y0123675D01*
X0194925Y0129300D02*
X0194925Y0134300D01*
X0176800Y0129300D02*
X0199925Y0152425D01*
X0228675Y0152425D01*
X0233675Y0157425D01*
X0246175Y0157425D01*
X0246175Y0167425D02*
X0239925Y0167425D01*
X0227425Y0154925D01*
X0199300Y0154925D01*
X0174300Y0129925D01*
X0174300Y0119300D01*
X0168675Y0113675D01*
X0164644Y0113675D01*
X0164409Y0113440D01*
X0164174Y0113675D01*
X0161175Y0113675D01*
X0157425Y0112425D01*
X0154300Y0112425D01*
X0160550Y0108675D02*
X0169925Y0108675D01*
X0169925Y0102425D01*
X0160550Y0102425D01*
X0160550Y0108675D01*
X0160550Y0108641D02*
X0169925Y0108641D01*
X0169925Y0107642D02*
X0160550Y0107642D01*
X0160550Y0106644D02*
X0169925Y0106644D01*
X0169925Y0105645D02*
X0160550Y0105645D01*
X0160550Y0104647D02*
X0169925Y0104647D01*
X0169925Y0103648D02*
X0160550Y0103648D01*
X0160550Y0102650D02*
X0169925Y0102650D01*
X0168675Y0103050D02*
X0168675Y0103675D01*
X0168271Y0103646D01*
X0168271Y0103204D01*
X0164409Y0103204D01*
X0164409Y0103204D01*
X0168271Y0103204D01*
X0168271Y0103050D01*
X0168675Y0103050D01*
X0168675Y0103648D02*
X0168299Y0103648D01*
X0168675Y0110550D02*
X0164740Y0110550D01*
X0164409Y0110881D01*
X0168675Y0110550D02*
X0176800Y0118675D01*
X0176800Y0129300D01*
X0169925Y0123050D02*
X0169925Y0135550D01*
X0166800Y0138675D01*
X0153350Y0130400D02*
X0151800Y0128850D01*
X0151800Y0123675D01*
X0159300Y0123675D02*
X0162426Y0123676D01*
X0164409Y0123676D01*
X0164409Y0121117D02*
X0167992Y0121117D01*
X0169925Y0123050D01*
X0185079Y0103204D02*
X0180550Y0098675D01*
X0180550Y0091175D01*
X0189925Y0091175D01*
X0189925Y0103050D01*
X0184925Y0103050D01*
X0180550Y0098675D01*
X0153675Y0098675D01*
X0164300Y0088050D01*
X0175550Y0088050D01*
X0180550Y0093050D01*
X0180550Y0098675D01*
X0180550Y0098656D02*
X0189925Y0098656D01*
X0189925Y0099654D02*
X0181529Y0099654D01*
X0180550Y0098656D02*
X0153694Y0098656D01*
X0153704Y0098656D02*
X0149339Y0098656D01*
X0149300Y0098675D02*
X0153675Y0098675D01*
X0155550Y0097425D01*
X0164300Y0097425D01*
X0164300Y0094925D01*
X0153050Y0083675D01*
X0148050Y0083675D01*
X0150550Y0089925D01*
X0150550Y0098050D01*
X0149300Y0098675D01*
X0149339Y0098847D02*
X0145816Y0098847D01*
X0149339Y0098847D02*
X0149399Y0098845D01*
X0149460Y0098840D01*
X0149519Y0098831D01*
X0149578Y0098818D01*
X0149637Y0098802D01*
X0149694Y0098782D01*
X0149749Y0098759D01*
X0149804Y0098732D01*
X0149856Y0098703D01*
X0149907Y0098670D01*
X0149956Y0098634D01*
X0150002Y0098596D01*
X0150046Y0098554D01*
X0150550Y0098050D01*
X0150550Y0089714D01*
X0150448Y0089669D02*
X0159044Y0089669D01*
X0158168Y0090668D02*
X0187425Y0090668D01*
X0187425Y0091666D02*
X0159166Y0091666D01*
X0159685Y0092665D02*
X0180165Y0092665D01*
X0180550Y0092665D02*
X0189925Y0092665D01*
X0189925Y0093663D02*
X0180550Y0093663D01*
X0158687Y0093663D01*
X0157688Y0094662D02*
X0180550Y0094662D01*
X0189925Y0094662D01*
X0189925Y0095660D02*
X0180550Y0095660D01*
X0156690Y0095660D01*
X0155691Y0096659D02*
X0180550Y0096659D01*
X0189925Y0096659D01*
X0189925Y0097657D02*
X0180550Y0097657D01*
X0154693Y0097657D01*
X0155202Y0097657D02*
X0150550Y0097657D01*
X0150550Y0096659D02*
X0164300Y0096659D01*
X0164300Y0095660D02*
X0150550Y0095660D01*
X0150550Y0094662D02*
X0164037Y0094662D01*
X0163160Y0095660D02*
X0187425Y0095660D01*
X0187425Y0094662D02*
X0162162Y0094662D01*
X0163038Y0093663D02*
X0150550Y0093663D01*
X0150550Y0092665D02*
X0162040Y0092665D01*
X0161163Y0093663D02*
X0187425Y0093663D01*
X0187425Y0092665D02*
X0160165Y0092665D01*
X0160684Y0091666D02*
X0179166Y0091666D01*
X0180550Y0091666D02*
X0189925Y0091666D01*
X0187425Y0089669D02*
X0157169Y0089669D01*
X0158045Y0088670D02*
X0150048Y0088670D01*
X0150257Y0089007D02*
X0148050Y0084300D01*
X0132214Y0084300D01*
X0131507Y0084593D02*
X0130550Y0085550D01*
X0130550Y0096199D01*
X0130550Y0095660D02*
X0106065Y0095660D01*
X0107063Y0094662D02*
X0130550Y0094662D01*
X0130550Y0093663D02*
X0108062Y0093663D01*
X0109060Y0092665D02*
X0130550Y0092665D01*
X0130550Y0091666D02*
X0109300Y0091666D01*
X0109300Y0090668D02*
X0130550Y0090668D01*
X0130550Y0089669D02*
X0109300Y0089669D01*
X0109300Y0088670D02*
X0130550Y0088670D01*
X0130550Y0087672D02*
X0109300Y0087672D01*
X0109300Y0086673D02*
X0130550Y0086673D01*
X0130550Y0085675D02*
X0109300Y0085675D01*
X0109300Y0084676D02*
X0131424Y0084676D01*
X0131507Y0084593D02*
X0131551Y0084551D01*
X0131597Y0084513D01*
X0131646Y0084477D01*
X0131697Y0084444D01*
X0131749Y0084415D01*
X0131804Y0084388D01*
X0131859Y0084365D01*
X0131916Y0084345D01*
X0131975Y0084329D01*
X0132034Y0084316D01*
X0132093Y0084307D01*
X0132154Y0084302D01*
X0132214Y0084300D01*
X0139048Y0090802D02*
X0140550Y0089300D01*
X0141521Y0090271D01*
X0142253Y0092038D02*
X0142253Y0095284D01*
X0138316Y0092570D02*
X0138318Y0092472D01*
X0138324Y0092374D01*
X0138333Y0092276D01*
X0138347Y0092179D01*
X0138364Y0092082D01*
X0138385Y0091986D01*
X0138410Y0091891D01*
X0138438Y0091797D01*
X0138471Y0091705D01*
X0138506Y0091613D01*
X0138546Y0091523D01*
X0138588Y0091435D01*
X0138635Y0091348D01*
X0138684Y0091264D01*
X0138737Y0091181D01*
X0138793Y0091101D01*
X0138853Y0091022D01*
X0138915Y0090946D01*
X0138980Y0090873D01*
X0139048Y0090802D01*
X0141521Y0090270D02*
X0141589Y0090341D01*
X0141654Y0090414D01*
X0141716Y0090490D01*
X0141776Y0090569D01*
X0141832Y0090649D01*
X0141885Y0090732D01*
X0141934Y0090816D01*
X0141981Y0090903D01*
X0142023Y0090991D01*
X0142063Y0091081D01*
X0142098Y0091173D01*
X0142131Y0091265D01*
X0142159Y0091359D01*
X0142184Y0091454D01*
X0142205Y0091550D01*
X0142222Y0091647D01*
X0142236Y0091744D01*
X0142245Y0091842D01*
X0142251Y0091940D01*
X0142253Y0092038D01*
X0138316Y0092570D02*
X0138316Y0095284D01*
X0130843Y0096906D02*
X0130801Y0096862D01*
X0130763Y0096816D01*
X0130727Y0096767D01*
X0130694Y0096716D01*
X0130665Y0096664D01*
X0130638Y0096609D01*
X0130615Y0096554D01*
X0130595Y0096497D01*
X0130579Y0096438D01*
X0130566Y0096379D01*
X0130557Y0096320D01*
X0130552Y0096259D01*
X0130550Y0096199D01*
X0136347Y0108316D02*
X0136347Y0118503D01*
X0136292Y0118558D01*
X0140550Y0111800D02*
X0140550Y0108050D01*
X0140284Y0108316D01*
X0140284Y0111158D01*
X0140285Y0111158D02*
X0140287Y0111217D01*
X0140293Y0111276D01*
X0140302Y0111335D01*
X0140316Y0111393D01*
X0140333Y0111450D01*
X0140354Y0111505D01*
X0140379Y0111559D01*
X0140407Y0111612D01*
X0140438Y0111662D01*
X0140472Y0111710D01*
X0140510Y0111756D01*
X0140551Y0111799D01*
X0127275Y0129925D02*
X0127750Y0130400D01*
X0127275Y0129925D02*
X0115737Y0129925D01*
X0108060Y0130353D02*
X0108060Y0120550D01*
X0107863Y0129925D02*
X0108060Y0130353D01*
X0091173Y0102419D02*
X0091175Y0098675D01*
X0109300Y0083678D02*
X0187425Y0083678D01*
X0187425Y0084676D02*
X0152176Y0084676D01*
X0153053Y0083678D02*
X0148051Y0083678D01*
X0148451Y0084676D02*
X0154051Y0084676D01*
X0153175Y0085675D02*
X0187425Y0085675D01*
X0187425Y0086673D02*
X0154173Y0086673D01*
X0155050Y0085675D02*
X0148850Y0085675D01*
X0149249Y0086673D02*
X0156048Y0086673D01*
X0155172Y0087672D02*
X0187425Y0087672D01*
X0187425Y0088670D02*
X0156170Y0088670D01*
X0157047Y0087672D02*
X0149649Y0087672D01*
X0150257Y0089007D02*
X0150299Y0089051D01*
X0150337Y0089097D01*
X0150373Y0089146D01*
X0150406Y0089197D01*
X0150435Y0089249D01*
X0150462Y0089304D01*
X0150485Y0089359D01*
X0150505Y0089416D01*
X0150521Y0089475D01*
X0150534Y0089534D01*
X0150543Y0089593D01*
X0150548Y0089654D01*
X0150550Y0089714D01*
X0150550Y0090668D02*
X0160043Y0090668D01*
X0161041Y0091666D02*
X0150550Y0091666D01*
X0161682Y0090668D02*
X0178168Y0090668D01*
X0177169Y0089669D02*
X0162681Y0089669D01*
X0163680Y0088670D02*
X0176170Y0088670D01*
X0180550Y0092425D02*
X0181800Y0092425D01*
X0182425Y0093050D01*
X0171800Y0093050D01*
X0170550Y0094300D01*
X0182528Y0100653D02*
X0189925Y0100653D01*
X0189925Y0101651D02*
X0183526Y0101651D01*
X0184525Y0102650D02*
X0189925Y0102650D01*
X0187244Y0103204D02*
X0185079Y0103204D01*
X0187054Y0082679D02*
X0109671Y0082679D01*
X0109300Y0082425D02*
X0111800Y0082425D01*
X0114925Y0085550D01*
X0110669Y0081681D02*
X0186056Y0081681D01*
X0185057Y0080682D02*
X0111668Y0080682D01*
X0112666Y0079684D02*
X0184059Y0079684D01*
X0183060Y0078685D02*
X0113665Y0078685D01*
X0114663Y0077687D02*
X0182062Y0077687D01*
X0181063Y0076688D02*
X0115662Y0076688D01*
X0116660Y0075690D02*
X0180065Y0075690D01*
X0160550Y0045550D02*
X0160550Y0033862D01*
X0126175Y0021800D02*
X0119738Y0027612D01*
X0119738Y0033675D01*
X0085550Y0053675D02*
X0079738Y0047863D01*
X0079738Y0033675D01*
D27*
X0004100Y0004100D02*
X0004100Y0214500D01*
X0274500Y0214500D01*
X0274500Y0004100D01*
X0004100Y0004100D01*
X0004100Y0004997D02*
X0274500Y0004997D01*
X0274500Y0006596D02*
X0004100Y0006596D01*
X0004100Y0008194D02*
X0274500Y0008194D01*
X0274500Y0009793D02*
X0261539Y0009793D01*
X0261010Y0009600D02*
X0264225Y0010770D01*
X0266845Y0012969D01*
X0268556Y0015931D01*
X0269150Y0019300D01*
X0268556Y0022669D01*
X0266845Y0025631D01*
X0266845Y0025631D01*
X0264225Y0027830D01*
X0264225Y0027830D01*
X0261010Y0029000D01*
X0257590Y0029000D01*
X0254375Y0027830D01*
X0251755Y0025631D01*
X0250044Y0022669D01*
X0250044Y0022669D01*
X0249450Y0019300D01*
X0250044Y0015931D01*
X0251755Y0012969D01*
X0254375Y0010770D01*
X0254375Y0010770D01*
X0257590Y0009600D01*
X0258823Y0009600D01*
X0261010Y0009600D01*
X0264225Y0010770D02*
X0264225Y0010770D01*
X0264965Y0011391D02*
X0274500Y0011391D01*
X0274500Y0012990D02*
X0266857Y0012990D01*
X0267780Y0014588D02*
X0274500Y0014588D01*
X0274500Y0016187D02*
X0268601Y0016187D01*
X0268556Y0015931D02*
X0268556Y0015931D01*
X0268883Y0017785D02*
X0274500Y0017785D01*
X0274500Y0019384D02*
X0269135Y0019384D01*
X0268853Y0020982D02*
X0274500Y0020982D01*
X0274500Y0022581D02*
X0268571Y0022581D01*
X0268556Y0022669D02*
X0268556Y0022669D01*
X0267684Y0024179D02*
X0274500Y0024179D01*
X0274500Y0025778D02*
X0266671Y0025778D01*
X0264766Y0027376D02*
X0274500Y0027376D01*
X0274500Y0028975D02*
X0261080Y0028975D01*
X0257520Y0028975D02*
X0188975Y0028975D01*
X0188975Y0030573D02*
X0274500Y0030573D01*
X0274500Y0032172D02*
X0188975Y0032172D01*
X0188975Y0033770D02*
X0274500Y0033770D01*
X0274500Y0035369D02*
X0188975Y0035369D01*
X0188975Y0036967D02*
X0274500Y0036967D01*
X0274500Y0038566D02*
X0189071Y0038566D01*
X0188975Y0038469D02*
X0189506Y0039000D01*
X0246732Y0039000D01*
X0247761Y0039426D01*
X0248549Y0040214D01*
X0254011Y0045676D01*
X0254799Y0046464D01*
X0255225Y0047493D01*
X0255225Y0060573D01*
X0256009Y0060573D01*
X0257181Y0061744D01*
X0257181Y0067732D01*
X0256238Y0068675D01*
X0257181Y0069618D01*
X0257181Y0073037D01*
X0268293Y0082700D01*
X0268386Y0082738D01*
X0268711Y0083063D01*
X0269058Y0083365D01*
X0269102Y0083455D01*
X0269174Y0083526D01*
X0269350Y0083950D01*
X0269554Y0084362D01*
X0269561Y0084462D01*
X0269600Y0084555D01*
X0269600Y0085014D01*
X0269632Y0085473D01*
X0269600Y0085568D01*
X0269600Y0105845D01*
X0269653Y0106066D01*
X0269600Y0106397D01*
X0269600Y0106732D01*
X0269513Y0106942D01*
X0269477Y0107166D01*
X0269302Y0107451D01*
X0269174Y0107761D01*
X0269013Y0107922D01*
X0268894Y0108115D01*
X0268623Y0108312D01*
X0268386Y0108549D01*
X0268176Y0108636D01*
X0262024Y0113095D01*
X0262024Y0113293D01*
X0261315Y0115005D01*
X0260005Y0116315D01*
X0258293Y0117024D01*
X0256440Y0117024D01*
X0254729Y0116315D01*
X0253419Y0115005D01*
X0252709Y0113293D01*
X0252709Y0111440D01*
X0253419Y0109729D01*
X0254729Y0108419D01*
X0256440Y0107709D01*
X0258293Y0107709D01*
X0259324Y0108136D01*
X0264000Y0104746D01*
X0264000Y0086388D01*
X0252948Y0076777D01*
X0248841Y0076777D01*
X0247669Y0075606D01*
X0247669Y0069618D01*
X0248612Y0068675D01*
X0247669Y0067732D01*
X0247669Y0061744D01*
X0248841Y0060573D01*
X0249625Y0060573D01*
X0249625Y0049210D01*
X0245015Y0044600D01*
X0189506Y0044600D01*
X0188731Y0045375D01*
X0183531Y0045375D01*
X0182359Y0044203D01*
X0182359Y0039397D01*
X0183375Y0038381D01*
X0183375Y0024489D01*
X0182885Y0023998D01*
X0182294Y0022572D01*
X0182294Y0021028D01*
X0182885Y0019602D01*
X0183977Y0018510D01*
X0185403Y0017919D01*
X0186947Y0017919D01*
X0188373Y0018510D01*
X0189465Y0019602D01*
X0190056Y0021028D01*
X0190056Y0022572D01*
X0189465Y0023998D01*
X0188975Y0024489D01*
X0188975Y0038469D01*
X0186175Y0041756D02*
X0186131Y0041800D01*
X0246175Y0041800D01*
X0252425Y0048050D01*
X0252425Y0064738D01*
X0257181Y0064142D02*
X0274500Y0064142D01*
X0274500Y0065740D02*
X0257181Y0065740D01*
X0257181Y0067339D02*
X0274500Y0067339D01*
X0274500Y0068937D02*
X0256500Y0068937D01*
X0257181Y0070536D02*
X0274500Y0070536D01*
X0274500Y0072134D02*
X0257181Y0072134D01*
X0257981Y0073733D02*
X0274500Y0073733D01*
X0274500Y0075332D02*
X0259820Y0075332D01*
X0261658Y0076930D02*
X0274500Y0076930D01*
X0274500Y0078529D02*
X0263496Y0078529D01*
X0265334Y0080127D02*
X0274500Y0080127D01*
X0274500Y0081726D02*
X0267173Y0081726D01*
X0269011Y0083324D02*
X0274500Y0083324D01*
X0274500Y0084923D02*
X0269600Y0084923D01*
X0269600Y0086521D02*
X0274500Y0086521D01*
X0274500Y0088120D02*
X0269600Y0088120D01*
X0269600Y0089718D02*
X0274500Y0089718D01*
X0274500Y0091317D02*
X0269600Y0091317D01*
X0269600Y0092915D02*
X0274500Y0092915D01*
X0274500Y0094514D02*
X0269600Y0094514D01*
X0269600Y0096112D02*
X0274500Y0096112D01*
X0274500Y0097711D02*
X0269600Y0097711D01*
X0269600Y0099309D02*
X0274500Y0099309D01*
X0274500Y0100908D02*
X0269600Y0100908D01*
X0269600Y0102506D02*
X0274500Y0102506D01*
X0274500Y0104105D02*
X0269600Y0104105D01*
X0269600Y0105703D02*
X0274500Y0105703D01*
X0274500Y0107302D02*
X0269394Y0107302D01*
X0267811Y0108900D02*
X0274500Y0108900D01*
X0274500Y0110499D02*
X0265606Y0110499D01*
X0263401Y0112097D02*
X0274500Y0112097D01*
X0274500Y0113696D02*
X0261858Y0113696D01*
X0261026Y0115294D02*
X0274500Y0115294D01*
X0274500Y0116893D02*
X0258611Y0116893D01*
X0256123Y0116893D02*
X0238005Y0116893D01*
X0237573Y0117072D02*
X0235720Y0117072D01*
X0234008Y0116363D01*
X0232698Y0115052D01*
X0231989Y0113341D01*
X0231989Y0111488D01*
X0232698Y0109776D01*
X0234008Y0108466D01*
X0235720Y0107757D01*
X0236709Y0107757D01*
X0240250Y0103179D01*
X0240250Y0094712D01*
X0239300Y0095662D01*
X0237589Y0096371D01*
X0235736Y0096371D01*
X0234024Y0095662D01*
X0232876Y0094513D01*
X0216156Y0094513D01*
X0215127Y0094087D01*
X0210015Y0088975D01*
X0191146Y0088975D01*
X0191341Y0089056D01*
X0192044Y0089759D01*
X0192216Y0090172D01*
X0194042Y0090172D01*
X0194042Y0094445D01*
X0195001Y0094445D01*
X0195001Y0090172D01*
X0197317Y0090172D01*
X0197775Y0090295D01*
X0198186Y0090532D01*
X0198521Y0090867D01*
X0198758Y0091277D01*
X0198880Y0091735D01*
X0198880Y0094445D01*
X0195001Y0094445D01*
X0195001Y0095405D01*
X0194042Y0095405D01*
X0194042Y0099678D01*
X0192425Y0099678D01*
X0192425Y0103547D01*
X0192044Y0104466D01*
X0191606Y0104904D01*
X0191606Y0105522D01*
X0208879Y0105522D01*
X0209908Y0105948D01*
X0225460Y0121500D01*
X0238923Y0121500D01*
X0238936Y0121468D01*
X0240343Y0120061D01*
X0242180Y0119300D01*
X0250170Y0119300D01*
X0252007Y0120061D01*
X0253414Y0121468D01*
X0254175Y0123305D01*
X0254175Y0125295D01*
X0253414Y0127132D01*
X0252007Y0128539D01*
X0250170Y0129300D01*
X0252007Y0130061D01*
X0253414Y0131468D01*
X0254175Y0133305D01*
X0254175Y0135295D01*
X0253414Y0137132D01*
X0252007Y0138539D01*
X0250170Y0139300D01*
X0242180Y0139300D01*
X0240343Y0138539D01*
X0238936Y0137132D01*
X0238923Y0137100D01*
X0221243Y0137100D01*
X0220214Y0136674D01*
X0219426Y0135886D01*
X0197221Y0113681D01*
X0191606Y0113681D01*
X0191606Y0121175D01*
X0196311Y0121175D01*
X0197102Y0120385D01*
X0198528Y0119794D01*
X0200072Y0119794D01*
X0201498Y0120385D01*
X0202590Y0121477D01*
X0203181Y0122903D01*
X0203181Y0124447D01*
X0202590Y0125873D01*
X0201498Y0126965D01*
X0200072Y0127556D01*
X0198528Y0127556D01*
X0197102Y0126965D01*
X0196311Y0126175D01*
X0195336Y0126175D01*
X0196341Y0127181D01*
X0197044Y0127884D01*
X0197425Y0128803D01*
X0197425Y0131311D01*
X0198215Y0132102D01*
X0198806Y0133528D01*
X0198806Y0135072D01*
X0198215Y0136498D01*
X0197123Y0137590D01*
X0195697Y0138181D01*
X0194153Y0138181D01*
X0192727Y0137590D01*
X0191635Y0136498D01*
X0191044Y0135072D01*
X0191044Y0133528D01*
X0191635Y0132102D01*
X0192425Y0131311D01*
X0192425Y0130336D01*
X0191389Y0129300D01*
X0187312Y0129300D01*
X0186393Y0128919D01*
X0186299Y0128825D01*
X0184054Y0128825D01*
X0182882Y0127654D01*
X0182882Y0118450D01*
X0182083Y0118118D01*
X0181380Y0117415D01*
X0180931Y0116966D01*
X0180550Y0116047D01*
X0180550Y0110336D01*
X0173264Y0103050D01*
X0168571Y0103050D01*
X0168571Y0103204D01*
X0164409Y0103204D01*
X0160247Y0103204D01*
X0160247Y0103050D01*
X0149489Y0103050D01*
X0149489Y0103418D01*
X0149222Y0104061D01*
X0149289Y0104310D01*
X0149289Y0104753D01*
X0149289Y0105196D01*
X0149136Y0105766D01*
X0148841Y0106278D01*
X0148423Y0106695D01*
X0147912Y0106990D01*
X0147341Y0107143D01*
X0145816Y0107143D01*
X0145816Y0105375D01*
X0145816Y0105375D01*
X0145816Y0107143D01*
X0144843Y0107143D01*
X0144843Y0110032D01*
X0144471Y0110930D01*
X0143834Y0111567D01*
X0143998Y0111635D01*
X0145090Y0112727D01*
X0145388Y0113445D01*
X0145677Y0113537D01*
X0150555Y0113525D01*
X0150419Y0113197D01*
X0150419Y0111653D01*
X0151010Y0110227D01*
X0152102Y0109135D01*
X0153528Y0108544D01*
X0155072Y0108544D01*
X0156498Y0109135D01*
X0157289Y0109925D01*
X0157336Y0109925D01*
X0157744Y0109896D01*
X0157831Y0109925D01*
X0157922Y0109925D01*
X0158300Y0110081D01*
X0160047Y0110664D01*
X0160047Y0109462D01*
X0160271Y0109238D01*
X0160247Y0109149D01*
X0160247Y0108322D01*
X0161187Y0108322D01*
X0161188Y0108322D01*
X0160247Y0108322D01*
X0160247Y0107494D01*
X0160368Y0107043D01*
X0160247Y0106591D01*
X0160247Y0105763D01*
X0160247Y0104936D01*
X0160369Y0104484D01*
X0160247Y0104032D01*
X0160247Y0103204D01*
X0164409Y0103204D01*
X0164409Y0103204D01*
X0164409Y0103204D01*
X0164409Y0105763D01*
X0164409Y0105763D01*
X0160247Y0105763D01*
X0164409Y0105763D01*
X0164409Y0105763D01*
X0164409Y0103373D01*
X0164409Y0103204D01*
X0164409Y0103204D01*
X0168571Y0103204D01*
X0168571Y0104032D01*
X0168450Y0104484D01*
X0168571Y0104936D01*
X0168571Y0105763D01*
X0164409Y0105763D01*
X0164409Y0105763D01*
X0164409Y0108050D01*
X0164409Y0108050D01*
X0164409Y0105931D01*
X0164409Y0105763D01*
X0164409Y0105763D01*
X0168571Y0105763D01*
X0168571Y0106591D01*
X0168450Y0107043D01*
X0168571Y0107494D01*
X0168571Y0108050D01*
X0169172Y0108050D01*
X0170091Y0108431D01*
X0178216Y0116556D01*
X0178919Y0117259D01*
X0179300Y0118178D01*
X0179300Y0128264D01*
X0200961Y0149925D01*
X0229172Y0149925D01*
X0230091Y0150306D01*
X0234711Y0154925D01*
X0238799Y0154925D01*
X0238936Y0154593D01*
X0240343Y0153186D01*
X0242180Y0152425D01*
X0250170Y0152425D01*
X0252007Y0153186D01*
X0253414Y0154593D01*
X0254175Y0156430D01*
X0254175Y0158420D01*
X0253414Y0160257D01*
X0252007Y0161664D01*
X0250170Y0162425D01*
X0252007Y0163186D01*
X0253414Y0164593D01*
X0254175Y0166430D01*
X0254175Y0168420D01*
X0253414Y0170257D01*
X0252007Y0171664D01*
X0250170Y0172425D01*
X0242180Y0172425D01*
X0240343Y0171664D01*
X0238936Y0170257D01*
X0238668Y0169610D01*
X0238509Y0169544D01*
X0226389Y0157425D01*
X0198803Y0157425D01*
X0197884Y0157044D01*
X0197181Y0156341D01*
X0172425Y0131586D01*
X0172425Y0136047D01*
X0172044Y0136966D01*
X0171800Y0137211D01*
X0171800Y0140746D01*
X0168871Y0143675D01*
X0164729Y0143675D01*
X0161800Y0140746D01*
X0161800Y0136604D01*
X0164729Y0133675D01*
X0167425Y0133675D01*
X0167425Y0128825D01*
X0161219Y0128825D01*
X0161033Y0128639D01*
X0161350Y0129405D01*
X0161350Y0131395D01*
X0160589Y0133232D01*
X0159182Y0134639D01*
X0157345Y0135400D01*
X0149355Y0135400D01*
X0147518Y0134639D01*
X0146111Y0133232D01*
X0145456Y0131650D01*
X0135644Y0131650D01*
X0134989Y0133232D01*
X0133582Y0134639D01*
X0131745Y0135400D01*
X0123755Y0135400D01*
X0121918Y0134639D01*
X0120511Y0133232D01*
X0120177Y0132425D01*
X0119902Y0132425D01*
X0119902Y0133509D01*
X0118731Y0134681D01*
X0112743Y0134681D01*
X0111800Y0133738D01*
X0110857Y0134681D01*
X0104869Y0134681D01*
X0103698Y0133509D01*
X0103698Y0126341D01*
X0104506Y0125533D01*
X0103501Y0124528D01*
X0103501Y0116572D01*
X0104523Y0115550D01*
X0103501Y0114528D01*
X0103501Y0107100D01*
X0099993Y0107100D01*
X0099269Y0106800D01*
X0090252Y0106800D01*
X0090313Y0106877D01*
X0090413Y0107221D01*
X0090550Y0107553D01*
X0090550Y0107695D01*
X0090590Y0107832D01*
X0090550Y0108188D01*
X0090550Y0110422D01*
X0090424Y0110726D01*
X0090424Y0122284D01*
X0089252Y0123455D01*
X0082084Y0123455D01*
X0080912Y0122284D01*
X0080912Y0108975D01*
X0080362Y0108975D01*
X0080550Y0109428D01*
X0080550Y0122297D01*
X0080169Y0123216D01*
X0079466Y0123919D01*
X0078547Y0124300D01*
X0060800Y0124300D01*
X0060800Y0178346D01*
X0060191Y0179816D01*
X0058300Y0181707D01*
X0058300Y0184442D01*
X0057234Y0187015D01*
X0055265Y0188984D01*
X0052692Y0190050D01*
X0049908Y0190050D01*
X0047335Y0188984D01*
X0045401Y0187050D01*
X0043856Y0187050D01*
X0043245Y0187106D01*
X0043066Y0187050D01*
X0042879Y0187050D01*
X0042312Y0186815D01*
X0041725Y0186632D01*
X0041582Y0186513D01*
X0041409Y0186441D01*
X0040975Y0186007D01*
X0013787Y0163350D01*
X0012621Y0163350D01*
X0010673Y0162543D01*
X0009182Y0161052D01*
X0008375Y0159104D01*
X0008375Y0156996D01*
X0009182Y0155048D01*
X0010673Y0153557D01*
X0011897Y0153050D01*
X0010673Y0152543D01*
X0009182Y0151052D01*
X0008375Y0149104D01*
X0008375Y0146996D01*
X0009182Y0145048D01*
X0010673Y0143557D01*
X0012188Y0142929D01*
X0011717Y0142776D01*
X0011002Y0142412D01*
X0010353Y0141940D01*
X0009785Y0141372D01*
X0009313Y0140723D01*
X0008949Y0140008D01*
X0008701Y0139244D01*
X0008575Y0138451D01*
X0008575Y0138136D01*
X0013589Y0138136D01*
X0013589Y0137964D01*
X0013761Y0137964D01*
X0013761Y0138136D01*
X0018775Y0138136D01*
X0018775Y0138451D01*
X0018649Y0139244D01*
X0018401Y0140008D01*
X0018037Y0140723D01*
X0017565Y0141372D01*
X0016997Y0141940D01*
X0016348Y0142412D01*
X0015633Y0142776D01*
X0015162Y0142929D01*
X0016677Y0143557D01*
X0018168Y0145048D01*
X0018975Y0146996D01*
X0018975Y0149104D01*
X0018168Y0151052D01*
X0016677Y0152543D01*
X0015453Y0153050D01*
X0016677Y0153557D01*
X0018168Y0155048D01*
X0018975Y0156996D01*
X0018975Y0157260D01*
X0045123Y0179050D01*
X0045401Y0179050D01*
X0047335Y0177116D01*
X0049908Y0176050D01*
X0052643Y0176050D01*
X0052800Y0175893D01*
X0052800Y0122586D01*
X0049759Y0119544D01*
X0049056Y0118841D01*
X0048675Y0117922D01*
X0048675Y0096928D01*
X0049056Y0096009D01*
X0052806Y0092259D01*
X0053509Y0091556D01*
X0054428Y0091175D01*
X0061672Y0091175D01*
X0062591Y0091556D01*
X0064344Y0093308D01*
X0068195Y0093308D01*
X0068195Y0092349D01*
X0063922Y0092349D01*
X0063922Y0090033D01*
X0064045Y0089575D01*
X0064282Y0089164D01*
X0064617Y0088829D01*
X0065027Y0088592D01*
X0065485Y0088469D01*
X0068195Y0088469D01*
X0068195Y0092349D01*
X0069155Y0092349D01*
X0069155Y0093308D01*
X0073428Y0093308D01*
X0073428Y0095625D01*
X0073415Y0095674D01*
X0073589Y0096095D01*
X0073628Y0096134D01*
X0073628Y0096189D01*
X0073675Y0096303D01*
X0073675Y0102561D01*
X0074602Y0101635D01*
X0076028Y0101044D01*
X0077572Y0101044D01*
X0078998Y0101635D01*
X0079566Y0102202D01*
X0079566Y0101858D01*
X0079579Y0101828D01*
X0079579Y0099520D01*
X0080423Y0098675D01*
X0079579Y0097830D01*
X0079579Y0096045D01*
X0079366Y0095532D01*
X0079366Y0091105D01*
X0079135Y0090873D01*
X0078544Y0089447D01*
X0078544Y0087903D01*
X0079135Y0086477D01*
X0080227Y0085385D01*
X0081653Y0084794D01*
X0083197Y0084794D01*
X0084623Y0085385D01*
X0085715Y0086477D01*
X0086306Y0087903D01*
X0086306Y0089447D01*
X0085718Y0090868D01*
X0086541Y0090868D01*
X0086741Y0091068D01*
X0087484Y0091068D01*
X0087484Y0091811D01*
X0087484Y0091811D01*
X0087484Y0091068D01*
X0088508Y0091068D01*
X0088966Y0091191D01*
X0089377Y0091428D01*
X0089712Y0091763D01*
X0089949Y0092173D01*
X0090071Y0092631D01*
X0090071Y0094935D01*
X0090071Y0096175D01*
X0090175Y0096175D01*
X0090506Y0096131D01*
X0090668Y0096175D01*
X0090679Y0096175D01*
X0090679Y0096175D01*
X0091177Y0096175D01*
X0092672Y0096175D01*
X0092672Y0094558D01*
X0096945Y0094558D01*
X0096945Y0093599D01*
X0092672Y0093599D01*
X0092672Y0091283D01*
X0092795Y0090825D01*
X0093032Y0090414D01*
X0093367Y0090079D01*
X0093777Y0089842D01*
X0094235Y0089719D01*
X0096945Y0089719D01*
X0096945Y0093599D01*
X0097905Y0093599D01*
X0097905Y0094558D01*
X0102178Y0094558D01*
X0102178Y0096012D01*
X0106800Y0091389D01*
X0106800Y0083885D01*
X0105015Y0082100D01*
X0050460Y0082100D01*
X0044687Y0087873D01*
X0044687Y0087876D01*
X0045835Y0089024D01*
X0046544Y0090736D01*
X0046544Y0092589D01*
X0045835Y0094300D01*
X0044525Y0095611D01*
X0042813Y0096320D01*
X0040960Y0096320D01*
X0039248Y0095611D01*
X0037938Y0094300D01*
X0037229Y0092589D01*
X0037229Y0090736D01*
X0037938Y0089024D01*
X0039087Y0087876D01*
X0039087Y0086598D01*
X0036475Y0089210D01*
X0036475Y0099514D01*
X0043144Y0103154D01*
X0043520Y0103310D01*
X0043629Y0103419D01*
X0043764Y0103493D01*
X0044020Y0103810D01*
X0044308Y0104098D01*
X0044367Y0104240D01*
X0044463Y0104360D01*
X0044578Y0104751D01*
X0044734Y0105127D01*
X0044734Y0105281D01*
X0044777Y0105429D01*
X0044734Y0105834D01*
X0044734Y0108596D01*
X0045882Y0109744D01*
X0046591Y0111456D01*
X0046591Y0113309D01*
X0045882Y0115021D01*
X0044572Y0116331D01*
X0042860Y0117040D01*
X0041007Y0117040D01*
X0039296Y0116331D01*
X0037985Y0115021D01*
X0037276Y0113309D01*
X0037276Y0111456D01*
X0037985Y0109744D01*
X0039134Y0108596D01*
X0039134Y0107345D01*
X0032465Y0103704D01*
X0032089Y0103549D01*
X0031980Y0103440D01*
X0031844Y0103366D01*
X0031589Y0103049D01*
X0031487Y0102947D01*
X0031436Y0102999D01*
X0031238Y0103272D01*
X0031045Y0103389D01*
X0030886Y0103549D01*
X0030575Y0103678D01*
X0024033Y0107685D01*
X0024033Y0108580D01*
X0025181Y0109729D01*
X0025891Y0111440D01*
X0025891Y0113293D01*
X0025181Y0115005D01*
X0023871Y0116315D01*
X0022159Y0117024D01*
X0020307Y0117024D01*
X0018595Y0116315D01*
X0017285Y0115005D01*
X0016576Y0113293D01*
X0016576Y0111440D01*
X0017285Y0109729D01*
X0018433Y0108580D01*
X0018433Y0106337D01*
X0018380Y0106004D01*
X0018433Y0105785D01*
X0018433Y0105560D01*
X0018562Y0105249D01*
X0018641Y0104921D01*
X0018773Y0104739D01*
X0018859Y0104531D01*
X0019097Y0104293D01*
X0019295Y0104020D01*
X0019488Y0103903D01*
X0019647Y0103743D01*
X0019958Y0103614D01*
X0026500Y0099607D01*
X0026500Y0080618D01*
X0026926Y0079589D01*
X0031500Y0075015D01*
X0031500Y0074902D01*
X0030716Y0074902D01*
X0029544Y0073731D01*
X0029544Y0067743D01*
X0030487Y0066800D01*
X0029544Y0065857D01*
X0029544Y0059869D01*
X0030716Y0058698D01*
X0031500Y0058698D01*
X0031500Y0052493D01*
X0031926Y0051464D01*
X0042919Y0040471D01*
X0042919Y0039778D01*
X0043510Y0038352D01*
X0044602Y0037260D01*
X0046028Y0036669D01*
X0047572Y0036669D01*
X0048998Y0037260D01*
X0050090Y0038352D01*
X0050681Y0039778D01*
X0050681Y0041322D01*
X0050090Y0042748D01*
X0048998Y0043840D01*
X0047572Y0044431D01*
X0046879Y0044431D01*
X0037100Y0054210D01*
X0037100Y0058698D01*
X0037884Y0058698D01*
X0039056Y0059869D01*
X0039056Y0065857D01*
X0038113Y0066800D01*
X0039056Y0067743D01*
X0039056Y0073731D01*
X0037884Y0074902D01*
X0037100Y0074902D01*
X0037100Y0076732D01*
X0036674Y0077761D01*
X0035886Y0078549D01*
X0032100Y0082335D01*
X0032100Y0085665D01*
X0042863Y0074902D01*
X0042591Y0074902D01*
X0041419Y0073731D01*
X0041419Y0067743D01*
X0042362Y0066800D01*
X0041419Y0065857D01*
X0041419Y0059869D01*
X0042591Y0058698D01*
X0049759Y0058698D01*
X0050931Y0059869D01*
X0050931Y0060063D01*
X0135827Y0060063D01*
X0144625Y0051265D01*
X0144625Y0045844D01*
X0143609Y0044828D01*
X0143609Y0040022D01*
X0144781Y0038850D01*
X0149981Y0038850D01*
X0151152Y0040022D01*
X0151152Y0044828D01*
X0150225Y0045756D01*
X0150225Y0049625D01*
X0236732Y0049625D01*
X0237761Y0050051D01*
X0238549Y0050839D01*
X0240424Y0052714D01*
X0240850Y0053743D01*
X0240850Y0060573D01*
X0241634Y0060573D01*
X0242806Y0061744D01*
X0242806Y0067732D01*
X0241863Y0068675D01*
X0242806Y0069618D01*
X0242806Y0075606D01*
X0242123Y0076288D01*
X0246085Y0080250D01*
X0249323Y0080250D01*
X0250353Y0080676D01*
X0251140Y0081464D01*
X0256685Y0087009D01*
X0258309Y0087009D01*
X0260021Y0087718D01*
X0261331Y0089028D01*
X0262040Y0090740D01*
X0262040Y0092593D01*
X0261331Y0094304D01*
X0260021Y0095615D01*
X0258309Y0096324D01*
X0256456Y0096324D01*
X0254744Y0095615D01*
X0253434Y0094304D01*
X0252725Y0092593D01*
X0252725Y0090968D01*
X0247607Y0085850D01*
X0244368Y0085850D01*
X0243339Y0085424D01*
X0236464Y0078549D01*
X0235676Y0077761D01*
X0235269Y0076777D01*
X0234466Y0076777D01*
X0233294Y0075606D01*
X0233294Y0069618D01*
X0234237Y0068675D01*
X0233294Y0067732D01*
X0233294Y0061744D01*
X0234466Y0060573D01*
X0235250Y0060573D01*
X0235250Y0055460D01*
X0235015Y0055225D01*
X0148585Y0055225D01*
X0138573Y0065237D01*
X0137544Y0065663D01*
X0050931Y0065663D01*
X0050931Y0065857D01*
X0049988Y0066800D01*
X0050931Y0067743D01*
X0050931Y0073731D01*
X0049759Y0074902D01*
X0048975Y0074902D01*
X0048975Y0076107D01*
X0048812Y0076500D01*
X0106732Y0076500D01*
X0107761Y0076926D01*
X0109825Y0078990D01*
X0115384Y0073431D01*
X0116303Y0073050D01*
X0180422Y0073050D01*
X0181341Y0073431D01*
X0182044Y0074134D01*
X0188841Y0080931D01*
X0189544Y0081634D01*
X0189925Y0082553D01*
X0189925Y0083375D01*
X0211732Y0083375D01*
X0212761Y0083801D01*
X0213549Y0084589D01*
X0217873Y0088913D01*
X0232876Y0088913D01*
X0234024Y0087765D01*
X0235736Y0087056D01*
X0236221Y0087056D01*
X0230640Y0081475D01*
X0223118Y0081475D01*
X0222089Y0081049D01*
X0221301Y0080261D01*
X0220875Y0079232D01*
X0220875Y0076777D01*
X0220091Y0076777D01*
X0218919Y0075606D01*
X0218919Y0069618D01*
X0219862Y0068675D01*
X0218919Y0067732D01*
X0218919Y0067538D01*
X0157176Y0067538D01*
X0156498Y0068215D01*
X0155072Y0068806D01*
X0153528Y0068806D01*
X0152102Y0068215D01*
X0151010Y0067123D01*
X0150419Y0065697D01*
X0150419Y0064153D01*
X0151010Y0062727D01*
X0152102Y0061635D01*
X0153528Y0061044D01*
X0155072Y0061044D01*
X0156498Y0061635D01*
X0156802Y0061938D01*
X0218919Y0061938D01*
X0218919Y0061744D01*
X0220091Y0060573D01*
X0227259Y0060573D01*
X0228431Y0061744D01*
X0228431Y0067732D01*
X0227488Y0068675D01*
X0228431Y0069618D01*
X0228431Y0075606D01*
X0228162Y0075875D01*
X0232357Y0075875D01*
X0233386Y0076301D01*
X0234174Y0077089D01*
X0245424Y0088339D01*
X0245850Y0089368D01*
X0245850Y0103958D01*
X0245898Y0104333D01*
X0245850Y0104510D01*
X0245850Y0104693D01*
X0245705Y0105043D01*
X0245606Y0105408D01*
X0245494Y0105553D01*
X0245424Y0105722D01*
X0245156Y0105990D01*
X0241164Y0111150D01*
X0241304Y0111488D01*
X0241304Y0113341D01*
X0240595Y0115052D01*
X0239285Y0116363D01*
X0237573Y0117072D01*
X0235288Y0116893D02*
X0220853Y0116893D01*
X0222451Y0118491D02*
X0274500Y0118491D01*
X0274500Y0120090D02*
X0252036Y0120090D01*
X0253505Y0121688D02*
X0274500Y0121688D01*
X0274500Y0123287D02*
X0254167Y0123287D01*
X0254175Y0124885D02*
X0274500Y0124885D01*
X0274500Y0126484D02*
X0253682Y0126484D01*
X0252464Y0128082D02*
X0274500Y0128082D01*
X0274500Y0129681D02*
X0251089Y0129681D01*
X0250170Y0129300D02*
X0242180Y0129300D01*
X0240343Y0130061D01*
X0238936Y0131468D01*
X0238923Y0131500D01*
X0222960Y0131500D01*
X0202582Y0111122D01*
X0207162Y0111122D01*
X0221926Y0125886D01*
X0222714Y0126674D01*
X0223743Y0127100D01*
X0238923Y0127100D01*
X0238936Y0127132D01*
X0240343Y0128539D01*
X0242180Y0129300D01*
X0250170Y0129300D01*
X0253225Y0131279D02*
X0274500Y0131279D01*
X0274500Y0132878D02*
X0253998Y0132878D01*
X0254175Y0134476D02*
X0274500Y0134476D01*
X0274500Y0136075D02*
X0253852Y0136075D01*
X0252873Y0137673D02*
X0274500Y0137673D01*
X0274500Y0139272D02*
X0250237Y0139272D01*
X0249553Y0142625D02*
X0246375Y0142625D01*
X0246375Y0147225D01*
X0246375Y0147625D01*
X0245975Y0147625D01*
X0245975Y0152225D01*
X0242797Y0152225D01*
X0242051Y0152107D01*
X0241332Y0151873D01*
X0240659Y0151530D01*
X0240048Y0151086D01*
X0239514Y0150552D01*
X0239070Y0149941D01*
X0238727Y0149268D01*
X0238493Y0148549D01*
X0238375Y0147803D01*
X0238375Y0147625D01*
X0245975Y0147625D01*
X0245975Y0147225D01*
X0246375Y0147225D01*
X0253975Y0147225D01*
X0253975Y0147047D01*
X0253857Y0146301D01*
X0253623Y0145582D01*
X0253280Y0144909D01*
X0252836Y0144298D01*
X0252302Y0143764D01*
X0251691Y0143320D01*
X0251018Y0142977D01*
X0250299Y0142743D01*
X0249553Y0142625D01*
X0252606Y0144068D02*
X0274500Y0144068D01*
X0274500Y0145666D02*
X0253650Y0145666D01*
X0253975Y0147625D02*
X0253975Y0147803D01*
X0253857Y0148549D01*
X0253623Y0149268D01*
X0253280Y0149941D01*
X0252836Y0150552D01*
X0252302Y0151086D01*
X0251691Y0151530D01*
X0251018Y0151873D01*
X0250299Y0152107D01*
X0249553Y0152225D01*
X0246375Y0152225D01*
X0246375Y0147625D01*
X0253975Y0147625D01*
X0253755Y0148863D02*
X0274500Y0148863D01*
X0274500Y0147265D02*
X0246375Y0147265D01*
X0245975Y0147265D02*
X0198300Y0147265D01*
X0199899Y0148863D02*
X0238595Y0148863D01*
X0238375Y0147225D02*
X0238375Y0147047D01*
X0238493Y0146301D01*
X0238727Y0145582D01*
X0239070Y0144909D01*
X0239514Y0144298D01*
X0240048Y0143764D01*
X0240659Y0143320D01*
X0241332Y0142977D01*
X0242051Y0142743D01*
X0242797Y0142625D01*
X0245975Y0142625D01*
X0245975Y0147225D01*
X0238375Y0147225D01*
X0238699Y0145666D02*
X0196702Y0145666D01*
X0195103Y0144068D02*
X0239744Y0144068D01*
X0242113Y0139272D02*
X0190308Y0139272D01*
X0191906Y0140870D02*
X0274500Y0140870D01*
X0274500Y0142469D02*
X0193505Y0142469D01*
X0188104Y0147265D02*
X0185399Y0147265D01*
X0185399Y0146965D02*
X0184090Y0143804D01*
X0181671Y0141385D01*
X0178510Y0140076D01*
X0175090Y0140076D01*
X0171929Y0141385D01*
X0169510Y0143804D01*
X0168201Y0146965D01*
X0168201Y0150385D01*
X0169510Y0153546D01*
X0171929Y0155965D01*
X0175090Y0157274D01*
X0178510Y0157274D01*
X0181671Y0155965D01*
X0184090Y0153546D01*
X0185399Y0150385D01*
X0185399Y0146965D01*
X0184861Y0145666D02*
X0186505Y0145666D01*
X0184907Y0144068D02*
X0184199Y0144068D01*
X0183308Y0142469D02*
X0182755Y0142469D01*
X0181710Y0140870D02*
X0180429Y0140870D01*
X0180111Y0139272D02*
X0171800Y0139272D01*
X0171800Y0137673D02*
X0178513Y0137673D01*
X0176914Y0136075D02*
X0172414Y0136075D01*
X0172425Y0134476D02*
X0175316Y0134476D01*
X0173717Y0132878D02*
X0172425Y0132878D01*
X0167425Y0132878D02*
X0160736Y0132878D01*
X0161350Y0131279D02*
X0167425Y0131279D01*
X0167425Y0129681D02*
X0161350Y0129681D01*
X0159345Y0134476D02*
X0163927Y0134476D01*
X0162329Y0136075D02*
X0060800Y0136075D01*
X0060800Y0137673D02*
X0161800Y0137673D01*
X0161800Y0139272D02*
X0060800Y0139272D01*
X0060800Y0140870D02*
X0098171Y0140870D01*
X0096929Y0141385D02*
X0100090Y0140076D01*
X0103510Y0140076D01*
X0106671Y0141385D01*
X0109090Y0143804D01*
X0110399Y0146965D01*
X0110399Y0150385D01*
X0109090Y0153546D01*
X0106671Y0155965D01*
X0103510Y0157274D01*
X0100090Y0157274D01*
X0096929Y0155965D01*
X0094510Y0153546D01*
X0093201Y0150385D01*
X0093201Y0146965D01*
X0094510Y0143804D01*
X0096929Y0141385D01*
X0095845Y0142469D02*
X0060800Y0142469D01*
X0060800Y0144068D02*
X0094401Y0144068D01*
X0093739Y0145666D02*
X0060800Y0145666D01*
X0060800Y0147265D02*
X0093201Y0147265D01*
X0093201Y0148863D02*
X0060800Y0148863D01*
X0060800Y0150462D02*
X0093232Y0150462D01*
X0093894Y0152060D02*
X0060800Y0152060D01*
X0060800Y0153659D02*
X0094622Y0153659D01*
X0096221Y0155257D02*
X0060800Y0155257D01*
X0060800Y0156856D02*
X0099079Y0156856D01*
X0104521Y0156856D02*
X0174079Y0156856D01*
X0171221Y0155257D02*
X0107379Y0155257D01*
X0108978Y0153659D02*
X0169622Y0153659D01*
X0168894Y0152060D02*
X0159203Y0152060D01*
X0159477Y0151861D02*
X0158866Y0152305D01*
X0158193Y0152648D01*
X0157474Y0152882D01*
X0156728Y0153000D01*
X0153550Y0153000D01*
X0153550Y0148400D01*
X0153150Y0148400D01*
X0153150Y0153000D01*
X0149972Y0153000D01*
X0149226Y0152882D01*
X0148507Y0152648D01*
X0147834Y0152305D01*
X0147223Y0151861D01*
X0146689Y0151327D01*
X0146245Y0150716D01*
X0145902Y0150043D01*
X0145668Y0149324D01*
X0145550Y0148578D01*
X0145550Y0148400D01*
X0153150Y0148400D01*
X0153150Y0148000D01*
X0153550Y0148000D01*
X0153550Y0148400D01*
X0161150Y0148400D01*
X0161150Y0148578D01*
X0161032Y0149324D01*
X0160798Y0150043D01*
X0160455Y0150716D01*
X0160011Y0151327D01*
X0159477Y0151861D01*
X0160585Y0150462D02*
X0168232Y0150462D01*
X0168201Y0148863D02*
X0161105Y0148863D01*
X0161150Y0148000D02*
X0153550Y0148000D01*
X0153550Y0143400D01*
X0156728Y0143400D01*
X0157474Y0143518D01*
X0158193Y0143752D01*
X0158866Y0144095D01*
X0159477Y0144539D01*
X0160011Y0145073D01*
X0160455Y0145684D01*
X0160798Y0146357D01*
X0161032Y0147076D01*
X0161150Y0147822D01*
X0161150Y0148000D01*
X0161062Y0147265D02*
X0168201Y0147265D01*
X0168739Y0145666D02*
X0160442Y0145666D01*
X0158812Y0144068D02*
X0169401Y0144068D01*
X0170077Y0142469D02*
X0170845Y0142469D01*
X0171676Y0140870D02*
X0173171Y0140870D01*
X0163523Y0142469D02*
X0107755Y0142469D01*
X0109199Y0144068D02*
X0122288Y0144068D01*
X0122234Y0144095D02*
X0122907Y0143752D01*
X0123626Y0143518D01*
X0124372Y0143400D01*
X0127550Y0143400D01*
X0127550Y0148000D01*
X0127950Y0148000D01*
X0127950Y0148400D01*
X0127550Y0148400D01*
X0127550Y0153000D01*
X0124372Y0153000D01*
X0123626Y0152882D01*
X0122907Y0152648D01*
X0122234Y0152305D01*
X0121623Y0151861D01*
X0121089Y0151327D01*
X0120645Y0150716D01*
X0120302Y0150043D01*
X0120068Y0149324D01*
X0119950Y0148578D01*
X0119950Y0148400D01*
X0127550Y0148400D01*
X0127550Y0148000D01*
X0119950Y0148000D01*
X0119950Y0147822D01*
X0120068Y0147076D01*
X0120302Y0146357D01*
X0120645Y0145684D01*
X0121089Y0145073D01*
X0121623Y0144539D01*
X0122234Y0144095D01*
X0120658Y0145666D02*
X0109861Y0145666D01*
X0110399Y0147265D02*
X0120038Y0147265D01*
X0119995Y0148863D02*
X0110399Y0148863D01*
X0110368Y0150462D02*
X0120515Y0150462D01*
X0121897Y0152060D02*
X0109706Y0152060D01*
X0105429Y0140870D02*
X0161924Y0140870D01*
X0153550Y0144068D02*
X0153150Y0144068D01*
X0153150Y0143400D02*
X0153150Y0148000D01*
X0145550Y0148000D01*
X0145550Y0147822D01*
X0145668Y0147076D01*
X0145902Y0146357D01*
X0146245Y0145684D01*
X0146689Y0145073D01*
X0147223Y0144539D01*
X0147834Y0144095D01*
X0148507Y0143752D01*
X0149226Y0143518D01*
X0149972Y0143400D01*
X0153150Y0143400D01*
X0153150Y0145666D02*
X0153550Y0145666D01*
X0153550Y0147265D02*
X0153150Y0147265D01*
X0153150Y0148863D02*
X0153550Y0148863D01*
X0153550Y0150462D02*
X0153150Y0150462D01*
X0153150Y0152060D02*
X0153550Y0152060D01*
X0147497Y0152060D02*
X0133603Y0152060D01*
X0133877Y0151861D02*
X0133266Y0152305D01*
X0132593Y0152648D01*
X0131874Y0152882D01*
X0131128Y0153000D01*
X0127950Y0153000D01*
X0127950Y0148400D01*
X0135550Y0148400D01*
X0135550Y0148578D01*
X0135432Y0149324D01*
X0135198Y0150043D01*
X0134855Y0150716D01*
X0134411Y0151327D01*
X0133877Y0151861D01*
X0134985Y0150462D02*
X0146115Y0150462D01*
X0145595Y0148863D02*
X0135505Y0148863D01*
X0135550Y0148000D02*
X0127950Y0148000D01*
X0127950Y0143400D01*
X0131128Y0143400D01*
X0131874Y0143518D01*
X0132593Y0143752D01*
X0133266Y0144095D01*
X0133877Y0144539D01*
X0134411Y0145073D01*
X0134855Y0145684D01*
X0135198Y0146357D01*
X0135432Y0147076D01*
X0135550Y0147822D01*
X0135550Y0148000D01*
X0135462Y0147265D02*
X0145638Y0147265D01*
X0146258Y0145666D02*
X0134842Y0145666D01*
X0133212Y0144068D02*
X0147888Y0144068D01*
X0147355Y0134476D02*
X0133745Y0134476D01*
X0135136Y0132878D02*
X0145964Y0132878D01*
X0151800Y0128850D02*
X0129300Y0128850D01*
X0127750Y0130400D01*
X0121755Y0134476D02*
X0118935Y0134476D01*
X0119902Y0132878D02*
X0120364Y0132878D01*
X0112539Y0134476D02*
X0111061Y0134476D01*
X0104665Y0134476D02*
X0060800Y0134476D01*
X0060800Y0132878D02*
X0103698Y0132878D01*
X0103698Y0131279D02*
X0060800Y0131279D01*
X0060800Y0129681D02*
X0103698Y0129681D01*
X0103698Y0128082D02*
X0060800Y0128082D01*
X0060800Y0126484D02*
X0103698Y0126484D01*
X0103858Y0124885D02*
X0060800Y0124885D01*
X0052800Y0124885D02*
X0004100Y0124885D01*
X0004100Y0123287D02*
X0052800Y0123287D01*
X0051903Y0121688D02*
X0004100Y0121688D01*
X0004100Y0120090D02*
X0050304Y0120090D01*
X0048911Y0118491D02*
X0004100Y0118491D01*
X0004100Y0116893D02*
X0019989Y0116893D01*
X0022477Y0116893D02*
X0040652Y0116893D01*
X0043216Y0116893D02*
X0048675Y0116893D01*
X0048675Y0115294D02*
X0045609Y0115294D01*
X0046431Y0113696D02*
X0048675Y0113696D01*
X0048675Y0112097D02*
X0046591Y0112097D01*
X0046195Y0110499D02*
X0048675Y0110499D01*
X0048675Y0108900D02*
X0045038Y0108900D01*
X0044734Y0107302D02*
X0048675Y0107302D01*
X0048675Y0105703D02*
X0044748Y0105703D01*
X0044310Y0104105D02*
X0048675Y0104105D01*
X0048675Y0102506D02*
X0041957Y0102506D01*
X0039029Y0100908D02*
X0048675Y0100908D01*
X0048675Y0099309D02*
X0036475Y0099309D01*
X0036475Y0097711D02*
X0048675Y0097711D01*
X0049013Y0096112D02*
X0043314Y0096112D01*
X0045622Y0094514D02*
X0050551Y0094514D01*
X0052149Y0092915D02*
X0046409Y0092915D01*
X0046544Y0091317D02*
X0054086Y0091317D01*
X0062014Y0091317D02*
X0063922Y0091317D01*
X0063951Y0092915D02*
X0068195Y0092915D01*
X0069155Y0092915D02*
X0079366Y0092915D01*
X0079366Y0091317D02*
X0073428Y0091317D01*
X0073428Y0092349D02*
X0073428Y0090033D01*
X0073305Y0089575D01*
X0073068Y0089164D01*
X0072733Y0088829D01*
X0072323Y0088592D01*
X0071865Y0088469D01*
X0069155Y0088469D01*
X0069155Y0092349D01*
X0073428Y0092349D01*
X0073428Y0094514D02*
X0079366Y0094514D01*
X0079579Y0096112D02*
X0073606Y0096112D01*
X0073675Y0097711D02*
X0079579Y0097711D01*
X0079789Y0099309D02*
X0073675Y0099309D01*
X0073675Y0100908D02*
X0079579Y0100908D01*
X0082366Y0102415D02*
X0082366Y0104984D01*
X0081175Y0106175D01*
X0078050Y0106175D01*
X0076800Y0104925D01*
X0073730Y0102506D02*
X0073675Y0102506D01*
X0080550Y0110499D02*
X0080912Y0110499D01*
X0080912Y0112097D02*
X0080550Y0112097D01*
X0080550Y0113696D02*
X0080912Y0113696D01*
X0080912Y0115294D02*
X0080550Y0115294D01*
X0080550Y0116893D02*
X0080912Y0116893D01*
X0080912Y0118491D02*
X0080550Y0118491D01*
X0080550Y0120090D02*
X0080912Y0120090D01*
X0080912Y0121688D02*
X0080550Y0121688D01*
X0080099Y0123287D02*
X0081915Y0123287D01*
X0089421Y0123287D02*
X0103501Y0123287D01*
X0103501Y0121688D02*
X0090424Y0121688D01*
X0090424Y0120090D02*
X0103501Y0120090D01*
X0103501Y0118491D02*
X0090424Y0118491D01*
X0090424Y0116893D02*
X0103501Y0116893D01*
X0104267Y0115294D02*
X0090424Y0115294D01*
X0090424Y0113696D02*
X0103501Y0113696D01*
X0103501Y0112097D02*
X0090424Y0112097D01*
X0090518Y0110499D02*
X0103501Y0110499D01*
X0103501Y0108900D02*
X0090550Y0108900D01*
X0090446Y0107302D02*
X0103501Y0107302D01*
X0106800Y0104300D02*
X0108060Y0105560D01*
X0108060Y0110550D01*
X0108060Y0120550D01*
X0106800Y0104300D02*
X0100550Y0104300D01*
X0100550Y0103896D01*
X0097425Y0100771D01*
X0096945Y0094514D02*
X0090071Y0094514D01*
X0090071Y0094935D02*
X0087712Y0094935D01*
X0090071Y0094935D01*
X0090071Y0096112D02*
X0092672Y0096112D01*
X0092672Y0092915D02*
X0090071Y0092915D01*
X0089185Y0091317D02*
X0092672Y0091317D01*
X0096945Y0091317D02*
X0097905Y0091317D01*
X0097905Y0089719D02*
X0100615Y0089719D01*
X0101073Y0089842D01*
X0101483Y0090079D01*
X0101818Y0090414D01*
X0102055Y0090825D01*
X0102178Y0091283D01*
X0102178Y0093599D01*
X0097905Y0093599D01*
X0097905Y0089719D01*
X0097905Y0092915D02*
X0096945Y0092915D01*
X0097905Y0094514D02*
X0103676Y0094514D01*
X0102178Y0092915D02*
X0105274Y0092915D01*
X0106800Y0091317D02*
X0102178Y0091317D01*
X0106800Y0089718D02*
X0086194Y0089718D01*
X0086306Y0088120D02*
X0106800Y0088120D01*
X0106800Y0086521D02*
X0085734Y0086521D01*
X0083508Y0084923D02*
X0106800Y0084923D01*
X0106239Y0083324D02*
X0049236Y0083324D01*
X0047637Y0084923D02*
X0081342Y0084923D01*
X0079116Y0086521D02*
X0046039Y0086521D01*
X0044931Y0088120D02*
X0078544Y0088120D01*
X0078656Y0089718D02*
X0073344Y0089718D01*
X0069155Y0089718D02*
X0068195Y0089718D01*
X0068195Y0091317D02*
X0069155Y0091317D01*
X0064006Y0089718D02*
X0046123Y0089718D01*
X0041887Y0091662D02*
X0041887Y0086713D01*
X0049300Y0079300D01*
X0106175Y0079300D01*
X0109300Y0082425D01*
X0109363Y0078529D02*
X0110286Y0078529D01*
X0111884Y0076930D02*
X0107765Y0076930D01*
X0113483Y0075332D02*
X0048975Y0075332D01*
X0050929Y0073733D02*
X0115081Y0073733D01*
X0133050Y0086800D02*
X0133050Y0095577D01*
X0133729Y0096257D01*
X0133757Y0096257D01*
X0133757Y0093568D01*
X0134129Y0092670D01*
X0134816Y0091983D01*
X0135714Y0091611D01*
X0136981Y0091611D01*
X0137624Y0091878D01*
X0137873Y0091811D01*
X0138316Y0091811D01*
X0138759Y0091811D01*
X0139007Y0091878D01*
X0139651Y0091611D01*
X0140918Y0091611D01*
X0141561Y0091878D01*
X0141810Y0091811D01*
X0142253Y0091811D01*
X0142696Y0091811D01*
X0143266Y0091964D01*
X0143778Y0092259D01*
X0144195Y0092677D01*
X0144490Y0093188D01*
X0144643Y0093759D01*
X0144643Y0095284D01*
X0142875Y0095284D01*
X0142875Y0095284D01*
X0144643Y0095284D01*
X0144643Y0096257D01*
X0147532Y0096257D01*
X0147751Y0096347D01*
X0148050Y0096347D01*
X0148050Y0090406D01*
X0147457Y0088925D01*
X0146461Y0086800D01*
X0133050Y0086800D01*
X0133050Y0088120D02*
X0147080Y0088120D01*
X0147775Y0089718D02*
X0133050Y0089718D01*
X0133050Y0091317D02*
X0148050Y0091317D01*
X0148050Y0092915D02*
X0144333Y0092915D01*
X0144643Y0094514D02*
X0148050Y0094514D01*
X0148050Y0096112D02*
X0144643Y0096112D01*
X0142253Y0092420D02*
X0142253Y0091811D01*
X0142253Y0092420D01*
X0142253Y0092420D01*
X0138316Y0092420D02*
X0138316Y0091811D01*
X0138316Y0092420D01*
X0138316Y0092420D01*
X0138316Y0092420D01*
X0134027Y0092915D02*
X0133050Y0092915D01*
X0133050Y0094514D02*
X0133757Y0094514D01*
X0133757Y0096112D02*
X0133585Y0096112D01*
X0145816Y0105703D02*
X0145816Y0105703D01*
X0144843Y0107302D02*
X0160299Y0107302D01*
X0160247Y0108900D02*
X0155932Y0108900D01*
X0152668Y0108900D02*
X0144843Y0108900D01*
X0144650Y0110499D02*
X0150897Y0110499D01*
X0150419Y0112097D02*
X0144461Y0112097D01*
X0149153Y0105703D02*
X0160247Y0105703D01*
X0160267Y0104105D02*
X0149234Y0104105D01*
X0149289Y0104753D02*
X0148680Y0104753D01*
X0149289Y0104753D01*
X0148680Y0104753D02*
X0148680Y0104753D01*
X0159552Y0110499D02*
X0160047Y0110499D01*
X0164409Y0107302D02*
X0164409Y0107302D01*
X0164409Y0105703D02*
X0164409Y0105703D01*
X0164409Y0104105D02*
X0164409Y0104105D01*
X0168551Y0104105D02*
X0174319Y0104105D01*
X0175918Y0105703D02*
X0168571Y0105703D01*
X0168519Y0107302D02*
X0177516Y0107302D01*
X0179115Y0108900D02*
X0170561Y0108900D01*
X0172159Y0110499D02*
X0180550Y0110499D01*
X0180550Y0112097D02*
X0173758Y0112097D01*
X0175356Y0113696D02*
X0180550Y0113696D01*
X0180550Y0115294D02*
X0176955Y0115294D01*
X0178553Y0116893D02*
X0180900Y0116893D01*
X0181380Y0117415D02*
X0181380Y0117415D01*
X0182882Y0118491D02*
X0179300Y0118491D01*
X0179300Y0120090D02*
X0182882Y0120090D01*
X0182882Y0121688D02*
X0179300Y0121688D01*
X0179300Y0123287D02*
X0182882Y0123287D01*
X0182882Y0124885D02*
X0179300Y0124885D01*
X0179300Y0126484D02*
X0182882Y0126484D01*
X0183311Y0128082D02*
X0179300Y0128082D01*
X0180716Y0129681D02*
X0191770Y0129681D01*
X0192425Y0131279D02*
X0182315Y0131279D01*
X0183913Y0132878D02*
X0191313Y0132878D01*
X0191044Y0134476D02*
X0185512Y0134476D01*
X0187110Y0136075D02*
X0191459Y0136075D01*
X0192927Y0137673D02*
X0188709Y0137673D01*
X0196923Y0137673D02*
X0239477Y0137673D01*
X0239125Y0131279D02*
X0222739Y0131279D01*
X0221141Y0129681D02*
X0241261Y0129681D01*
X0239886Y0128082D02*
X0219542Y0128082D01*
X0217944Y0126484D02*
X0222524Y0126484D01*
X0220926Y0124885D02*
X0216345Y0124885D01*
X0214747Y0123287D02*
X0219327Y0123287D01*
X0217729Y0121688D02*
X0213148Y0121688D01*
X0211550Y0120090D02*
X0216130Y0120090D01*
X0214532Y0118491D02*
X0209951Y0118491D01*
X0208353Y0116893D02*
X0212933Y0116893D01*
X0211335Y0115294D02*
X0206754Y0115294D01*
X0205156Y0113696D02*
X0209736Y0113696D01*
X0208137Y0112097D02*
X0203557Y0112097D01*
X0198381Y0110881D02*
X0221800Y0134300D01*
X0246175Y0134300D01*
X0245975Y0144068D02*
X0246375Y0144068D01*
X0246375Y0145666D02*
X0245975Y0145666D01*
X0245975Y0148863D02*
X0246375Y0148863D01*
X0246375Y0150462D02*
X0245975Y0150462D01*
X0245975Y0152060D02*
X0246375Y0152060D01*
X0250443Y0152060D02*
X0274500Y0152060D01*
X0274500Y0150462D02*
X0252902Y0150462D01*
X0252480Y0153659D02*
X0274500Y0153659D01*
X0274500Y0155257D02*
X0253689Y0155257D01*
X0254175Y0156856D02*
X0274500Y0156856D01*
X0274500Y0158454D02*
X0254161Y0158454D01*
X0253499Y0160053D02*
X0274500Y0160053D01*
X0274500Y0161651D02*
X0252020Y0161651D01*
X0252071Y0163250D02*
X0274500Y0163250D01*
X0274500Y0164848D02*
X0253520Y0164848D01*
X0254175Y0166447D02*
X0274500Y0166447D01*
X0274500Y0168045D02*
X0254175Y0168045D01*
X0253668Y0169644D02*
X0274500Y0169644D01*
X0274500Y0171242D02*
X0252429Y0171242D01*
X0250170Y0162425D02*
X0242180Y0162425D01*
X0240343Y0163186D01*
X0239782Y0163747D01*
X0235961Y0159925D01*
X0238799Y0159925D01*
X0238936Y0160257D01*
X0240343Y0161664D01*
X0242180Y0162425D01*
X0250170Y0162425D01*
X0240330Y0161651D02*
X0237687Y0161651D01*
X0238851Y0160053D02*
X0236088Y0160053D01*
X0239285Y0163250D02*
X0240279Y0163250D01*
X0237010Y0168045D02*
X0060800Y0168045D01*
X0060800Y0166447D02*
X0235411Y0166447D01*
X0233813Y0164848D02*
X0060800Y0164848D01*
X0060800Y0163250D02*
X0232214Y0163250D01*
X0230616Y0161651D02*
X0060800Y0161651D01*
X0060800Y0160053D02*
X0229017Y0160053D01*
X0227419Y0158454D02*
X0060800Y0158454D01*
X0052800Y0158454D02*
X0020408Y0158454D01*
X0018917Y0156856D02*
X0052800Y0156856D01*
X0052800Y0155257D02*
X0018255Y0155257D01*
X0016779Y0153659D02*
X0052800Y0153659D01*
X0052800Y0152060D02*
X0017160Y0152060D01*
X0018413Y0150462D02*
X0052800Y0150462D01*
X0052800Y0148863D02*
X0018975Y0148863D01*
X0018975Y0147265D02*
X0052800Y0147265D01*
X0052800Y0145666D02*
X0018424Y0145666D01*
X0017188Y0144068D02*
X0052800Y0144068D01*
X0052800Y0142469D02*
X0016236Y0142469D01*
X0017930Y0140870D02*
X0052800Y0140870D01*
X0052800Y0139272D02*
X0018640Y0139272D01*
X0018775Y0137964D02*
X0013761Y0137964D01*
X0013761Y0132950D01*
X0014076Y0132950D01*
X0014869Y0133076D01*
X0015633Y0133324D01*
X0016348Y0133688D01*
X0016997Y0134160D01*
X0017565Y0134728D01*
X0018037Y0135377D01*
X0018401Y0136092D01*
X0018649Y0136856D01*
X0018775Y0137649D01*
X0018775Y0137964D01*
X0018775Y0137673D02*
X0052800Y0137673D01*
X0052800Y0136075D02*
X0018393Y0136075D01*
X0017314Y0134476D02*
X0052800Y0134476D01*
X0052800Y0132878D02*
X0004100Y0132878D01*
X0004100Y0134476D02*
X0010036Y0134476D01*
X0009785Y0134728D02*
X0010353Y0134160D01*
X0011002Y0133688D01*
X0011717Y0133324D01*
X0012481Y0133076D01*
X0013274Y0132950D01*
X0013589Y0132950D01*
X0013589Y0137964D01*
X0008575Y0137964D01*
X0008575Y0137649D01*
X0008701Y0136856D01*
X0008949Y0136092D01*
X0009313Y0135377D01*
X0009785Y0134728D01*
X0008957Y0136075D02*
X0004100Y0136075D01*
X0004100Y0137673D02*
X0008575Y0137673D01*
X0008710Y0139272D02*
X0004100Y0139272D01*
X0004100Y0140870D02*
X0009420Y0140870D01*
X0011114Y0142469D02*
X0004100Y0142469D01*
X0004100Y0144068D02*
X0010162Y0144068D01*
X0008926Y0145666D02*
X0004100Y0145666D01*
X0004100Y0147265D02*
X0008375Y0147265D01*
X0008375Y0148863D02*
X0004100Y0148863D01*
X0004100Y0150462D02*
X0008937Y0150462D01*
X0010190Y0152060D02*
X0004100Y0152060D01*
X0004100Y0153659D02*
X0010571Y0153659D01*
X0009095Y0155257D02*
X0004100Y0155257D01*
X0004100Y0156856D02*
X0008433Y0156856D01*
X0008375Y0158454D02*
X0004100Y0158454D01*
X0004100Y0160053D02*
X0008768Y0160053D01*
X0009781Y0161651D02*
X0004100Y0161651D01*
X0004100Y0163250D02*
X0012379Y0163250D01*
X0015585Y0164848D02*
X0004100Y0164848D01*
X0004100Y0166447D02*
X0017503Y0166447D01*
X0019421Y0168045D02*
X0004100Y0168045D01*
X0004100Y0169644D02*
X0021339Y0169644D01*
X0023257Y0171242D02*
X0004100Y0171242D01*
X0004100Y0172841D02*
X0025176Y0172841D01*
X0027094Y0174439D02*
X0004100Y0174439D01*
X0004100Y0176038D02*
X0029012Y0176038D01*
X0030930Y0177636D02*
X0004100Y0177636D01*
X0004100Y0179235D02*
X0032849Y0179235D01*
X0034767Y0180833D02*
X0004100Y0180833D01*
X0004100Y0182432D02*
X0036685Y0182432D01*
X0038603Y0184030D02*
X0004100Y0184030D01*
X0004100Y0185629D02*
X0040521Y0185629D01*
X0045578Y0187227D02*
X0004100Y0187227D01*
X0004100Y0188826D02*
X0047176Y0188826D01*
X0055424Y0188826D02*
X0223704Y0188826D01*
X0223514Y0188716D02*
X0222807Y0188173D01*
X0222177Y0187543D01*
X0221634Y0186836D01*
X0221188Y0186064D01*
X0220847Y0185240D01*
X0220616Y0184379D01*
X0220500Y0183496D01*
X0220500Y0183234D01*
X0227116Y0183234D01*
X0227116Y0182866D01*
X0227484Y0182866D01*
X0227484Y0176250D01*
X0227746Y0176250D01*
X0228629Y0176366D01*
X0229490Y0176597D01*
X0230314Y0176938D01*
X0231086Y0177384D01*
X0231793Y0177927D01*
X0232423Y0178557D01*
X0232966Y0179264D01*
X0233412Y0180036D01*
X0233753Y0180860D01*
X0233984Y0181721D01*
X0234100Y0182604D01*
X0234100Y0182866D01*
X0227484Y0182866D01*
X0227484Y0183234D01*
X0234100Y0183234D01*
X0234100Y0183496D01*
X0233984Y0184379D01*
X0233753Y0185240D01*
X0233412Y0186064D01*
X0232966Y0186836D01*
X0232423Y0187543D01*
X0231793Y0188173D01*
X0231086Y0188716D01*
X0230314Y0189162D01*
X0229490Y0189503D01*
X0228629Y0189734D01*
X0227746Y0189850D01*
X0227484Y0189850D01*
X0227484Y0183234D01*
X0227116Y0183234D01*
X0227116Y0189850D01*
X0226854Y0189850D01*
X0225971Y0189734D01*
X0225110Y0189503D01*
X0224286Y0189162D01*
X0223514Y0188716D01*
X0221934Y0187227D02*
X0057022Y0187227D01*
X0057809Y0185629D02*
X0221008Y0185629D01*
X0220570Y0184030D02*
X0058300Y0184030D01*
X0058300Y0182432D02*
X0220523Y0182432D01*
X0220500Y0182604D02*
X0220616Y0181721D01*
X0220847Y0180860D01*
X0221188Y0180036D01*
X0221634Y0179264D01*
X0222177Y0178557D01*
X0222807Y0177927D01*
X0223514Y0177384D01*
X0224286Y0176938D01*
X0225110Y0176597D01*
X0225971Y0176366D01*
X0226854Y0176250D01*
X0227116Y0176250D01*
X0227116Y0182866D01*
X0220500Y0182866D01*
X0220500Y0182604D01*
X0220858Y0180833D02*
X0059174Y0180833D01*
X0060432Y0179235D02*
X0221656Y0179235D01*
X0223185Y0177636D02*
X0060800Y0177636D01*
X0060800Y0176038D02*
X0274500Y0176038D01*
X0274500Y0177636D02*
X0231415Y0177636D01*
X0232944Y0179235D02*
X0274500Y0179235D01*
X0274500Y0180833D02*
X0233742Y0180833D01*
X0234077Y0182432D02*
X0274500Y0182432D01*
X0274500Y0184030D02*
X0234030Y0184030D01*
X0233592Y0185629D02*
X0274500Y0185629D01*
X0274500Y0187227D02*
X0232666Y0187227D01*
X0230896Y0188826D02*
X0274500Y0188826D01*
X0274500Y0190424D02*
X0263275Y0190424D01*
X0264225Y0190770D02*
X0264225Y0190770D01*
X0266845Y0192969D01*
X0268556Y0195931D01*
X0269150Y0199300D01*
X0268556Y0202669D01*
X0266845Y0205631D01*
X0266845Y0205631D01*
X0264225Y0207830D01*
X0264225Y0207830D01*
X0261010Y0209000D01*
X0257590Y0209000D01*
X0254375Y0207830D01*
X0251755Y0205631D01*
X0250044Y0202669D01*
X0250044Y0202669D01*
X0249450Y0199300D01*
X0250044Y0195931D01*
X0251755Y0192969D01*
X0254375Y0190770D01*
X0254375Y0190770D01*
X0257590Y0189600D01*
X0259777Y0189600D01*
X0261010Y0189600D01*
X0261010Y0189600D01*
X0264225Y0190770D01*
X0265718Y0192023D02*
X0274500Y0192023D01*
X0274500Y0193621D02*
X0267222Y0193621D01*
X0266845Y0192969D02*
X0266845Y0192969D01*
X0266845Y0192969D01*
X0268145Y0195220D02*
X0274500Y0195220D01*
X0274500Y0196818D02*
X0268712Y0196818D01*
X0268556Y0195931D02*
X0268556Y0195931D01*
X0268994Y0198417D02*
X0274500Y0198417D01*
X0274500Y0200015D02*
X0269023Y0200015D01*
X0269150Y0199300D02*
X0269150Y0199300D01*
X0268742Y0201614D02*
X0274500Y0201614D01*
X0274500Y0203212D02*
X0268242Y0203212D01*
X0268556Y0202669D02*
X0268556Y0202669D01*
X0267319Y0204811D02*
X0274500Y0204811D01*
X0274500Y0206409D02*
X0265918Y0206409D01*
X0263736Y0208008D02*
X0274500Y0208008D01*
X0274500Y0209606D02*
X0004100Y0209606D01*
X0004100Y0208008D02*
X0014864Y0208008D01*
X0014375Y0207830D02*
X0011755Y0205631D01*
X0011755Y0205631D01*
X0010044Y0202669D01*
X0009450Y0199300D01*
X0010044Y0195931D01*
X0011755Y0192969D01*
X0014375Y0190770D01*
X0014375Y0190770D01*
X0017590Y0189600D01*
X0018823Y0189600D01*
X0021010Y0189600D01*
X0024225Y0190770D01*
X0026845Y0192969D01*
X0028556Y0195931D01*
X0029150Y0199300D01*
X0028556Y0202669D01*
X0026845Y0205631D01*
X0026845Y0205631D01*
X0024225Y0207830D01*
X0024225Y0207830D01*
X0021010Y0209000D01*
X0017590Y0209000D01*
X0014375Y0207830D01*
X0014375Y0207830D01*
X0012682Y0206409D02*
X0004100Y0206409D01*
X0004100Y0204811D02*
X0011281Y0204811D01*
X0010358Y0203212D02*
X0004100Y0203212D01*
X0004100Y0201614D02*
X0009858Y0201614D01*
X0009577Y0200015D02*
X0004100Y0200015D01*
X0004100Y0198417D02*
X0009606Y0198417D01*
X0009450Y0199300D02*
X0009450Y0199300D01*
X0009888Y0196818D02*
X0004100Y0196818D01*
X0004100Y0195220D02*
X0010455Y0195220D01*
X0010044Y0195931D02*
X0010044Y0195931D01*
X0011378Y0193621D02*
X0004100Y0193621D01*
X0004100Y0192023D02*
X0012882Y0192023D01*
X0011755Y0192969D02*
X0011755Y0192969D01*
X0015325Y0190424D02*
X0004100Y0190424D01*
X0023275Y0190424D02*
X0255325Y0190424D01*
X0252882Y0192023D02*
X0025718Y0192023D01*
X0026845Y0192969D02*
X0026845Y0192969D01*
X0026845Y0192969D01*
X0027222Y0193621D02*
X0251378Y0193621D01*
X0251755Y0192969D02*
X0251755Y0192969D01*
X0250455Y0195220D02*
X0028145Y0195220D01*
X0028556Y0195931D02*
X0028556Y0195931D01*
X0028712Y0196818D02*
X0249888Y0196818D01*
X0250044Y0195931D02*
X0250044Y0195931D01*
X0249606Y0198417D02*
X0028994Y0198417D01*
X0029150Y0199300D02*
X0029150Y0199300D01*
X0029023Y0200015D02*
X0249577Y0200015D01*
X0249450Y0199300D02*
X0249450Y0199300D01*
X0249858Y0201614D02*
X0028742Y0201614D01*
X0028556Y0202669D02*
X0028556Y0202669D01*
X0028242Y0203212D02*
X0250358Y0203212D01*
X0251281Y0204811D02*
X0027319Y0204811D01*
X0025918Y0206409D02*
X0252682Y0206409D01*
X0251755Y0205631D02*
X0251755Y0205631D01*
X0251755Y0205631D01*
X0254375Y0207830D02*
X0254375Y0207830D01*
X0254864Y0208008D02*
X0023736Y0208008D01*
X0004100Y0211205D02*
X0274500Y0211205D01*
X0274500Y0212803D02*
X0004100Y0212803D01*
X0004100Y0214402D02*
X0274500Y0214402D01*
X0227484Y0188826D02*
X0227116Y0188826D01*
X0227116Y0187227D02*
X0227484Y0187227D01*
X0227484Y0185629D02*
X0227116Y0185629D01*
X0227116Y0184030D02*
X0227484Y0184030D01*
X0227484Y0182432D02*
X0227116Y0182432D01*
X0227116Y0180833D02*
X0227484Y0180833D01*
X0227484Y0179235D02*
X0227116Y0179235D01*
X0227116Y0177636D02*
X0227484Y0177636D01*
X0238682Y0169644D02*
X0060800Y0169644D01*
X0060800Y0171242D02*
X0239921Y0171242D01*
X0239870Y0153659D02*
X0233444Y0153659D01*
X0231846Y0152060D02*
X0241907Y0152060D01*
X0239448Y0150462D02*
X0230247Y0150462D01*
X0219615Y0136075D02*
X0198391Y0136075D01*
X0198806Y0134476D02*
X0218017Y0134476D01*
X0216418Y0132878D02*
X0198537Y0132878D01*
X0197425Y0131279D02*
X0214820Y0131279D01*
X0213221Y0129681D02*
X0197425Y0129681D01*
X0197127Y0128082D02*
X0211623Y0128082D01*
X0210024Y0126484D02*
X0201980Y0126484D01*
X0203000Y0124885D02*
X0208426Y0124885D01*
X0206827Y0123287D02*
X0203181Y0123287D01*
X0202678Y0121688D02*
X0205229Y0121688D01*
X0203630Y0120090D02*
X0200786Y0120090D01*
X0202032Y0118491D02*
X0191606Y0118491D01*
X0191606Y0116893D02*
X0200433Y0116893D01*
X0198835Y0115294D02*
X0191606Y0115294D01*
X0191606Y0113696D02*
X0197236Y0113696D01*
X0198381Y0110881D02*
X0187244Y0110881D01*
X0187244Y0108322D02*
X0208322Y0108322D01*
X0224300Y0124300D01*
X0246175Y0124300D01*
X0240314Y0120090D02*
X0224050Y0120090D01*
X0219254Y0115294D02*
X0232940Y0115294D01*
X0232136Y0113696D02*
X0217656Y0113696D01*
X0216057Y0112097D02*
X0231989Y0112097D01*
X0232399Y0110499D02*
X0214459Y0110499D01*
X0212860Y0108900D02*
X0233574Y0108900D01*
X0237061Y0107302D02*
X0211262Y0107302D01*
X0209317Y0105703D02*
X0238298Y0105703D01*
X0239534Y0104105D02*
X0192194Y0104105D01*
X0192425Y0102506D02*
X0240250Y0102506D01*
X0240250Y0100908D02*
X0192425Y0100908D01*
X0194042Y0099309D02*
X0195001Y0099309D01*
X0195001Y0099678D02*
X0195001Y0095405D01*
X0198880Y0095405D01*
X0198880Y0098115D01*
X0198758Y0098573D01*
X0198521Y0098983D01*
X0198186Y0099318D01*
X0197775Y0099555D01*
X0197317Y0099678D01*
X0195001Y0099678D01*
X0195001Y0097711D02*
X0194042Y0097711D01*
X0194042Y0096112D02*
X0195001Y0096112D01*
X0195001Y0094514D02*
X0232876Y0094514D01*
X0235111Y0096112D02*
X0198880Y0096112D01*
X0198880Y0097711D02*
X0240250Y0097711D01*
X0240250Y0099309D02*
X0198195Y0099309D01*
X0198880Y0092915D02*
X0213955Y0092915D01*
X0212357Y0091317D02*
X0198768Y0091317D01*
X0195001Y0091317D02*
X0194042Y0091317D01*
X0194042Y0092915D02*
X0195001Y0092915D01*
X0192004Y0089718D02*
X0210758Y0089718D01*
X0211175Y0086175D02*
X0187425Y0086175D01*
X0186800Y0086800D01*
X0189925Y0083324D02*
X0232489Y0083324D01*
X0230891Y0081726D02*
X0189582Y0081726D01*
X0188841Y0080931D02*
X0188841Y0080931D01*
X0188038Y0080127D02*
X0221246Y0080127D01*
X0220875Y0078529D02*
X0186439Y0078529D01*
X0184841Y0076930D02*
X0220875Y0076930D01*
X0218919Y0075332D02*
X0183242Y0075332D01*
X0182044Y0074134D02*
X0182044Y0074134D01*
X0181644Y0073733D02*
X0218919Y0073733D01*
X0218919Y0072134D02*
X0050931Y0072134D01*
X0050931Y0070536D02*
X0218919Y0070536D01*
X0219600Y0068937D02*
X0050931Y0068937D01*
X0050527Y0067339D02*
X0151225Y0067339D01*
X0150437Y0065740D02*
X0050931Y0065740D01*
X0046175Y0062863D02*
X0136987Y0062863D01*
X0147425Y0052425D01*
X0147425Y0051800D01*
X0148050Y0052425D01*
X0236175Y0052425D01*
X0238050Y0054300D01*
X0238050Y0064738D01*
X0242806Y0064142D02*
X0247669Y0064142D01*
X0247669Y0065740D02*
X0242806Y0065740D01*
X0242806Y0067339D02*
X0247669Y0067339D01*
X0248350Y0068937D02*
X0242125Y0068937D01*
X0242806Y0070536D02*
X0247669Y0070536D01*
X0247669Y0072134D02*
X0242806Y0072134D01*
X0242806Y0073733D02*
X0247669Y0073733D01*
X0247669Y0075332D02*
X0242806Y0075332D01*
X0242765Y0076930D02*
X0253124Y0076930D01*
X0254962Y0078529D02*
X0244363Y0078529D01*
X0245962Y0080127D02*
X0256800Y0080127D01*
X0258638Y0081726D02*
X0251402Y0081726D01*
X0253000Y0083324D02*
X0260477Y0083324D01*
X0262315Y0084923D02*
X0254599Y0084923D01*
X0256197Y0086521D02*
X0264000Y0086521D01*
X0264000Y0088120D02*
X0260423Y0088120D01*
X0261617Y0089718D02*
X0264000Y0089718D01*
X0264000Y0091317D02*
X0262040Y0091317D01*
X0261907Y0092915D02*
X0264000Y0092915D01*
X0264000Y0094514D02*
X0261122Y0094514D01*
X0258820Y0096112D02*
X0264000Y0096112D01*
X0264000Y0097711D02*
X0245850Y0097711D01*
X0245850Y0099309D02*
X0264000Y0099309D01*
X0264000Y0100908D02*
X0245850Y0100908D01*
X0245850Y0102506D02*
X0264000Y0102506D01*
X0264000Y0104105D02*
X0245869Y0104105D01*
X0245431Y0105703D02*
X0262680Y0105703D01*
X0260475Y0107302D02*
X0244141Y0107302D01*
X0242904Y0108900D02*
X0254247Y0108900D01*
X0253100Y0110499D02*
X0241668Y0110499D01*
X0241304Y0112097D02*
X0252709Y0112097D01*
X0252876Y0113696D02*
X0241157Y0113696D01*
X0240353Y0115294D02*
X0253708Y0115294D01*
X0257367Y0112367D02*
X0259983Y0111117D01*
X0266800Y0106175D01*
X0266800Y0085112D01*
X0252425Y0072612D01*
X0248767Y0083050D02*
X0244925Y0083050D01*
X0238050Y0076175D01*
X0238050Y0072612D01*
X0233294Y0072134D02*
X0228431Y0072134D01*
X0228431Y0070536D02*
X0233294Y0070536D01*
X0233975Y0068937D02*
X0227750Y0068937D01*
X0228431Y0067339D02*
X0233294Y0067339D01*
X0233294Y0065740D02*
X0228431Y0065740D01*
X0228431Y0064142D02*
X0233294Y0064142D01*
X0233294Y0062543D02*
X0228431Y0062543D01*
X0227632Y0060945D02*
X0234093Y0060945D01*
X0235250Y0059346D02*
X0144463Y0059346D01*
X0146062Y0057748D02*
X0235250Y0057748D01*
X0235250Y0056149D02*
X0147660Y0056149D01*
X0147425Y0051800D02*
X0147425Y0042469D01*
X0147381Y0042425D01*
X0143609Y0041763D02*
X0141881Y0041763D01*
X0141990Y0041700D02*
X0141579Y0041937D01*
X0141122Y0042060D01*
X0139113Y0042060D01*
X0137104Y0042060D01*
X0136647Y0041937D01*
X0136236Y0041700D01*
X0135901Y0041365D01*
X0135664Y0040954D01*
X0135541Y0040497D01*
X0135541Y0038685D01*
X0139113Y0038685D01*
X0139113Y0038685D01*
X0139113Y0042060D01*
X0139113Y0038685D01*
X0142685Y0038685D01*
X0142685Y0040497D01*
X0142562Y0040954D01*
X0142325Y0041365D01*
X0141990Y0041700D01*
X0141713Y0042590D02*
X0142885Y0043762D01*
X0142885Y0048568D01*
X0141713Y0049740D01*
X0136513Y0049740D01*
X0135738Y0048965D01*
X0131233Y0048965D01*
X0130204Y0048539D01*
X0125839Y0044174D01*
X0125051Y0043386D01*
X0124625Y0042357D01*
X0124625Y0038431D01*
X0124618Y0038431D01*
X0123675Y0037488D01*
X0122732Y0038431D01*
X0116744Y0038431D01*
X0115573Y0037259D01*
X0115573Y0030091D01*
X0116744Y0028919D01*
X0117238Y0028919D01*
X0117238Y0028043D01*
X0117216Y0027981D01*
X0117238Y0027548D01*
X0117238Y0027115D01*
X0117263Y0027054D01*
X0117267Y0026988D01*
X0117453Y0026596D01*
X0117619Y0026196D01*
X0117665Y0026149D01*
X0117694Y0026090D01*
X0118015Y0025799D01*
X0118322Y0025493D01*
X0118383Y0025467D01*
X0122294Y0021936D01*
X0122294Y0021028D01*
X0122885Y0019602D01*
X0123977Y0018510D01*
X0125403Y0017919D01*
X0126947Y0017919D01*
X0128373Y0018510D01*
X0129465Y0019602D01*
X0130056Y0021028D01*
X0130056Y0022572D01*
X0129465Y0023998D01*
X0128373Y0025090D01*
X0126947Y0025681D01*
X0125607Y0025681D01*
X0122238Y0028723D01*
X0122238Y0028919D01*
X0122732Y0028919D01*
X0123675Y0029862D01*
X0124618Y0028919D01*
X0130606Y0028919D01*
X0131777Y0030091D01*
X0131777Y0037259D01*
X0130606Y0038431D01*
X0130225Y0038431D01*
X0130225Y0040640D01*
X0132950Y0043365D01*
X0135738Y0043365D01*
X0136513Y0042590D01*
X0141713Y0042590D01*
X0142484Y0043361D02*
X0143609Y0043361D01*
X0143741Y0044960D02*
X0142885Y0044960D01*
X0142885Y0046558D02*
X0144625Y0046558D01*
X0144625Y0048157D02*
X0142885Y0048157D01*
X0144625Y0049755D02*
X0123369Y0049755D01*
X0123840Y0050227D02*
X0124431Y0051653D01*
X0124431Y0053197D01*
X0123840Y0054623D01*
X0122748Y0055715D01*
X0121322Y0056306D01*
X0119778Y0056306D01*
X0118352Y0055715D01*
X0117260Y0054623D01*
X0116669Y0053197D01*
X0116669Y0052504D01*
X0110015Y0045850D01*
X0109506Y0045850D01*
X0109356Y0046000D01*
X0104156Y0046000D01*
X0102984Y0044828D01*
X0102984Y0040022D01*
X0104000Y0039006D01*
X0104000Y0027335D01*
X0102515Y0025850D01*
X0043585Y0025850D01*
X0023975Y0045460D01*
X0023975Y0058698D01*
X0024759Y0058698D01*
X0025931Y0059869D01*
X0025931Y0065857D01*
X0024988Y0066800D01*
X0025931Y0067743D01*
X0025931Y0073731D01*
X0024759Y0074902D01*
X0023986Y0074902D01*
X0023986Y0087860D01*
X0025134Y0089008D01*
X0025843Y0090720D01*
X0025843Y0092573D01*
X0025134Y0094285D01*
X0023824Y0095595D01*
X0022112Y0096304D01*
X0020259Y0096304D01*
X0018548Y0095595D01*
X0017237Y0094285D01*
X0016528Y0092573D01*
X0016528Y0090720D01*
X0017237Y0089008D01*
X0018386Y0087860D01*
X0018386Y0074902D01*
X0017591Y0074902D01*
X0016419Y0073731D01*
X0016419Y0067743D01*
X0017362Y0066800D01*
X0016419Y0065857D01*
X0016419Y0059869D01*
X0017591Y0058698D01*
X0018375Y0058698D01*
X0018375Y0043743D01*
X0018801Y0042714D01*
X0040051Y0021464D01*
X0040839Y0020676D01*
X0041868Y0020250D01*
X0104232Y0020250D01*
X0105261Y0020676D01*
X0108386Y0023801D01*
X0109174Y0024589D01*
X0109600Y0025618D01*
X0109600Y0039094D01*
X0110527Y0040022D01*
X0110527Y0040250D01*
X0111732Y0040250D01*
X0112761Y0040676D01*
X0120629Y0048544D01*
X0121322Y0048544D01*
X0122748Y0049135D01*
X0123840Y0050227D01*
X0124307Y0051354D02*
X0144536Y0051354D01*
X0142938Y0052952D02*
X0124431Y0052952D01*
X0123870Y0054551D02*
X0141339Y0054551D01*
X0139741Y0056149D02*
X0121700Y0056149D01*
X0119400Y0056149D02*
X0088564Y0056149D01*
X0088840Y0055873D02*
X0087748Y0056965D01*
X0086322Y0057556D01*
X0084778Y0057556D01*
X0083352Y0056965D01*
X0082260Y0055873D01*
X0081669Y0054447D01*
X0081669Y0053329D01*
X0078322Y0049982D01*
X0077619Y0049279D01*
X0077238Y0048360D01*
X0077238Y0038431D01*
X0076744Y0038431D01*
X0075573Y0037259D01*
X0075573Y0030091D01*
X0076744Y0028919D01*
X0082732Y0028919D01*
X0083675Y0029862D01*
X0084618Y0028919D01*
X0090606Y0028919D01*
X0091777Y0030091D01*
X0091777Y0037259D01*
X0090606Y0038431D01*
X0090225Y0038431D01*
X0090225Y0042515D01*
X0091075Y0043365D01*
X0095113Y0043365D01*
X0095888Y0042590D01*
X0101088Y0042590D01*
X0102260Y0043762D01*
X0102260Y0048568D01*
X0101088Y0049740D01*
X0095888Y0049740D01*
X0095113Y0048965D01*
X0089358Y0048965D01*
X0088329Y0048539D01*
X0085839Y0046049D01*
X0085051Y0045261D01*
X0084625Y0044232D01*
X0084625Y0038431D01*
X0084618Y0038431D01*
X0083675Y0037488D01*
X0082732Y0038431D01*
X0082238Y0038431D01*
X0082238Y0046827D01*
X0085204Y0049794D01*
X0086322Y0049794D01*
X0087748Y0050385D01*
X0088840Y0051477D01*
X0089431Y0052903D01*
X0089431Y0054447D01*
X0088840Y0055873D01*
X0089388Y0054551D02*
X0117230Y0054551D01*
X0116669Y0052952D02*
X0089431Y0052952D01*
X0088718Y0051354D02*
X0115519Y0051354D01*
X0113921Y0049755D02*
X0085166Y0049755D01*
X0083567Y0048157D02*
X0087947Y0048157D01*
X0086349Y0046558D02*
X0082238Y0046558D01*
X0082238Y0044960D02*
X0084926Y0044960D01*
X0084625Y0043361D02*
X0082238Y0043361D01*
X0082238Y0041763D02*
X0084625Y0041763D01*
X0084625Y0040164D02*
X0082238Y0040164D01*
X0082238Y0038566D02*
X0084625Y0038566D01*
X0087425Y0033862D02*
X0087612Y0033675D01*
X0087425Y0033862D02*
X0087425Y0043675D01*
X0089915Y0046165D01*
X0098488Y0046165D01*
X0102260Y0046558D02*
X0110724Y0046558D01*
X0112322Y0048157D02*
X0102260Y0048157D01*
X0102260Y0044960D02*
X0103116Y0044960D01*
X0102984Y0043361D02*
X0101859Y0043361D01*
X0100954Y0041937D02*
X0100497Y0042060D01*
X0098488Y0042060D01*
X0096479Y0042060D01*
X0096022Y0041937D01*
X0095611Y0041700D01*
X0095276Y0041365D01*
X0095039Y0040954D01*
X0094916Y0040497D01*
X0094916Y0038685D01*
X0098488Y0038685D01*
X0098488Y0038685D01*
X0098488Y0042060D01*
X0098488Y0038685D01*
X0102060Y0038685D01*
X0102060Y0040497D01*
X0101937Y0040954D01*
X0101700Y0041365D01*
X0101365Y0041700D01*
X0100954Y0041937D01*
X0101256Y0041763D02*
X0102984Y0041763D01*
X0102984Y0040164D02*
X0102060Y0040164D01*
X0102060Y0038685D02*
X0098488Y0038685D01*
X0098488Y0038685D01*
X0098488Y0038685D01*
X0094916Y0038685D01*
X0094916Y0036873D01*
X0095039Y0036415D01*
X0095276Y0036005D01*
X0095611Y0035670D01*
X0096022Y0035433D01*
X0096479Y0035310D01*
X0098488Y0035310D01*
X0100497Y0035310D01*
X0100954Y0035433D01*
X0101365Y0035670D01*
X0101700Y0036005D01*
X0101937Y0036415D01*
X0102060Y0036873D01*
X0102060Y0038685D01*
X0102060Y0038566D02*
X0104000Y0038566D01*
X0104000Y0036967D02*
X0102060Y0036967D01*
X0100716Y0035369D02*
X0104000Y0035369D01*
X0104000Y0033770D02*
X0091777Y0033770D01*
X0091777Y0032172D02*
X0104000Y0032172D01*
X0104000Y0030573D02*
X0091777Y0030573D01*
X0090661Y0028975D02*
X0104000Y0028975D01*
X0104000Y0027376D02*
X0042059Y0027376D01*
X0040460Y0028975D02*
X0076689Y0028975D01*
X0075573Y0030573D02*
X0038862Y0030573D01*
X0037263Y0032172D02*
X0075573Y0032172D01*
X0075573Y0033770D02*
X0035665Y0033770D01*
X0034066Y0035369D02*
X0075573Y0035369D01*
X0075573Y0036967D02*
X0048292Y0036967D01*
X0050179Y0038566D02*
X0077238Y0038566D01*
X0077238Y0040164D02*
X0050681Y0040164D01*
X0050499Y0041763D02*
X0077238Y0041763D01*
X0077238Y0043361D02*
X0049477Y0043361D01*
X0046350Y0044960D02*
X0077238Y0044960D01*
X0077238Y0046558D02*
X0044751Y0046558D01*
X0043153Y0048157D02*
X0077238Y0048157D01*
X0078095Y0049755D02*
X0041554Y0049755D01*
X0039956Y0051354D02*
X0079693Y0051354D01*
X0081292Y0052952D02*
X0038357Y0052952D01*
X0037100Y0054551D02*
X0081712Y0054551D01*
X0082536Y0056149D02*
X0037100Y0056149D01*
X0037100Y0057748D02*
X0138142Y0057748D01*
X0136544Y0059346D02*
X0050408Y0059346D01*
X0041942Y0059346D02*
X0038533Y0059346D01*
X0039056Y0060945D02*
X0041419Y0060945D01*
X0041419Y0062543D02*
X0039056Y0062543D01*
X0039056Y0064142D02*
X0041419Y0064142D01*
X0041419Y0065740D02*
X0039056Y0065740D01*
X0038652Y0067339D02*
X0041823Y0067339D01*
X0041419Y0068937D02*
X0039056Y0068937D01*
X0039056Y0070536D02*
X0041419Y0070536D01*
X0041419Y0072134D02*
X0039056Y0072134D01*
X0039054Y0073733D02*
X0041421Y0073733D01*
X0042434Y0075332D02*
X0037100Y0075332D01*
X0037018Y0076930D02*
X0040835Y0076930D01*
X0039237Y0078529D02*
X0035906Y0078529D01*
X0034308Y0080127D02*
X0037638Y0080127D01*
X0036040Y0081726D02*
X0032709Y0081726D01*
X0032100Y0083324D02*
X0034441Y0083324D01*
X0032843Y0084923D02*
X0032100Y0084923D01*
X0029300Y0081175D02*
X0034300Y0076175D01*
X0034300Y0070737D01*
X0029544Y0070536D02*
X0025931Y0070536D01*
X0025931Y0072134D02*
X0029544Y0072134D01*
X0029546Y0073733D02*
X0025929Y0073733D01*
X0023986Y0075332D02*
X0031184Y0075332D01*
X0029585Y0076930D02*
X0023986Y0076930D01*
X0023986Y0078529D02*
X0027987Y0078529D01*
X0026703Y0080127D02*
X0023986Y0080127D01*
X0023986Y0081726D02*
X0026500Y0081726D01*
X0026500Y0083324D02*
X0023986Y0083324D01*
X0023986Y0084923D02*
X0026500Y0084923D01*
X0026500Y0086521D02*
X0023986Y0086521D01*
X0024246Y0088120D02*
X0026500Y0088120D01*
X0026500Y0089718D02*
X0025428Y0089718D01*
X0025843Y0091317D02*
X0026500Y0091317D01*
X0026500Y0092915D02*
X0025702Y0092915D01*
X0024905Y0094514D02*
X0026500Y0094514D01*
X0026500Y0096112D02*
X0022575Y0096112D01*
X0019796Y0096112D02*
X0004100Y0096112D01*
X0004100Y0094514D02*
X0017466Y0094514D01*
X0016670Y0092915D02*
X0004100Y0092915D01*
X0004100Y0091317D02*
X0016528Y0091317D01*
X0016943Y0089718D02*
X0004100Y0089718D01*
X0004100Y0088120D02*
X0018126Y0088120D01*
X0018386Y0086521D02*
X0004100Y0086521D01*
X0004100Y0084923D02*
X0018386Y0084923D01*
X0018386Y0083324D02*
X0004100Y0083324D01*
X0004100Y0081726D02*
X0018386Y0081726D01*
X0018386Y0080127D02*
X0004100Y0080127D01*
X0004100Y0078529D02*
X0018386Y0078529D01*
X0018386Y0076930D02*
X0004100Y0076930D01*
X0004100Y0075332D02*
X0018386Y0075332D01*
X0016421Y0073733D02*
X0004100Y0073733D01*
X0004100Y0072134D02*
X0016419Y0072134D01*
X0016419Y0070536D02*
X0004100Y0070536D01*
X0004100Y0068937D02*
X0016419Y0068937D01*
X0016823Y0067339D02*
X0004100Y0067339D01*
X0004100Y0065740D02*
X0016419Y0065740D01*
X0016419Y0064142D02*
X0004100Y0064142D01*
X0004100Y0062543D02*
X0016419Y0062543D01*
X0016419Y0060945D02*
X0004100Y0060945D01*
X0004100Y0059346D02*
X0016942Y0059346D01*
X0018375Y0057748D02*
X0004100Y0057748D01*
X0004100Y0056149D02*
X0018375Y0056149D01*
X0018375Y0054551D02*
X0004100Y0054551D01*
X0004100Y0052952D02*
X0018375Y0052952D01*
X0018375Y0051354D02*
X0004100Y0051354D01*
X0004100Y0049755D02*
X0018375Y0049755D01*
X0018375Y0048157D02*
X0004100Y0048157D01*
X0004100Y0046558D02*
X0018375Y0046558D01*
X0018375Y0044960D02*
X0004100Y0044960D01*
X0004100Y0043361D02*
X0018533Y0043361D01*
X0019752Y0041763D02*
X0004100Y0041763D01*
X0004100Y0040164D02*
X0021351Y0040164D01*
X0022949Y0038566D02*
X0004100Y0038566D01*
X0004100Y0036967D02*
X0024548Y0036967D01*
X0026146Y0035369D02*
X0004100Y0035369D01*
X0004100Y0033770D02*
X0027745Y0033770D01*
X0029343Y0032172D02*
X0004100Y0032172D01*
X0004100Y0030573D02*
X0030942Y0030573D01*
X0032541Y0028975D02*
X0021080Y0028975D01*
X0021010Y0029000D02*
X0017590Y0029000D01*
X0014375Y0027830D01*
X0011755Y0025631D01*
X0010044Y0022669D01*
X0010044Y0022669D01*
X0009450Y0019300D01*
X0010044Y0015931D01*
X0011755Y0012969D01*
X0014375Y0010770D01*
X0014375Y0010770D01*
X0017590Y0009600D01*
X0019777Y0009600D01*
X0021010Y0009600D01*
X0021010Y0009600D01*
X0024225Y0010770D01*
X0026845Y0012969D01*
X0028556Y0015931D01*
X0029150Y0019300D01*
X0028556Y0022669D01*
X0026845Y0025631D01*
X0026845Y0025631D01*
X0024225Y0027830D01*
X0024225Y0027830D01*
X0021010Y0029000D01*
X0017520Y0028975D02*
X0004100Y0028975D01*
X0004100Y0027376D02*
X0013834Y0027376D01*
X0014375Y0027830D02*
X0014375Y0027830D01*
X0011929Y0025778D02*
X0004100Y0025778D01*
X0004100Y0024179D02*
X0010916Y0024179D01*
X0011755Y0025631D02*
X0011755Y0025631D01*
X0011755Y0025631D01*
X0010029Y0022581D02*
X0004100Y0022581D01*
X0004100Y0020982D02*
X0009747Y0020982D01*
X0009465Y0019384D02*
X0004100Y0019384D01*
X0004100Y0017785D02*
X0009717Y0017785D01*
X0009450Y0019300D02*
X0009450Y0019300D01*
X0009999Y0016187D02*
X0004100Y0016187D01*
X0004100Y0014588D02*
X0010820Y0014588D01*
X0010044Y0015931D02*
X0010044Y0015931D01*
X0011743Y0012990D02*
X0004100Y0012990D01*
X0004100Y0011391D02*
X0013635Y0011391D01*
X0011755Y0012969D02*
X0011755Y0012969D01*
X0017061Y0009793D02*
X0004100Y0009793D01*
X0021539Y0009793D02*
X0257061Y0009793D01*
X0253635Y0011391D02*
X0024965Y0011391D01*
X0024225Y0010770D02*
X0024225Y0010770D01*
X0026845Y0012969D02*
X0026845Y0012969D01*
X0026845Y0012969D01*
X0026857Y0012990D02*
X0251743Y0012990D01*
X0251755Y0012969D02*
X0251755Y0012969D01*
X0250820Y0014588D02*
X0027780Y0014588D01*
X0028556Y0015931D02*
X0028556Y0015931D01*
X0028601Y0016187D02*
X0249999Y0016187D01*
X0250044Y0015931D02*
X0250044Y0015931D01*
X0249717Y0017785D02*
X0028883Y0017785D01*
X0029150Y0019300D02*
X0029150Y0019300D01*
X0029135Y0019384D02*
X0123103Y0019384D01*
X0122313Y0020982D02*
X0105567Y0020982D01*
X0107165Y0022581D02*
X0121580Y0022581D01*
X0119810Y0024179D02*
X0108764Y0024179D01*
X0109600Y0025778D02*
X0118037Y0025778D01*
X0117238Y0027376D02*
X0109600Y0027376D01*
X0109600Y0028975D02*
X0116689Y0028975D01*
X0115573Y0030573D02*
X0109600Y0030573D01*
X0109600Y0032172D02*
X0115573Y0032172D01*
X0115573Y0033770D02*
X0109600Y0033770D01*
X0109600Y0035369D02*
X0115573Y0035369D01*
X0115573Y0036967D02*
X0109600Y0036967D01*
X0109600Y0038566D02*
X0124625Y0038566D01*
X0124625Y0040164D02*
X0110527Y0040164D01*
X0111175Y0043050D02*
X0107381Y0043050D01*
X0106756Y0042425D01*
X0106800Y0042381D01*
X0106800Y0026175D01*
X0103675Y0023050D01*
X0042425Y0023050D01*
X0021175Y0044300D01*
X0021175Y0062863D01*
X0025931Y0062543D02*
X0029544Y0062543D01*
X0029544Y0060945D02*
X0025931Y0060945D01*
X0025408Y0059346D02*
X0030067Y0059346D01*
X0031500Y0057748D02*
X0023975Y0057748D01*
X0023975Y0056149D02*
X0031500Y0056149D01*
X0031500Y0054551D02*
X0023975Y0054551D01*
X0023975Y0052952D02*
X0031500Y0052952D01*
X0032036Y0051354D02*
X0023975Y0051354D01*
X0023975Y0049755D02*
X0033635Y0049755D01*
X0035233Y0048157D02*
X0023975Y0048157D01*
X0023975Y0046558D02*
X0036832Y0046558D01*
X0038430Y0044960D02*
X0024475Y0044960D01*
X0026073Y0043361D02*
X0040029Y0043361D01*
X0041627Y0041763D02*
X0027672Y0041763D01*
X0029271Y0040164D02*
X0042919Y0040164D01*
X0043421Y0038566D02*
X0030869Y0038566D01*
X0032468Y0036967D02*
X0045308Y0036967D01*
X0046800Y0040550D02*
X0034300Y0053050D01*
X0034300Y0062863D01*
X0029544Y0064142D02*
X0025931Y0064142D01*
X0025931Y0065740D02*
X0029544Y0065740D01*
X0029948Y0067339D02*
X0025527Y0067339D01*
X0025931Y0068937D02*
X0029544Y0068937D01*
X0021186Y0070748D02*
X0021175Y0070737D01*
X0021186Y0070748D02*
X0021186Y0091646D01*
X0026500Y0097711D02*
X0004100Y0097711D01*
X0004100Y0099309D02*
X0026500Y0099309D01*
X0024376Y0100908D02*
X0004100Y0100908D01*
X0004100Y0102506D02*
X0021767Y0102506D01*
X0019234Y0104105D02*
X0004100Y0104105D01*
X0004100Y0105703D02*
X0018433Y0105703D01*
X0018433Y0107302D02*
X0004100Y0107302D01*
X0004100Y0108900D02*
X0018113Y0108900D01*
X0016966Y0110499D02*
X0004100Y0110499D01*
X0004100Y0112097D02*
X0016576Y0112097D01*
X0016742Y0113696D02*
X0004100Y0113696D01*
X0004100Y0115294D02*
X0017574Y0115294D01*
X0021233Y0112367D02*
X0021233Y0106117D01*
X0029300Y0101175D01*
X0029300Y0081175D01*
X0033675Y0088050D02*
X0046175Y0075550D01*
X0046175Y0070737D01*
X0047612Y0071800D01*
X0046175Y0071175D01*
X0038843Y0088120D02*
X0037565Y0088120D01*
X0037651Y0089718D02*
X0036475Y0089718D01*
X0036475Y0091317D02*
X0037229Y0091317D01*
X0037364Y0092915D02*
X0036475Y0092915D01*
X0036475Y0094514D02*
X0038151Y0094514D01*
X0036475Y0096112D02*
X0040459Y0096112D01*
X0033675Y0101175D02*
X0033675Y0088050D01*
X0033675Y0101175D02*
X0041934Y0105684D01*
X0041934Y0112383D01*
X0037673Y0110499D02*
X0025500Y0110499D01*
X0025891Y0112097D02*
X0037276Y0112097D01*
X0037437Y0113696D02*
X0025724Y0113696D01*
X0024892Y0115294D02*
X0038259Y0115294D01*
X0038830Y0108900D02*
X0024353Y0108900D01*
X0024659Y0107302D02*
X0039054Y0107302D01*
X0036126Y0105703D02*
X0027268Y0105703D01*
X0029878Y0104105D02*
X0033198Y0104105D01*
X0052800Y0126484D02*
X0004100Y0126484D01*
X0004100Y0128082D02*
X0052800Y0128082D01*
X0052800Y0129681D02*
X0004100Y0129681D01*
X0004100Y0131279D02*
X0052800Y0131279D01*
X0085668Y0115550D02*
X0085550Y0111918D01*
X0085550Y0108050D01*
X0084925Y0107425D01*
X0084925Y0102415D01*
X0087712Y0094935D02*
X0087712Y0094935D01*
X0087484Y0091317D02*
X0087484Y0091317D01*
X0120550Y0052425D02*
X0111175Y0043050D01*
X0113848Y0041763D02*
X0124625Y0041763D01*
X0125041Y0043361D02*
X0115446Y0043361D01*
X0117045Y0044960D02*
X0126625Y0044960D01*
X0128224Y0046558D02*
X0118643Y0046558D01*
X0120242Y0048157D02*
X0129822Y0048157D01*
X0131790Y0046165D02*
X0127425Y0041800D01*
X0127425Y0033862D01*
X0127612Y0033675D01*
X0128675Y0034738D01*
X0131777Y0035369D02*
X0136885Y0035369D01*
X0137104Y0035310D02*
X0139113Y0035310D01*
X0141122Y0035310D01*
X0141579Y0035433D01*
X0141990Y0035670D01*
X0142325Y0036005D01*
X0142562Y0036415D01*
X0142685Y0036873D01*
X0142685Y0038685D01*
X0139113Y0038685D01*
X0139113Y0038685D01*
X0139113Y0038685D01*
X0135541Y0038685D01*
X0135541Y0036873D01*
X0135664Y0036415D01*
X0135901Y0036005D01*
X0136236Y0035670D01*
X0136647Y0035433D01*
X0137104Y0035310D01*
X0139113Y0035310D02*
X0139113Y0038685D01*
X0139113Y0035310D01*
X0139113Y0035369D02*
X0139113Y0035369D01*
X0139113Y0036967D02*
X0139113Y0036967D01*
X0139113Y0038566D02*
X0139113Y0038566D01*
X0139113Y0038685D02*
X0139113Y0038685D01*
X0139113Y0040164D02*
X0139113Y0040164D01*
X0139113Y0041763D02*
X0139113Y0041763D01*
X0136345Y0041763D02*
X0131348Y0041763D01*
X0130225Y0040164D02*
X0135541Y0040164D01*
X0135541Y0038566D02*
X0130225Y0038566D01*
X0131777Y0036967D02*
X0135541Y0036967D01*
X0131777Y0033770D02*
X0156198Y0033770D01*
X0156198Y0032172D02*
X0131777Y0032172D01*
X0131777Y0030573D02*
X0156198Y0030573D01*
X0156198Y0030091D02*
X0157369Y0028919D01*
X0163357Y0028919D01*
X0164300Y0029862D01*
X0165243Y0028919D01*
X0171231Y0028919D01*
X0172402Y0030091D01*
X0172402Y0037259D01*
X0171231Y0038431D01*
X0170850Y0038431D01*
X0170850Y0040640D01*
X0172950Y0042740D01*
X0174488Y0042740D01*
X0175263Y0041965D01*
X0180463Y0041965D01*
X0181635Y0043137D01*
X0181635Y0047943D01*
X0180463Y0049115D01*
X0175263Y0049115D01*
X0174488Y0048340D01*
X0171233Y0048340D01*
X0170204Y0047914D01*
X0166464Y0044174D01*
X0165676Y0043386D01*
X0165250Y0042357D01*
X0165250Y0038431D01*
X0165243Y0038431D01*
X0164300Y0037488D01*
X0163357Y0038431D01*
X0163050Y0038431D01*
X0163050Y0042561D01*
X0163840Y0043352D01*
X0164431Y0044778D01*
X0164431Y0046322D01*
X0163840Y0047748D01*
X0162748Y0048840D01*
X0161322Y0049431D01*
X0159778Y0049431D01*
X0158352Y0048840D01*
X0157260Y0047748D01*
X0156669Y0046322D01*
X0156669Y0044778D01*
X0157260Y0043352D01*
X0158050Y0042561D01*
X0158050Y0038431D01*
X0157369Y0038431D01*
X0156198Y0037259D01*
X0156198Y0030091D01*
X0157314Y0028975D02*
X0130661Y0028975D01*
X0129285Y0024179D02*
X0183065Y0024179D01*
X0183375Y0025778D02*
X0125500Y0025778D01*
X0123730Y0027376D02*
X0183375Y0027376D01*
X0183375Y0028975D02*
X0171286Y0028975D01*
X0172402Y0030573D02*
X0183375Y0030573D01*
X0183375Y0032172D02*
X0172402Y0032172D01*
X0172402Y0033770D02*
X0183375Y0033770D01*
X0183375Y0035369D02*
X0181064Y0035369D01*
X0181075Y0035380D02*
X0181312Y0035790D01*
X0181435Y0036248D01*
X0181435Y0038060D01*
X0181435Y0039872D01*
X0181312Y0040329D01*
X0181075Y0040740D01*
X0180740Y0041075D01*
X0180329Y0041312D01*
X0179872Y0041435D01*
X0177863Y0041435D01*
X0175854Y0041435D01*
X0175397Y0041312D01*
X0174986Y0041075D01*
X0174651Y0040740D01*
X0174414Y0040329D01*
X0174291Y0039872D01*
X0174291Y0038060D01*
X0177863Y0038060D01*
X0177863Y0038060D01*
X0177863Y0041435D01*
X0177863Y0038060D01*
X0181435Y0038060D01*
X0177863Y0038060D01*
X0177863Y0038060D01*
X0177863Y0038060D01*
X0174291Y0038060D01*
X0174291Y0036248D01*
X0174414Y0035790D01*
X0174651Y0035380D01*
X0174986Y0035045D01*
X0175397Y0034808D01*
X0175854Y0034685D01*
X0177863Y0034685D01*
X0179872Y0034685D01*
X0180329Y0034808D01*
X0180740Y0035045D01*
X0181075Y0035380D01*
X0181435Y0036967D02*
X0183375Y0036967D01*
X0183190Y0038566D02*
X0181435Y0038566D01*
X0181356Y0040164D02*
X0182359Y0040164D01*
X0182359Y0041763D02*
X0171973Y0041763D01*
X0170850Y0040164D02*
X0174370Y0040164D01*
X0174291Y0038566D02*
X0170850Y0038566D01*
X0172402Y0036967D02*
X0174291Y0036967D01*
X0174662Y0035369D02*
X0172402Y0035369D01*
X0168237Y0033675D02*
X0168050Y0033862D01*
X0168050Y0041800D01*
X0171790Y0045540D01*
X0177863Y0045540D01*
X0181635Y0044960D02*
X0183116Y0044960D01*
X0182359Y0043361D02*
X0181635Y0043361D01*
X0186175Y0041756D02*
X0186175Y0021800D01*
X0189247Y0019384D02*
X0249465Y0019384D01*
X0249450Y0019300D02*
X0249450Y0019300D01*
X0249747Y0020982D02*
X0190037Y0020982D01*
X0190053Y0022581D02*
X0250029Y0022581D01*
X0250916Y0024179D02*
X0189285Y0024179D01*
X0188975Y0025778D02*
X0251929Y0025778D01*
X0251755Y0025631D02*
X0251755Y0025631D01*
X0251755Y0025631D01*
X0253834Y0027376D02*
X0188975Y0027376D01*
X0182297Y0022581D02*
X0130053Y0022581D01*
X0130037Y0020982D02*
X0182313Y0020982D01*
X0183103Y0019384D02*
X0129247Y0019384D01*
X0124563Y0028975D02*
X0122787Y0028975D01*
X0132946Y0043361D02*
X0135742Y0043361D01*
X0139113Y0046165D02*
X0131790Y0046165D01*
X0142685Y0040164D02*
X0143609Y0040164D01*
X0142685Y0038566D02*
X0158050Y0038566D01*
X0158050Y0040164D02*
X0151152Y0040164D01*
X0151152Y0041763D02*
X0158050Y0041763D01*
X0157256Y0043361D02*
X0151152Y0043361D01*
X0151021Y0044960D02*
X0156669Y0044960D01*
X0156767Y0046558D02*
X0150225Y0046558D01*
X0150225Y0048157D02*
X0157668Y0048157D01*
X0163432Y0048157D02*
X0170791Y0048157D01*
X0168849Y0046558D02*
X0164333Y0046558D01*
X0164431Y0044960D02*
X0167250Y0044960D01*
X0165666Y0043361D02*
X0163844Y0043361D01*
X0163050Y0041763D02*
X0165250Y0041763D01*
X0165250Y0040164D02*
X0163050Y0040164D01*
X0163050Y0038566D02*
X0165250Y0038566D01*
X0160550Y0033862D02*
X0160363Y0033675D01*
X0156198Y0035369D02*
X0141341Y0035369D01*
X0142685Y0036967D02*
X0156198Y0036967D01*
X0163412Y0028975D02*
X0165188Y0028975D01*
X0177863Y0034685D02*
X0177863Y0038060D01*
X0177863Y0034685D01*
X0177863Y0035369D02*
X0177863Y0035369D01*
X0177863Y0036967D02*
X0177863Y0036967D01*
X0177863Y0038060D02*
X0177863Y0038060D01*
X0177863Y0038566D02*
X0177863Y0038566D01*
X0177863Y0040164D02*
X0177863Y0040164D01*
X0181635Y0046558D02*
X0246974Y0046558D01*
X0248572Y0048157D02*
X0181421Y0048157D01*
X0189146Y0044960D02*
X0245375Y0044960D01*
X0250098Y0041763D02*
X0274500Y0041763D01*
X0274500Y0043361D02*
X0251696Y0043361D01*
X0253295Y0044960D02*
X0274500Y0044960D01*
X0274500Y0046558D02*
X0254838Y0046558D01*
X0254011Y0045676D02*
X0254011Y0045676D01*
X0255225Y0048157D02*
X0274500Y0048157D01*
X0274500Y0049755D02*
X0255225Y0049755D01*
X0255225Y0051354D02*
X0274500Y0051354D01*
X0274500Y0052952D02*
X0255225Y0052952D01*
X0255225Y0054551D02*
X0274500Y0054551D01*
X0274500Y0056149D02*
X0255225Y0056149D01*
X0255225Y0057748D02*
X0274500Y0057748D01*
X0274500Y0059346D02*
X0255225Y0059346D01*
X0256382Y0060945D02*
X0274500Y0060945D01*
X0274500Y0062543D02*
X0257181Y0062543D01*
X0249625Y0059346D02*
X0240850Y0059346D01*
X0240850Y0057748D02*
X0249625Y0057748D01*
X0249625Y0056149D02*
X0240850Y0056149D01*
X0240850Y0054551D02*
X0249625Y0054551D01*
X0249625Y0052952D02*
X0240522Y0052952D01*
X0239064Y0051354D02*
X0249625Y0051354D01*
X0249625Y0049755D02*
X0237047Y0049755D01*
X0248499Y0040164D02*
X0274500Y0040164D01*
X0254375Y0027830D02*
X0254375Y0027830D01*
X0248549Y0040214D02*
X0248549Y0040214D01*
X0248468Y0060945D02*
X0242007Y0060945D01*
X0242806Y0062543D02*
X0247669Y0062543D01*
X0233294Y0073733D02*
X0228431Y0073733D01*
X0228431Y0075332D02*
X0233294Y0075332D01*
X0234015Y0076930D02*
X0235332Y0076930D01*
X0235613Y0078529D02*
X0236444Y0078529D01*
X0237212Y0080127D02*
X0238042Y0080127D01*
X0238810Y0081726D02*
X0239641Y0081726D01*
X0240409Y0083324D02*
X0241239Y0083324D01*
X0242007Y0084923D02*
X0242838Y0084923D01*
X0243606Y0086521D02*
X0248278Y0086521D01*
X0249876Y0088120D02*
X0245204Y0088120D01*
X0245850Y0089718D02*
X0251475Y0089718D01*
X0252725Y0091317D02*
X0245850Y0091317D01*
X0245850Y0092915D02*
X0252859Y0092915D01*
X0253644Y0094514D02*
X0245850Y0094514D01*
X0245850Y0096112D02*
X0255946Y0096112D01*
X0257383Y0091666D02*
X0248767Y0083050D01*
X0243050Y0089925D02*
X0231800Y0078675D01*
X0223675Y0078675D01*
X0223675Y0072612D01*
X0223675Y0064738D02*
X0154487Y0064738D01*
X0154300Y0064925D01*
X0151193Y0062543D02*
X0141266Y0062543D01*
X0142865Y0060945D02*
X0219718Y0060945D01*
X0213882Y0084923D02*
X0234088Y0084923D01*
X0235686Y0086521D02*
X0215481Y0086521D01*
X0217079Y0088120D02*
X0233669Y0088120D01*
X0236662Y0091713D02*
X0216713Y0091713D01*
X0211175Y0086175D01*
X0238213Y0096112D02*
X0240250Y0096112D01*
X0243050Y0089925D02*
X0243050Y0104136D01*
X0236646Y0112414D01*
X0197814Y0120090D02*
X0191606Y0120090D01*
X0195644Y0126484D02*
X0196620Y0126484D01*
X0189703Y0148863D02*
X0185399Y0148863D01*
X0185368Y0150462D02*
X0191301Y0150462D01*
X0192900Y0152060D02*
X0184706Y0152060D01*
X0183978Y0153659D02*
X0194498Y0153659D01*
X0196097Y0155257D02*
X0182379Y0155257D01*
X0179521Y0156856D02*
X0197695Y0156856D01*
X0127950Y0152060D02*
X0127550Y0152060D01*
X0127550Y0150462D02*
X0127950Y0150462D01*
X0127950Y0148863D02*
X0127550Y0148863D01*
X0127550Y0147265D02*
X0127950Y0147265D01*
X0127950Y0145666D02*
X0127550Y0145666D01*
X0127550Y0144068D02*
X0127950Y0144068D01*
X0060800Y0172841D02*
X0274500Y0172841D01*
X0274500Y0174439D02*
X0060800Y0174439D01*
X0052800Y0174439D02*
X0039590Y0174439D01*
X0037672Y0172841D02*
X0052800Y0172841D01*
X0052800Y0171242D02*
X0035754Y0171242D01*
X0033836Y0169644D02*
X0052800Y0169644D01*
X0052800Y0168045D02*
X0031917Y0168045D01*
X0029999Y0166447D02*
X0052800Y0166447D01*
X0052800Y0164848D02*
X0028081Y0164848D01*
X0026163Y0163250D02*
X0052800Y0163250D01*
X0052800Y0161651D02*
X0024245Y0161651D01*
X0022326Y0160053D02*
X0052800Y0160053D01*
X0052655Y0176038D02*
X0041508Y0176038D01*
X0043427Y0177636D02*
X0046814Y0177636D01*
X0024225Y0190770D02*
X0024225Y0190770D01*
X0013761Y0137673D02*
X0013589Y0137673D01*
X0013589Y0136075D02*
X0013761Y0136075D01*
X0013761Y0134476D02*
X0013589Y0134476D01*
X0091071Y0043361D02*
X0095117Y0043361D01*
X0095720Y0041763D02*
X0090225Y0041763D01*
X0090225Y0040164D02*
X0094916Y0040164D01*
X0094916Y0038566D02*
X0090225Y0038566D01*
X0091777Y0036967D02*
X0094916Y0036967D01*
X0096260Y0035369D02*
X0091777Y0035369D01*
X0098488Y0035369D02*
X0098488Y0035369D01*
X0098488Y0035310D02*
X0098488Y0038685D01*
X0098488Y0038685D01*
X0098488Y0035310D01*
X0098488Y0036967D02*
X0098488Y0036967D01*
X0098488Y0038566D02*
X0098488Y0038566D01*
X0098488Y0040164D02*
X0098488Y0040164D01*
X0098488Y0041763D02*
X0098488Y0041763D01*
X0106756Y0042425D02*
X0106800Y0042469D01*
X0084563Y0028975D02*
X0082787Y0028975D01*
X0040533Y0020982D02*
X0028853Y0020982D01*
X0028571Y0022581D02*
X0038935Y0022581D01*
X0037336Y0024179D02*
X0027684Y0024179D01*
X0028556Y0022669D02*
X0028556Y0022669D01*
X0026671Y0025778D02*
X0035738Y0025778D01*
X0034139Y0027376D02*
X0024766Y0027376D01*
X0139668Y0064142D02*
X0150423Y0064142D01*
D28*
X0154300Y0064925D03*
X0141800Y0068675D03*
X0120550Y0052425D03*
X0085550Y0053675D03*
X0046800Y0040550D03*
X0082425Y0088675D03*
X0076800Y0104925D03*
X0056800Y0098675D03*
X0126175Y0112425D03*
X0141800Y0114925D03*
X0151800Y0123675D03*
X0159300Y0123675D03*
X0154300Y0112425D03*
X0153675Y0105550D03*
X0170550Y0105550D03*
X0145550Y0089300D03*
X0140550Y0089300D03*
X0135550Y0089300D03*
X0160550Y0045550D03*
X0186175Y0021800D03*
X0126175Y0021800D03*
X0205550Y0094925D03*
X0224300Y0104300D03*
X0199300Y0123675D03*
X0194925Y0134300D03*
D29*
X0218675Y0142425D03*
X0196175Y0173675D03*
X0170550Y0181800D03*
X0119300Y0190550D03*
X0083050Y0179925D03*
X0070550Y0149925D03*
X0077425Y0134925D03*
X0044300Y0131175D03*
X0010550Y0102425D03*
X0063675Y0044300D03*
X0086175Y0071175D03*
X0146175Y0026800D03*
X0113675Y0020550D03*
X0059300Y0013050D03*
X0013050Y0036800D03*
X0205550Y0076800D03*
X0243050Y0049300D03*
X0266175Y0048050D03*
X0222425Y0019300D03*
X0253050Y0101175D03*
X0269925Y0116800D03*
D30*
X0082366Y0094935D02*
X0082366Y0088818D01*
D31*
X0056800Y0098675D02*
X0056800Y0177550D01*
X0051300Y0183050D01*
X0043675Y0183050D01*
X0013675Y0158050D01*
M02*
