G75*
%MOIN*%
%OFA0B0*%
%FSLAX25Y25*%
%IPPOS*%
%LPD*%
%AMOC8*
5,1,8,0,0,1.08239X$1,22.5*
%
%ADD10C,0.10000*%
%ADD11OC8,0.06000*%
%ADD12C,0.06000*%
%ADD13C,0.06600*%
%ADD14C,0.05315*%
%ADD15C,0.03762*%
%ADD16C,0.01000*%
%ADD17C,0.05600*%
%ADD18C,0.01600*%
%ADD19C,0.02400*%
D10*
X0051300Y0183050D03*
X0227300Y0183050D03*
D11*
X0166800Y0138675D03*
D12*
X0156350Y0130400D02*
X0150350Y0130400D01*
X0130750Y0130400D02*
X0124750Y0130400D01*
X0124750Y0148200D02*
X0130750Y0148200D01*
X0150350Y0148200D02*
X0156350Y0148200D01*
X0243175Y0147425D02*
X0249175Y0147425D01*
X0249175Y0157425D02*
X0243175Y0157425D01*
X0243175Y0167425D02*
X0249175Y0167425D01*
X0249175Y0134300D02*
X0243175Y0134300D01*
X0243175Y0124300D02*
X0249175Y0124300D01*
D13*
X0013675Y0138050D03*
X0013675Y0148050D03*
X0013675Y0158050D03*
D14*
X0021233Y0112367D03*
X0041934Y0112383D03*
X0041887Y0091662D03*
X0021186Y0091646D03*
X0236662Y0091713D03*
X0257383Y0091666D03*
X0257367Y0112367D03*
X0236646Y0112414D03*
D15*
X0224300Y0104300D03*
X0205550Y0094925D03*
X0170550Y0105550D03*
X0153675Y0105550D03*
X0154300Y0112425D03*
X0151800Y0123675D03*
X0159300Y0123675D03*
X0141800Y0114925D03*
X0126175Y0112425D03*
X0135550Y0089300D03*
X0140550Y0089300D03*
X0145550Y0089300D03*
X0141800Y0068675D03*
X0154300Y0064925D03*
X0160550Y0045550D03*
X0186175Y0021800D03*
X0126175Y0021800D03*
X0120550Y0052425D03*
X0085550Y0053675D03*
X0046800Y0040550D03*
X0082425Y0088675D03*
X0076800Y0104925D03*
X0056800Y0098675D03*
X0194925Y0134300D03*
X0199300Y0123675D03*
D16*
X0213050Y0109925D01*
X0213050Y0029925D01*
X0178675Y0029925D01*
X0171175Y0021800D01*
X0126175Y0021800D01*
X0160550Y0045550D02*
X0165550Y0050550D01*
X0165550Y0080550D01*
X0159300Y0087425D01*
X0159300Y0123675D01*
X0154300Y0121175D02*
X0154300Y0112425D01*
X0154300Y0121175D02*
X0151800Y0123675D01*
X0141800Y0114925D02*
X0128050Y0114925D01*
X0126175Y0112425D01*
X0107425Y0133050D02*
X0107425Y0056800D01*
X0104300Y0053675D01*
X0085550Y0053675D01*
X0140550Y0089300D02*
X0140550Y0090550D01*
X0166175Y0129300D02*
X0157425Y0139300D01*
X0113675Y0139300D01*
X0107425Y0133050D01*
X0166175Y0129300D02*
X0184925Y0129300D01*
X0194925Y0134300D01*
D17*
X0218675Y0142425D03*
X0196175Y0173675D03*
X0170550Y0181800D03*
X0119300Y0190550D03*
X0083050Y0179925D03*
X0070550Y0149925D03*
X0077425Y0134925D03*
X0044300Y0131175D03*
X0010550Y0102425D03*
X0063675Y0044300D03*
X0086175Y0071175D03*
X0146175Y0026800D03*
X0113675Y0020550D03*
X0059300Y0013050D03*
X0013050Y0036800D03*
X0205550Y0076800D03*
X0243050Y0049300D03*
X0266175Y0048050D03*
X0222425Y0019300D03*
X0253050Y0101175D03*
X0269925Y0116800D03*
D18*
X0004100Y0214500D02*
X0004100Y0004100D01*
X0274500Y0004100D01*
X0274500Y0214500D01*
X0004100Y0214500D01*
X0004100Y0214402D02*
X0274500Y0214402D01*
X0274500Y0212803D02*
X0004100Y0212803D01*
X0004100Y0211205D02*
X0274500Y0211205D01*
X0274500Y0209606D02*
X0004100Y0209606D01*
X0004100Y0208008D02*
X0017327Y0208008D01*
X0017550Y0208100D02*
X0014315Y0206760D01*
X0011840Y0204285D01*
X0010500Y0201050D01*
X0010500Y0197550D01*
X0011840Y0194315D01*
X0014315Y0191840D01*
X0017550Y0190500D01*
X0021050Y0190500D01*
X0024285Y0191840D01*
X0026760Y0194315D01*
X0028100Y0197550D01*
X0028100Y0201050D01*
X0026760Y0204285D01*
X0024285Y0206760D01*
X0021050Y0208100D01*
X0017550Y0208100D01*
X0021273Y0208008D02*
X0257327Y0208008D01*
X0257550Y0208100D02*
X0254315Y0206760D01*
X0251840Y0204285D01*
X0250500Y0201050D01*
X0250500Y0197550D01*
X0251840Y0194315D01*
X0254315Y0191840D01*
X0257550Y0190500D01*
X0261050Y0190500D01*
X0264285Y0191840D01*
X0266760Y0194315D01*
X0268100Y0197550D01*
X0268100Y0201050D01*
X0266760Y0204285D01*
X0264285Y0206760D01*
X0261050Y0208100D01*
X0257550Y0208100D01*
X0261273Y0208008D02*
X0274500Y0208008D01*
X0274500Y0206409D02*
X0264636Y0206409D01*
X0266234Y0204811D02*
X0274500Y0204811D01*
X0274500Y0203212D02*
X0267204Y0203212D01*
X0267867Y0201614D02*
X0274500Y0201614D01*
X0274500Y0200015D02*
X0268100Y0200015D01*
X0268100Y0198417D02*
X0274500Y0198417D01*
X0274500Y0196818D02*
X0267797Y0196818D01*
X0267135Y0195220D02*
X0274500Y0195220D01*
X0274500Y0193621D02*
X0266066Y0193621D01*
X0264468Y0192023D02*
X0274500Y0192023D01*
X0274500Y0190424D02*
X0004100Y0190424D01*
X0004100Y0188826D02*
X0048520Y0188826D01*
X0047675Y0188476D02*
X0045874Y0186675D01*
X0044900Y0184323D01*
X0044900Y0181777D01*
X0045874Y0179425D01*
X0047675Y0177624D01*
X0050027Y0176650D01*
X0052573Y0176650D01*
X0054925Y0177624D01*
X0056726Y0179425D01*
X0057700Y0181777D01*
X0057700Y0184323D01*
X0056726Y0186675D01*
X0054925Y0188476D01*
X0052573Y0189450D01*
X0050027Y0189450D01*
X0047675Y0188476D01*
X0046426Y0187227D02*
X0004100Y0187227D01*
X0004100Y0185629D02*
X0045441Y0185629D01*
X0044900Y0184030D02*
X0004100Y0184030D01*
X0004100Y0182432D02*
X0044900Y0182432D01*
X0045291Y0180833D02*
X0004100Y0180833D01*
X0004100Y0179235D02*
X0046064Y0179235D01*
X0047663Y0177636D02*
X0004100Y0177636D01*
X0004100Y0176038D02*
X0274500Y0176038D01*
X0274500Y0177636D02*
X0231415Y0177636D01*
X0231086Y0177384D02*
X0231793Y0177927D01*
X0232423Y0178557D01*
X0232966Y0179264D01*
X0233412Y0180036D01*
X0233753Y0180860D01*
X0233984Y0181721D01*
X0234100Y0182604D01*
X0234100Y0182866D01*
X0227484Y0182866D01*
X0227484Y0176250D01*
X0227746Y0176250D01*
X0228629Y0176366D01*
X0229490Y0176597D01*
X0230314Y0176938D01*
X0231086Y0177384D01*
X0232944Y0179235D02*
X0274500Y0179235D01*
X0274500Y0180833D02*
X0233742Y0180833D01*
X0234077Y0182432D02*
X0274500Y0182432D01*
X0274500Y0184030D02*
X0234030Y0184030D01*
X0233984Y0184379D02*
X0234100Y0183496D01*
X0234100Y0183234D01*
X0227484Y0183234D01*
X0227484Y0182866D01*
X0227116Y0182866D01*
X0227116Y0176250D01*
X0226854Y0176250D01*
X0225971Y0176366D01*
X0225110Y0176597D01*
X0224286Y0176938D01*
X0223514Y0177384D01*
X0222807Y0177927D01*
X0222177Y0178557D01*
X0221634Y0179264D01*
X0221188Y0180036D01*
X0220847Y0180860D01*
X0220616Y0181721D01*
X0220500Y0182604D01*
X0220500Y0182866D01*
X0227116Y0182866D01*
X0227116Y0183234D01*
X0220500Y0183234D01*
X0220500Y0183496D01*
X0220616Y0184379D01*
X0220847Y0185240D01*
X0221188Y0186064D01*
X0221634Y0186836D01*
X0222177Y0187543D01*
X0222807Y0188173D01*
X0223514Y0188716D01*
X0224286Y0189162D01*
X0225110Y0189503D01*
X0225971Y0189734D01*
X0226854Y0189850D01*
X0227116Y0189850D01*
X0227116Y0183234D01*
X0227484Y0183234D01*
X0227484Y0189850D01*
X0227746Y0189850D01*
X0228629Y0189734D01*
X0229490Y0189503D01*
X0230314Y0189162D01*
X0231086Y0188716D01*
X0231793Y0188173D01*
X0232423Y0187543D01*
X0232966Y0186836D01*
X0233412Y0186064D01*
X0233753Y0185240D01*
X0233984Y0184379D01*
X0233592Y0185629D02*
X0274500Y0185629D01*
X0274500Y0187227D02*
X0232666Y0187227D01*
X0230896Y0188826D02*
X0274500Y0188826D01*
X0274500Y0174439D02*
X0004100Y0174439D01*
X0004100Y0172841D02*
X0274500Y0172841D01*
X0274500Y0171242D02*
X0251457Y0171242D01*
X0251667Y0171155D02*
X0250050Y0171825D01*
X0242300Y0171825D01*
X0240683Y0171155D01*
X0239445Y0169917D01*
X0238775Y0168300D01*
X0238775Y0166550D01*
X0239445Y0164933D01*
X0240683Y0163695D01*
X0242300Y0163025D01*
X0250050Y0163025D01*
X0251667Y0163695D01*
X0252905Y0164933D01*
X0253575Y0166550D01*
X0253575Y0168300D01*
X0252905Y0169917D01*
X0251667Y0171155D01*
X0253019Y0169644D02*
X0274500Y0169644D01*
X0274500Y0168045D02*
X0253575Y0168045D01*
X0253532Y0166447D02*
X0274500Y0166447D01*
X0274500Y0164848D02*
X0252821Y0164848D01*
X0250593Y0163250D02*
X0274500Y0163250D01*
X0274500Y0161651D02*
X0250470Y0161651D01*
X0250050Y0161825D02*
X0242300Y0161825D01*
X0240683Y0161155D01*
X0239445Y0159917D01*
X0238775Y0158300D01*
X0238775Y0156550D01*
X0239445Y0154933D01*
X0240683Y0153695D01*
X0242300Y0153025D01*
X0250050Y0153025D01*
X0251667Y0153695D01*
X0252905Y0154933D01*
X0253575Y0156550D01*
X0253575Y0158300D01*
X0252905Y0159917D01*
X0251667Y0161155D01*
X0250050Y0161825D01*
X0252770Y0160053D02*
X0274500Y0160053D01*
X0274500Y0158454D02*
X0253511Y0158454D01*
X0253575Y0156856D02*
X0274500Y0156856D01*
X0274500Y0155257D02*
X0253040Y0155257D01*
X0251580Y0153659D02*
X0274500Y0153659D01*
X0274500Y0152060D02*
X0250443Y0152060D01*
X0250299Y0152107D02*
X0249553Y0152225D01*
X0246375Y0152225D01*
X0246375Y0147625D01*
X0245975Y0147625D01*
X0245975Y0152225D01*
X0242797Y0152225D01*
X0242051Y0152107D01*
X0241332Y0151873D01*
X0240659Y0151530D01*
X0240048Y0151086D01*
X0239514Y0150552D01*
X0239070Y0149941D01*
X0238727Y0149268D01*
X0238493Y0148549D01*
X0238375Y0147803D01*
X0238375Y0147625D01*
X0245975Y0147625D01*
X0245975Y0147225D01*
X0246375Y0147225D01*
X0246375Y0147625D01*
X0253975Y0147625D01*
X0253975Y0147803D01*
X0253857Y0148549D01*
X0253623Y0149268D01*
X0253280Y0149941D01*
X0252836Y0150552D01*
X0252302Y0151086D01*
X0251691Y0151530D01*
X0251018Y0151873D01*
X0250299Y0152107D01*
X0252902Y0150462D02*
X0274500Y0150462D01*
X0274500Y0148863D02*
X0253755Y0148863D01*
X0253975Y0147225D02*
X0246375Y0147225D01*
X0246375Y0142625D01*
X0249553Y0142625D01*
X0250299Y0142743D01*
X0251018Y0142977D01*
X0251691Y0143320D01*
X0252302Y0143764D01*
X0252836Y0144298D01*
X0253280Y0144909D01*
X0253623Y0145582D01*
X0253857Y0146301D01*
X0253975Y0147047D01*
X0253975Y0147225D01*
X0253650Y0145666D02*
X0274500Y0145666D01*
X0274500Y0144068D02*
X0252606Y0144068D01*
X0250050Y0138700D02*
X0251667Y0138030D01*
X0252905Y0136792D01*
X0253575Y0135175D01*
X0253575Y0133425D01*
X0252905Y0131808D01*
X0251667Y0130570D01*
X0250050Y0129900D01*
X0242300Y0129900D01*
X0240683Y0130570D01*
X0239445Y0131808D01*
X0238775Y0133425D01*
X0238775Y0135175D01*
X0239445Y0136792D01*
X0240683Y0138030D01*
X0242300Y0138700D01*
X0250050Y0138700D01*
X0252024Y0137673D02*
X0274500Y0137673D01*
X0274500Y0136075D02*
X0253202Y0136075D01*
X0253575Y0134476D02*
X0274500Y0134476D01*
X0274500Y0132878D02*
X0253348Y0132878D01*
X0252377Y0131279D02*
X0274500Y0131279D01*
X0274500Y0129681D02*
X0189935Y0129681D01*
X0186738Y0128082D02*
X0240809Y0128082D01*
X0240683Y0128030D02*
X0239445Y0126792D01*
X0238775Y0125175D01*
X0238775Y0123425D01*
X0239445Y0121808D01*
X0240683Y0120570D01*
X0242300Y0119900D01*
X0250050Y0119900D01*
X0251667Y0120570D01*
X0252905Y0121808D01*
X0253575Y0123425D01*
X0253575Y0125175D01*
X0252905Y0126792D01*
X0251667Y0128030D01*
X0250050Y0128700D01*
X0242300Y0128700D01*
X0240683Y0128030D01*
X0239317Y0126484D02*
X0201093Y0126484D01*
X0201159Y0126457D02*
X0199953Y0126956D01*
X0198647Y0126956D01*
X0197441Y0126457D01*
X0196518Y0125534D01*
X0196019Y0124328D01*
X0196019Y0123022D01*
X0196518Y0121816D01*
X0197441Y0120893D01*
X0198647Y0120394D01*
X0199894Y0120394D01*
X0211150Y0109138D01*
X0211150Y0031825D01*
X0179418Y0031825D01*
X0179385Y0031855D01*
X0178637Y0031825D01*
X0177888Y0031825D01*
X0177857Y0031794D01*
X0177813Y0031792D01*
X0177305Y0031242D01*
X0176775Y0030712D01*
X0176775Y0030668D01*
X0170343Y0023700D01*
X0128915Y0023700D01*
X0128034Y0024582D01*
X0126828Y0025081D01*
X0125522Y0025081D01*
X0124316Y0024582D01*
X0123393Y0023659D01*
X0122894Y0022453D01*
X0122894Y0021147D01*
X0123393Y0019941D01*
X0124316Y0019018D01*
X0125522Y0018519D01*
X0126828Y0018519D01*
X0128034Y0019018D01*
X0128915Y0019900D01*
X0170432Y0019900D01*
X0170465Y0019870D01*
X0171213Y0019900D01*
X0171962Y0019900D01*
X0171993Y0019931D01*
X0172037Y0019933D01*
X0172545Y0020483D01*
X0173075Y0021013D01*
X0173075Y0021057D01*
X0179507Y0028025D01*
X0213837Y0028025D01*
X0214950Y0029138D01*
X0214950Y0110712D01*
X0213837Y0111825D01*
X0202581Y0123081D01*
X0202581Y0124328D01*
X0202082Y0125534D01*
X0201159Y0126457D01*
X0202350Y0124885D02*
X0238775Y0124885D01*
X0238832Y0123287D02*
X0202581Y0123287D01*
X0203974Y0121688D02*
X0239564Y0121688D01*
X0241841Y0120090D02*
X0205572Y0120090D01*
X0207171Y0118491D02*
X0274500Y0118491D01*
X0274500Y0116893D02*
X0208769Y0116893D01*
X0210368Y0115294D02*
X0233788Y0115294D01*
X0234348Y0115854D02*
X0233207Y0114713D01*
X0232589Y0113221D01*
X0232589Y0111607D01*
X0233207Y0110116D01*
X0234348Y0108974D01*
X0235839Y0108357D01*
X0237454Y0108357D01*
X0238945Y0108974D01*
X0240086Y0110116D01*
X0240704Y0111607D01*
X0240704Y0113221D01*
X0240086Y0114713D01*
X0238945Y0115854D01*
X0237454Y0116472D01*
X0235839Y0116472D01*
X0234348Y0115854D01*
X0232786Y0113696D02*
X0211966Y0113696D01*
X0213565Y0112097D02*
X0232589Y0112097D01*
X0233048Y0110499D02*
X0214950Y0110499D01*
X0214950Y0108900D02*
X0234527Y0108900D01*
X0238766Y0108900D02*
X0255133Y0108900D01*
X0255069Y0108927D02*
X0256560Y0108309D01*
X0258174Y0108309D01*
X0259665Y0108927D01*
X0260807Y0110069D01*
X0261424Y0111560D01*
X0261424Y0113174D01*
X0260807Y0114665D01*
X0259665Y0115807D01*
X0258174Y0116424D01*
X0256560Y0116424D01*
X0255069Y0115807D01*
X0253927Y0114665D01*
X0253309Y0113174D01*
X0253309Y0111560D01*
X0253927Y0110069D01*
X0255069Y0108927D01*
X0253749Y0110499D02*
X0240245Y0110499D01*
X0240704Y0112097D02*
X0253309Y0112097D01*
X0253526Y0113696D02*
X0240507Y0113696D01*
X0239504Y0115294D02*
X0254556Y0115294D01*
X0260178Y0115294D02*
X0274500Y0115294D01*
X0274500Y0113696D02*
X0261208Y0113696D01*
X0261424Y0112097D02*
X0274500Y0112097D01*
X0274500Y0110499D02*
X0260985Y0110499D01*
X0259600Y0108900D02*
X0274500Y0108900D01*
X0274500Y0107302D02*
X0214950Y0107302D01*
X0214950Y0105703D02*
X0274500Y0105703D01*
X0274500Y0104105D02*
X0214950Y0104105D01*
X0214950Y0102506D02*
X0274500Y0102506D01*
X0274500Y0100908D02*
X0214950Y0100908D01*
X0214950Y0099309D02*
X0274500Y0099309D01*
X0274500Y0097711D02*
X0214950Y0097711D01*
X0214950Y0096112D02*
X0274500Y0096112D01*
X0274500Y0094514D02*
X0260273Y0094514D01*
X0260822Y0093965D02*
X0259681Y0095106D01*
X0258190Y0095724D01*
X0256576Y0095724D01*
X0255084Y0095106D01*
X0253943Y0093965D01*
X0253325Y0092473D01*
X0253325Y0090859D01*
X0253943Y0089368D01*
X0255084Y0088226D01*
X0256576Y0087609D01*
X0258190Y0087609D01*
X0259681Y0088226D01*
X0260822Y0089368D01*
X0261440Y0090859D01*
X0261440Y0092473D01*
X0260822Y0093965D01*
X0261257Y0092915D02*
X0274500Y0092915D01*
X0274500Y0091317D02*
X0261440Y0091317D01*
X0260968Y0089718D02*
X0274500Y0089718D01*
X0274500Y0088120D02*
X0259423Y0088120D01*
X0255342Y0088120D02*
X0238589Y0088120D01*
X0238961Y0088274D02*
X0240102Y0089415D01*
X0240720Y0090906D01*
X0240720Y0092520D01*
X0240102Y0094012D01*
X0238961Y0095153D01*
X0237469Y0095771D01*
X0235855Y0095771D01*
X0234364Y0095153D01*
X0233222Y0094012D01*
X0232605Y0092520D01*
X0232605Y0090906D01*
X0233222Y0089415D01*
X0234364Y0088274D01*
X0235855Y0087656D01*
X0237469Y0087656D01*
X0238961Y0088274D01*
X0240228Y0089718D02*
X0253798Y0089718D01*
X0253325Y0091317D02*
X0240720Y0091317D01*
X0240556Y0092915D02*
X0253508Y0092915D01*
X0254492Y0094514D02*
X0239600Y0094514D01*
X0233724Y0094514D02*
X0214950Y0094514D01*
X0214950Y0092915D02*
X0232768Y0092915D01*
X0232605Y0091317D02*
X0214950Y0091317D01*
X0214950Y0089718D02*
X0233097Y0089718D01*
X0234736Y0088120D02*
X0214950Y0088120D01*
X0214950Y0086521D02*
X0274500Y0086521D01*
X0274500Y0084923D02*
X0214950Y0084923D01*
X0214950Y0083324D02*
X0274500Y0083324D01*
X0274500Y0081726D02*
X0214950Y0081726D01*
X0214950Y0080127D02*
X0274500Y0080127D01*
X0274500Y0078529D02*
X0214950Y0078529D01*
X0214950Y0076930D02*
X0274500Y0076930D01*
X0274500Y0075332D02*
X0214950Y0075332D01*
X0214950Y0073733D02*
X0274500Y0073733D01*
X0274500Y0072134D02*
X0214950Y0072134D01*
X0214950Y0070536D02*
X0274500Y0070536D01*
X0274500Y0068937D02*
X0214950Y0068937D01*
X0214950Y0067339D02*
X0274500Y0067339D01*
X0274500Y0065740D02*
X0214950Y0065740D01*
X0214950Y0064142D02*
X0274500Y0064142D01*
X0274500Y0062543D02*
X0214950Y0062543D01*
X0214950Y0060945D02*
X0274500Y0060945D01*
X0274500Y0059346D02*
X0214950Y0059346D01*
X0214950Y0057748D02*
X0274500Y0057748D01*
X0274500Y0056149D02*
X0214950Y0056149D01*
X0214950Y0054551D02*
X0274500Y0054551D01*
X0274500Y0052952D02*
X0214950Y0052952D01*
X0214950Y0051354D02*
X0274500Y0051354D01*
X0274500Y0049755D02*
X0214950Y0049755D01*
X0214950Y0048157D02*
X0274500Y0048157D01*
X0274500Y0046558D02*
X0214950Y0046558D01*
X0214950Y0044960D02*
X0274500Y0044960D01*
X0274500Y0043361D02*
X0214950Y0043361D01*
X0214950Y0041763D02*
X0274500Y0041763D01*
X0274500Y0040164D02*
X0214950Y0040164D01*
X0214950Y0038566D02*
X0274500Y0038566D01*
X0274500Y0036967D02*
X0214950Y0036967D01*
X0214950Y0035369D02*
X0274500Y0035369D01*
X0274500Y0033770D02*
X0214950Y0033770D01*
X0214950Y0032172D02*
X0274500Y0032172D01*
X0274500Y0030573D02*
X0214950Y0030573D01*
X0214787Y0028975D02*
X0274500Y0028975D01*
X0274500Y0027376D02*
X0262798Y0027376D01*
X0264285Y0026760D02*
X0261050Y0028100D01*
X0257550Y0028100D01*
X0254315Y0026760D01*
X0251840Y0024285D01*
X0250500Y0021050D01*
X0250500Y0017550D01*
X0251840Y0014315D01*
X0254315Y0011840D01*
X0257550Y0010500D01*
X0261050Y0010500D01*
X0264285Y0011840D01*
X0266760Y0014315D01*
X0268100Y0017550D01*
X0268100Y0021050D01*
X0266760Y0024285D01*
X0264285Y0026760D01*
X0265267Y0025778D02*
X0274500Y0025778D01*
X0274500Y0024179D02*
X0266804Y0024179D01*
X0267466Y0022581D02*
X0274500Y0022581D01*
X0274500Y0020982D02*
X0268100Y0020982D01*
X0268100Y0019384D02*
X0274500Y0019384D01*
X0274500Y0017785D02*
X0268100Y0017785D01*
X0267535Y0016187D02*
X0274500Y0016187D01*
X0274500Y0014588D02*
X0266873Y0014588D01*
X0265435Y0012990D02*
X0274500Y0012990D01*
X0274500Y0011391D02*
X0263202Y0011391D01*
X0255398Y0011391D02*
X0023202Y0011391D01*
X0024285Y0011840D02*
X0026760Y0014315D01*
X0028100Y0017550D01*
X0028100Y0021050D01*
X0026760Y0024285D01*
X0024285Y0026760D01*
X0021050Y0028100D01*
X0017550Y0028100D01*
X0014315Y0026760D01*
X0011840Y0024285D01*
X0010500Y0021050D01*
X0010500Y0017550D01*
X0011840Y0014315D01*
X0014315Y0011840D01*
X0017550Y0010500D01*
X0021050Y0010500D01*
X0024285Y0011840D01*
X0025435Y0012990D02*
X0072499Y0012990D01*
X0072764Y0012725D02*
X0072794Y0012725D01*
X0072816Y0012704D01*
X0073701Y0012725D01*
X0180211Y0012725D01*
X0186005Y0018519D01*
X0186828Y0018519D01*
X0188034Y0019018D01*
X0188957Y0019941D01*
X0189456Y0021147D01*
X0189456Y0022453D01*
X0188957Y0023659D01*
X0188034Y0024582D01*
X0186828Y0025081D01*
X0185522Y0025081D01*
X0184316Y0024582D01*
X0183393Y0023659D01*
X0182894Y0022453D01*
X0182894Y0021630D01*
X0178389Y0017125D01*
X0074556Y0017125D01*
X0050081Y0040461D01*
X0050081Y0041203D01*
X0049582Y0042409D01*
X0048659Y0043332D01*
X0047453Y0043831D01*
X0046147Y0043831D01*
X0044941Y0043332D01*
X0044018Y0042409D01*
X0043519Y0041203D01*
X0043519Y0039897D01*
X0044018Y0038691D01*
X0044941Y0037768D01*
X0046147Y0037269D01*
X0047053Y0037269D01*
X0072138Y0013351D01*
X0072764Y0012725D01*
X0073675Y0014925D02*
X0179300Y0014925D01*
X0186175Y0021800D01*
X0188399Y0019384D02*
X0250500Y0019384D01*
X0250500Y0020982D02*
X0189388Y0020982D01*
X0189403Y0022581D02*
X0251134Y0022581D01*
X0251796Y0024179D02*
X0188436Y0024179D01*
X0183914Y0024179D02*
X0175957Y0024179D01*
X0174481Y0022581D02*
X0182947Y0022581D01*
X0182246Y0020982D02*
X0173044Y0020982D01*
X0170785Y0024179D02*
X0128436Y0024179D01*
X0123914Y0024179D02*
X0067157Y0024179D01*
X0065481Y0025778D02*
X0172261Y0025778D01*
X0173737Y0027376D02*
X0063804Y0027376D01*
X0062128Y0028975D02*
X0175212Y0028975D01*
X0176688Y0030573D02*
X0060452Y0030573D01*
X0058775Y0032172D02*
X0211150Y0032172D01*
X0211150Y0033770D02*
X0057099Y0033770D01*
X0055422Y0035369D02*
X0211150Y0035369D01*
X0211150Y0036967D02*
X0053746Y0036967D01*
X0052069Y0038566D02*
X0211150Y0038566D01*
X0211150Y0040164D02*
X0050393Y0040164D01*
X0049849Y0041763D02*
X0211150Y0041763D01*
X0211150Y0043361D02*
X0163001Y0043361D01*
X0163332Y0043691D02*
X0163831Y0044897D01*
X0163831Y0046144D01*
X0167450Y0049763D01*
X0167450Y0080505D01*
X0167485Y0081246D01*
X0167450Y0081285D01*
X0167450Y0081337D01*
X0166925Y0081861D01*
X0161200Y0088160D01*
X0161200Y0120935D01*
X0162082Y0121816D01*
X0162581Y0123022D01*
X0162581Y0124328D01*
X0162082Y0125534D01*
X0161159Y0126457D01*
X0159953Y0126956D01*
X0159129Y0126956D01*
X0160080Y0127908D01*
X0160750Y0129525D01*
X0160750Y0131275D01*
X0160080Y0132892D01*
X0158842Y0134130D01*
X0157225Y0134800D01*
X0149475Y0134800D01*
X0147858Y0134130D01*
X0146620Y0132892D01*
X0145950Y0131275D01*
X0145950Y0129525D01*
X0146620Y0127908D01*
X0147858Y0126670D01*
X0149475Y0126000D01*
X0149485Y0126000D01*
X0149018Y0125534D01*
X0148519Y0124328D01*
X0148519Y0123022D01*
X0149018Y0121816D01*
X0149941Y0120893D01*
X0151147Y0120394D01*
X0152394Y0120394D01*
X0152400Y0120388D01*
X0152400Y0115165D01*
X0151518Y0114284D01*
X0151019Y0113078D01*
X0151019Y0111772D01*
X0151518Y0110566D01*
X0152441Y0109643D01*
X0153647Y0109144D01*
X0154953Y0109144D01*
X0156159Y0109643D01*
X0157082Y0110566D01*
X0157400Y0111335D01*
X0157400Y0087470D01*
X0157365Y0086729D01*
X0157400Y0086690D01*
X0157400Y0086638D01*
X0157924Y0086113D01*
X0163650Y0079815D01*
X0163650Y0051337D01*
X0161144Y0048831D01*
X0159897Y0048831D01*
X0158691Y0048332D01*
X0157768Y0047409D01*
X0157269Y0046203D01*
X0157269Y0044897D01*
X0157768Y0043691D01*
X0158691Y0042768D01*
X0159897Y0042269D01*
X0161203Y0042269D01*
X0162409Y0042768D01*
X0163332Y0043691D01*
X0163831Y0044960D02*
X0211150Y0044960D01*
X0211150Y0046558D02*
X0164245Y0046558D01*
X0165844Y0048157D02*
X0211150Y0048157D01*
X0211150Y0049755D02*
X0167442Y0049755D01*
X0167450Y0051354D02*
X0211150Y0051354D01*
X0211150Y0052952D02*
X0167450Y0052952D01*
X0167450Y0054551D02*
X0211150Y0054551D01*
X0211150Y0056149D02*
X0167450Y0056149D01*
X0167450Y0057748D02*
X0211150Y0057748D01*
X0211150Y0059346D02*
X0167450Y0059346D01*
X0167450Y0060945D02*
X0211150Y0060945D01*
X0211150Y0062543D02*
X0167450Y0062543D01*
X0167450Y0064142D02*
X0211150Y0064142D01*
X0211150Y0065740D02*
X0167450Y0065740D01*
X0167450Y0067339D02*
X0211150Y0067339D01*
X0211150Y0068937D02*
X0167450Y0068937D01*
X0167450Y0070536D02*
X0211150Y0070536D01*
X0211150Y0072134D02*
X0167450Y0072134D01*
X0167450Y0073733D02*
X0211150Y0073733D01*
X0211150Y0075332D02*
X0167450Y0075332D01*
X0167450Y0076930D02*
X0211150Y0076930D01*
X0211150Y0078529D02*
X0167450Y0078529D01*
X0167450Y0080127D02*
X0211150Y0080127D01*
X0211150Y0081726D02*
X0167061Y0081726D01*
X0165596Y0083324D02*
X0211150Y0083324D01*
X0211150Y0084923D02*
X0164143Y0084923D01*
X0162689Y0086521D02*
X0211150Y0086521D01*
X0211150Y0088120D02*
X0161236Y0088120D01*
X0161200Y0089718D02*
X0211150Y0089718D01*
X0211150Y0091317D02*
X0161200Y0091317D01*
X0161200Y0092915D02*
X0211150Y0092915D01*
X0211150Y0094514D02*
X0161200Y0094514D01*
X0161200Y0096112D02*
X0211150Y0096112D01*
X0211150Y0097711D02*
X0161200Y0097711D01*
X0161200Y0099309D02*
X0211150Y0099309D01*
X0211150Y0100908D02*
X0161200Y0100908D01*
X0161200Y0102506D02*
X0211150Y0102506D01*
X0211150Y0104105D02*
X0161200Y0104105D01*
X0161200Y0105703D02*
X0211150Y0105703D01*
X0211150Y0107302D02*
X0161200Y0107302D01*
X0161200Y0108900D02*
X0211150Y0108900D01*
X0209789Y0110499D02*
X0161200Y0110499D01*
X0161200Y0112097D02*
X0208191Y0112097D01*
X0206592Y0113696D02*
X0161200Y0113696D01*
X0161200Y0115294D02*
X0204994Y0115294D01*
X0203395Y0116893D02*
X0161200Y0116893D01*
X0161200Y0118491D02*
X0201797Y0118491D01*
X0200198Y0120090D02*
X0161200Y0120090D01*
X0161954Y0121688D02*
X0196646Y0121688D01*
X0196019Y0123287D02*
X0162581Y0123287D01*
X0162350Y0124885D02*
X0196250Y0124885D01*
X0197507Y0126484D02*
X0161093Y0126484D01*
X0160153Y0128082D02*
X0164706Y0128082D01*
X0164787Y0128001D02*
X0165263Y0127457D01*
X0165336Y0127452D01*
X0165388Y0127400D01*
X0166112Y0127400D01*
X0166834Y0127352D01*
X0166889Y0127400D01*
X0184617Y0127400D01*
X0185071Y0127249D01*
X0185374Y0127400D01*
X0185712Y0127400D01*
X0186050Y0127738D01*
X0193364Y0131395D01*
X0194272Y0131019D01*
X0195578Y0131019D01*
X0196784Y0131518D01*
X0197707Y0132441D01*
X0198206Y0133647D01*
X0198206Y0134953D01*
X0197707Y0136159D01*
X0196784Y0137082D01*
X0195578Y0137581D01*
X0194272Y0137581D01*
X0193066Y0137082D01*
X0192143Y0136159D01*
X0191644Y0134953D01*
X0191644Y0134784D01*
X0184476Y0131200D01*
X0167037Y0131200D01*
X0159325Y0140014D01*
X0159325Y0140087D01*
X0158813Y0140599D01*
X0158337Y0141143D01*
X0158264Y0141148D01*
X0158212Y0141200D01*
X0157488Y0141200D01*
X0156766Y0141248D01*
X0156711Y0141200D01*
X0112888Y0141200D01*
X0106638Y0134950D01*
X0105525Y0133837D01*
X0105525Y0057587D01*
X0103513Y0055575D01*
X0088290Y0055575D01*
X0087409Y0056457D01*
X0086203Y0056956D01*
X0084897Y0056956D01*
X0083691Y0056457D01*
X0082768Y0055534D01*
X0082269Y0054328D01*
X0082269Y0053022D01*
X0082768Y0051816D01*
X0083691Y0050893D01*
X0084897Y0050394D01*
X0086203Y0050394D01*
X0087409Y0050893D01*
X0088290Y0051775D01*
X0105087Y0051775D01*
X0106200Y0052888D01*
X0109325Y0056013D01*
X0109325Y0132263D01*
X0114462Y0137400D01*
X0156563Y0137400D01*
X0164275Y0128586D01*
X0164275Y0128513D01*
X0164787Y0128001D01*
X0163317Y0129681D02*
X0160750Y0129681D01*
X0160748Y0131279D02*
X0161918Y0131279D01*
X0160520Y0132878D02*
X0160086Y0132878D01*
X0159121Y0134476D02*
X0158006Y0134476D01*
X0157722Y0136075D02*
X0113137Y0136075D01*
X0111538Y0134476D02*
X0123094Y0134476D01*
X0123875Y0134800D02*
X0122258Y0134130D01*
X0121020Y0132892D01*
X0120350Y0131275D01*
X0120350Y0129525D01*
X0121020Y0127908D01*
X0122258Y0126670D01*
X0123875Y0126000D01*
X0131625Y0126000D01*
X0133242Y0126670D01*
X0134480Y0127908D01*
X0135150Y0129525D01*
X0135150Y0131275D01*
X0134480Y0132892D01*
X0133242Y0134130D01*
X0131625Y0134800D01*
X0123875Y0134800D01*
X0121014Y0132878D02*
X0109940Y0132878D01*
X0109325Y0131279D02*
X0120352Y0131279D01*
X0120350Y0129681D02*
X0109325Y0129681D01*
X0109325Y0128082D02*
X0120947Y0128082D01*
X0122707Y0126484D02*
X0109325Y0126484D01*
X0109325Y0124885D02*
X0148750Y0124885D01*
X0148519Y0123287D02*
X0109325Y0123287D01*
X0109325Y0121688D02*
X0149146Y0121688D01*
X0152400Y0120090D02*
X0109325Y0120090D01*
X0109325Y0118491D02*
X0152400Y0118491D01*
X0152400Y0116893D02*
X0144472Y0116893D01*
X0144582Y0116784D02*
X0143659Y0117707D01*
X0142453Y0118206D01*
X0141147Y0118206D01*
X0139941Y0117707D01*
X0139060Y0116825D01*
X0128683Y0116825D01*
X0128560Y0116917D01*
X0127915Y0116825D01*
X0127263Y0116825D01*
X0127154Y0116716D01*
X0127002Y0116695D01*
X0126611Y0116173D01*
X0126150Y0115712D01*
X0126150Y0115706D01*
X0125522Y0115706D01*
X0124316Y0115207D01*
X0123393Y0114284D01*
X0122894Y0113078D01*
X0122894Y0111772D01*
X0123393Y0110566D01*
X0124316Y0109643D01*
X0125522Y0109144D01*
X0126828Y0109144D01*
X0127883Y0109581D01*
X0127883Y0093267D01*
X0127815Y0093173D01*
X0127870Y0092829D01*
X0127800Y0092614D01*
X0127883Y0092450D01*
X0127883Y0092306D01*
X0127958Y0092232D01*
X0127958Y0092077D01*
X0127994Y0092040D01*
X0128003Y0091989D01*
X0128160Y0091875D01*
X0128193Y0091842D01*
X0128214Y0091801D01*
X0128274Y0091615D01*
X0128320Y0091592D01*
X0128344Y0091545D01*
X0128529Y0091485D01*
X0128570Y0091464D01*
X0128603Y0091432D01*
X0128718Y0091274D01*
X0128769Y0091266D01*
X0128806Y0091229D01*
X0128961Y0091229D01*
X0129035Y0091155D01*
X0129178Y0091155D01*
X0129342Y0091071D01*
X0129558Y0091141D01*
X0129902Y0091086D01*
X0129996Y0091155D01*
X0149860Y0091155D01*
X0150621Y0091916D01*
X0150621Y0092680D01*
X0150716Y0092844D01*
X0150659Y0093058D01*
X0150705Y0093232D01*
X0150621Y0093378D01*
X0150621Y0093567D01*
X0150618Y0093570D01*
X0150618Y0093578D01*
X0150600Y0093596D01*
X0150600Y0108835D01*
X0150647Y0108892D01*
X0150600Y0109364D01*
X0150600Y0109552D01*
X0150652Y0109650D01*
X0150600Y0109822D01*
X0150600Y0109838D01*
X0150593Y0109846D01*
X0150533Y0110043D01*
X0150501Y0110366D01*
X0150510Y0110395D01*
X0150496Y0110421D01*
X0150493Y0110451D01*
X0150470Y0110470D01*
X0150317Y0110757D01*
X0150222Y0111067D01*
X0150225Y0111097D01*
X0150206Y0111121D01*
X0150197Y0111149D01*
X0150171Y0111164D01*
X0149965Y0111415D01*
X0149812Y0111701D01*
X0149809Y0111731D01*
X0149786Y0111750D01*
X0149771Y0111777D01*
X0149743Y0111785D01*
X0149491Y0111991D01*
X0149285Y0112243D01*
X0149277Y0112271D01*
X0149250Y0112286D01*
X0149231Y0112309D01*
X0149201Y0112312D01*
X0148915Y0112465D01*
X0148664Y0112671D01*
X0148649Y0112697D01*
X0148621Y0112706D01*
X0148597Y0112725D01*
X0148567Y0112722D01*
X0148257Y0112817D01*
X0147970Y0112970D01*
X0147951Y0112993D01*
X0147921Y0112996D01*
X0147895Y0113010D01*
X0147866Y0113001D01*
X0147543Y0113033D01*
X0147346Y0113093D01*
X0147338Y0113100D01*
X0147322Y0113100D01*
X0147150Y0113152D01*
X0147052Y0113100D01*
X0146864Y0113100D01*
X0146392Y0113147D01*
X0146335Y0113100D01*
X0144595Y0113100D01*
X0145081Y0114272D01*
X0145081Y0115578D01*
X0144582Y0116784D01*
X0145081Y0115294D02*
X0152400Y0115294D01*
X0151275Y0113696D02*
X0144842Y0113696D01*
X0149405Y0112097D02*
X0151019Y0112097D01*
X0150454Y0110499D02*
X0151586Y0110499D01*
X0150646Y0108900D02*
X0157400Y0108900D01*
X0157400Y0107302D02*
X0150600Y0107302D01*
X0150600Y0105703D02*
X0157400Y0105703D01*
X0157400Y0104105D02*
X0150600Y0104105D01*
X0150600Y0102506D02*
X0157400Y0102506D01*
X0157400Y0100908D02*
X0150600Y0100908D01*
X0150600Y0099309D02*
X0157400Y0099309D01*
X0157400Y0097711D02*
X0150600Y0097711D01*
X0150600Y0096112D02*
X0157400Y0096112D01*
X0157400Y0094514D02*
X0150600Y0094514D01*
X0150697Y0092915D02*
X0157400Y0092915D01*
X0157400Y0091317D02*
X0150022Y0091317D01*
X0157400Y0089718D02*
X0109325Y0089718D01*
X0109325Y0088120D02*
X0157400Y0088120D01*
X0157517Y0086521D02*
X0109325Y0086521D01*
X0109325Y0084923D02*
X0159007Y0084923D01*
X0160460Y0083324D02*
X0109325Y0083324D01*
X0109325Y0081726D02*
X0161914Y0081726D01*
X0163367Y0080127D02*
X0109325Y0080127D01*
X0109325Y0078529D02*
X0163650Y0078529D01*
X0163650Y0076930D02*
X0109325Y0076930D01*
X0109325Y0075332D02*
X0163650Y0075332D01*
X0163650Y0073733D02*
X0109325Y0073733D01*
X0109325Y0072134D02*
X0163650Y0072134D01*
X0163650Y0070536D02*
X0109325Y0070536D01*
X0109325Y0068937D02*
X0163650Y0068937D01*
X0163650Y0067339D02*
X0156526Y0067339D01*
X0156159Y0067707D02*
X0154953Y0068206D01*
X0153647Y0068206D01*
X0152441Y0067707D01*
X0151860Y0067125D01*
X0132139Y0067125D01*
X0120720Y0055706D01*
X0119897Y0055706D01*
X0118691Y0055207D01*
X0117768Y0054284D01*
X0117269Y0053078D01*
X0117269Y0051772D01*
X0117768Y0050566D01*
X0118691Y0049643D01*
X0119897Y0049144D01*
X0121203Y0049144D01*
X0122409Y0049643D01*
X0123332Y0050566D01*
X0123831Y0051772D01*
X0123831Y0052595D01*
X0133961Y0062725D01*
X0151860Y0062725D01*
X0152441Y0062143D01*
X0153647Y0061644D01*
X0154953Y0061644D01*
X0156159Y0062143D01*
X0157082Y0063066D01*
X0157581Y0064272D01*
X0157581Y0065578D01*
X0157082Y0066784D01*
X0156159Y0067707D01*
X0157514Y0065740D02*
X0163650Y0065740D01*
X0163650Y0064142D02*
X0157527Y0064142D01*
X0156559Y0062543D02*
X0163650Y0062543D01*
X0163650Y0060945D02*
X0132181Y0060945D01*
X0130583Y0059346D02*
X0163650Y0059346D01*
X0163650Y0057748D02*
X0128984Y0057748D01*
X0127386Y0056149D02*
X0163650Y0056149D01*
X0163650Y0054551D02*
X0125787Y0054551D01*
X0124189Y0052952D02*
X0163650Y0052952D01*
X0163650Y0051354D02*
X0123658Y0051354D01*
X0122521Y0049755D02*
X0162068Y0049755D01*
X0158517Y0048157D02*
X0004100Y0048157D01*
X0004100Y0049755D02*
X0118579Y0049755D01*
X0117442Y0051354D02*
X0087869Y0051354D01*
X0083231Y0051354D02*
X0004100Y0051354D01*
X0004100Y0052952D02*
X0082298Y0052952D01*
X0082361Y0054551D02*
X0004100Y0054551D01*
X0004100Y0056149D02*
X0083384Y0056149D01*
X0087716Y0056149D02*
X0104087Y0056149D01*
X0105525Y0057748D02*
X0004100Y0057748D01*
X0004100Y0059346D02*
X0105525Y0059346D01*
X0105525Y0060945D02*
X0004100Y0060945D01*
X0004100Y0062543D02*
X0105525Y0062543D01*
X0105525Y0064142D02*
X0004100Y0064142D01*
X0004100Y0065740D02*
X0105525Y0065740D01*
X0105525Y0067339D02*
X0004100Y0067339D01*
X0004100Y0068937D02*
X0105525Y0068937D01*
X0105525Y0070536D02*
X0004100Y0070536D01*
X0004100Y0072134D02*
X0105525Y0072134D01*
X0105525Y0073733D02*
X0004100Y0073733D01*
X0004100Y0075332D02*
X0105525Y0075332D01*
X0105525Y0076930D02*
X0004100Y0076930D01*
X0004100Y0078529D02*
X0105525Y0078529D01*
X0105525Y0080127D02*
X0004100Y0080127D01*
X0004100Y0081726D02*
X0105525Y0081726D01*
X0105525Y0083324D02*
X0080720Y0083324D01*
X0080773Y0083346D02*
X0081504Y0084077D01*
X0081504Y0084077D01*
X0082821Y0085394D01*
X0083078Y0085394D01*
X0084284Y0085893D01*
X0085207Y0086816D01*
X0085706Y0088022D01*
X0085706Y0089328D01*
X0085207Y0090534D01*
X0084284Y0091457D01*
X0083078Y0091956D01*
X0081772Y0091956D01*
X0080566Y0091457D01*
X0079643Y0090534D01*
X0079144Y0089328D01*
X0079144Y0089071D01*
X0078223Y0088150D01*
X0061721Y0088150D01*
X0059400Y0091912D01*
X0059400Y0096635D01*
X0059582Y0096816D01*
X0060081Y0098022D01*
X0060081Y0099328D01*
X0059582Y0100534D01*
X0058659Y0101457D01*
X0057453Y0101956D01*
X0056147Y0101956D01*
X0054941Y0101457D01*
X0054018Y0100534D01*
X0053519Y0099328D01*
X0053519Y0098022D01*
X0054018Y0096816D01*
X0054200Y0096635D01*
X0054200Y0091479D01*
X0054151Y0091271D01*
X0054200Y0090967D01*
X0054200Y0090658D01*
X0054282Y0090461D01*
X0054316Y0090250D01*
X0054478Y0089987D01*
X0054596Y0089702D01*
X0054747Y0089551D01*
X0057495Y0085095D01*
X0057614Y0084809D01*
X0057764Y0084659D01*
X0057876Y0084477D01*
X0058127Y0084296D01*
X0058697Y0083726D01*
X0060571Y0082950D01*
X0079817Y0082950D01*
X0080773Y0083346D01*
X0082350Y0084923D02*
X0105525Y0084923D01*
X0105525Y0086521D02*
X0084911Y0086521D01*
X0085706Y0088120D02*
X0105525Y0088120D01*
X0105525Y0089718D02*
X0085544Y0089718D01*
X0084424Y0091317D02*
X0105525Y0091317D01*
X0105525Y0092915D02*
X0059400Y0092915D01*
X0059400Y0094514D02*
X0105525Y0094514D01*
X0105525Y0096112D02*
X0059400Y0096112D01*
X0059952Y0097711D02*
X0105525Y0097711D01*
X0105525Y0099309D02*
X0060081Y0099309D01*
X0059207Y0100908D02*
X0105525Y0100908D01*
X0105525Y0102506D02*
X0079021Y0102506D01*
X0078659Y0102143D02*
X0079582Y0103066D01*
X0080081Y0104272D01*
X0080081Y0105578D01*
X0079582Y0106784D01*
X0078659Y0107707D01*
X0077453Y0108206D01*
X0076147Y0108206D01*
X0074941Y0107707D01*
X0074360Y0107125D01*
X0061408Y0107125D01*
X0018255Y0146826D01*
X0018375Y0147115D01*
X0018375Y0148985D01*
X0017659Y0150712D01*
X0016337Y0152034D01*
X0014610Y0152750D01*
X0012740Y0152750D01*
X0011013Y0152034D01*
X0009691Y0150712D01*
X0008975Y0148985D01*
X0008975Y0147115D01*
X0009691Y0145388D01*
X0011013Y0144066D01*
X0012740Y0143350D01*
X0014610Y0143350D01*
X0015247Y0143614D01*
X0059027Y0103337D01*
X0059639Y0102725D01*
X0059692Y0102725D01*
X0059731Y0102689D01*
X0060596Y0102725D01*
X0074360Y0102725D01*
X0074941Y0102143D01*
X0076147Y0101644D01*
X0077453Y0101644D01*
X0078659Y0102143D01*
X0080012Y0104105D02*
X0105525Y0104105D01*
X0105525Y0105703D02*
X0080029Y0105703D01*
X0079063Y0107302D02*
X0105525Y0107302D01*
X0105525Y0108900D02*
X0059478Y0108900D01*
X0057741Y0110499D02*
X0105525Y0110499D01*
X0105525Y0112097D02*
X0056003Y0112097D01*
X0054266Y0113696D02*
X0105525Y0113696D01*
X0105525Y0115294D02*
X0052528Y0115294D01*
X0050791Y0116893D02*
X0105525Y0116893D01*
X0105525Y0118491D02*
X0049053Y0118491D01*
X0047316Y0120090D02*
X0105525Y0120090D01*
X0105525Y0121688D02*
X0045578Y0121688D01*
X0043841Y0123287D02*
X0105525Y0123287D01*
X0105525Y0124885D02*
X0042103Y0124885D01*
X0040366Y0126484D02*
X0105525Y0126484D01*
X0105525Y0128082D02*
X0038628Y0128082D01*
X0036891Y0129681D02*
X0105525Y0129681D01*
X0105525Y0131279D02*
X0035153Y0131279D01*
X0033416Y0132878D02*
X0105525Y0132878D01*
X0106164Y0134476D02*
X0031678Y0134476D01*
X0029941Y0136075D02*
X0107763Y0136075D01*
X0109361Y0137673D02*
X0028203Y0137673D01*
X0026466Y0139272D02*
X0110960Y0139272D01*
X0112558Y0140870D02*
X0105429Y0140870D01*
X0106671Y0141385D02*
X0103510Y0140076D01*
X0100090Y0140076D01*
X0096929Y0141385D01*
X0094510Y0143804D01*
X0093201Y0146965D01*
X0093201Y0150385D01*
X0094510Y0153546D01*
X0096929Y0155965D01*
X0100090Y0157274D01*
X0103510Y0157274D01*
X0106671Y0155965D01*
X0109090Y0153546D01*
X0110399Y0150385D01*
X0110399Y0146965D01*
X0109090Y0143804D01*
X0106671Y0141385D01*
X0107755Y0142469D02*
X0164371Y0142469D01*
X0164977Y0143075D02*
X0162400Y0140498D01*
X0162400Y0136852D01*
X0164977Y0134275D01*
X0168623Y0134275D01*
X0171200Y0136852D01*
X0171200Y0140498D01*
X0168623Y0143075D01*
X0164977Y0143075D01*
X0162773Y0140870D02*
X0158575Y0140870D01*
X0159974Y0139272D02*
X0162400Y0139272D01*
X0162400Y0137673D02*
X0161373Y0137673D01*
X0162772Y0136075D02*
X0163178Y0136075D01*
X0164170Y0134476D02*
X0164776Y0134476D01*
X0165569Y0132878D02*
X0187832Y0132878D01*
X0184635Y0131279D02*
X0166968Y0131279D01*
X0168824Y0134476D02*
X0191029Y0134476D01*
X0192109Y0136075D02*
X0170422Y0136075D01*
X0171200Y0137673D02*
X0240326Y0137673D01*
X0239148Y0136075D02*
X0197741Y0136075D01*
X0198206Y0134476D02*
X0238775Y0134476D01*
X0239002Y0132878D02*
X0197887Y0132878D01*
X0196207Y0131279D02*
X0239973Y0131279D01*
X0251541Y0128082D02*
X0274500Y0128082D01*
X0274500Y0126484D02*
X0253033Y0126484D01*
X0253575Y0124885D02*
X0274500Y0124885D01*
X0274500Y0123287D02*
X0253518Y0123287D01*
X0252786Y0121688D02*
X0274500Y0121688D01*
X0274500Y0120090D02*
X0250509Y0120090D01*
X0274500Y0139272D02*
X0171200Y0139272D01*
X0170827Y0140870D02*
X0173171Y0140870D01*
X0171929Y0141385D02*
X0175090Y0140076D01*
X0178510Y0140076D01*
X0181671Y0141385D01*
X0184090Y0143804D01*
X0185399Y0146965D01*
X0185399Y0150385D01*
X0184090Y0153546D01*
X0181671Y0155965D01*
X0178510Y0157274D01*
X0175090Y0157274D01*
X0171929Y0155965D01*
X0169510Y0153546D01*
X0168201Y0150385D01*
X0168201Y0146965D01*
X0169510Y0143804D01*
X0171929Y0141385D01*
X0170845Y0142469D02*
X0169229Y0142469D01*
X0169401Y0144068D02*
X0158812Y0144068D01*
X0158866Y0144095D02*
X0159477Y0144539D01*
X0160011Y0145073D01*
X0160455Y0145684D01*
X0160798Y0146357D01*
X0161032Y0147076D01*
X0161150Y0147822D01*
X0161150Y0148000D01*
X0153550Y0148000D01*
X0153550Y0148400D01*
X0153150Y0148400D01*
X0153150Y0153000D01*
X0149972Y0153000D01*
X0149226Y0152882D01*
X0148507Y0152648D01*
X0147834Y0152305D01*
X0147223Y0151861D01*
X0146689Y0151327D01*
X0146245Y0150716D01*
X0145902Y0150043D01*
X0145668Y0149324D01*
X0145550Y0148578D01*
X0145550Y0148400D01*
X0153150Y0148400D01*
X0153150Y0148000D01*
X0153550Y0148000D01*
X0153550Y0143400D01*
X0156728Y0143400D01*
X0157474Y0143518D01*
X0158193Y0143752D01*
X0158866Y0144095D01*
X0160442Y0145666D02*
X0168739Y0145666D01*
X0168201Y0147265D02*
X0161062Y0147265D01*
X0161150Y0148400D02*
X0161150Y0148578D01*
X0161032Y0149324D01*
X0160798Y0150043D01*
X0160455Y0150716D01*
X0160011Y0151327D01*
X0159477Y0151861D01*
X0158866Y0152305D01*
X0158193Y0152648D01*
X0157474Y0152882D01*
X0156728Y0153000D01*
X0153550Y0153000D01*
X0153550Y0148400D01*
X0161150Y0148400D01*
X0161105Y0148863D02*
X0168201Y0148863D01*
X0168232Y0150462D02*
X0160585Y0150462D01*
X0159203Y0152060D02*
X0168894Y0152060D01*
X0169622Y0153659D02*
X0108978Y0153659D01*
X0109706Y0152060D02*
X0121897Y0152060D01*
X0121623Y0151861D02*
X0121089Y0151327D01*
X0120645Y0150716D01*
X0120302Y0150043D01*
X0120068Y0149324D01*
X0119950Y0148578D01*
X0119950Y0148400D01*
X0127550Y0148400D01*
X0127550Y0153000D01*
X0124372Y0153000D01*
X0123626Y0152882D01*
X0122907Y0152648D01*
X0122234Y0152305D01*
X0121623Y0151861D01*
X0120515Y0150462D02*
X0110368Y0150462D01*
X0110399Y0148863D02*
X0119995Y0148863D01*
X0119950Y0148000D02*
X0119950Y0147822D01*
X0120068Y0147076D01*
X0120302Y0146357D01*
X0120645Y0145684D01*
X0121089Y0145073D01*
X0121623Y0144539D01*
X0122234Y0144095D01*
X0122907Y0143752D01*
X0123626Y0143518D01*
X0124372Y0143400D01*
X0127550Y0143400D01*
X0127550Y0148000D01*
X0127950Y0148000D01*
X0127950Y0148400D01*
X0127550Y0148400D01*
X0127550Y0148000D01*
X0119950Y0148000D01*
X0120038Y0147265D02*
X0110399Y0147265D01*
X0109861Y0145666D02*
X0120658Y0145666D01*
X0122288Y0144068D02*
X0109199Y0144068D01*
X0098171Y0140870D02*
X0024728Y0140870D01*
X0022991Y0142469D02*
X0095845Y0142469D01*
X0094401Y0144068D02*
X0021253Y0144068D01*
X0019516Y0145666D02*
X0093739Y0145666D01*
X0093201Y0147265D02*
X0018375Y0147265D01*
X0018375Y0148863D02*
X0093201Y0148863D01*
X0093232Y0150462D02*
X0017763Y0150462D01*
X0016276Y0152060D02*
X0093894Y0152060D01*
X0094622Y0153659D02*
X0015355Y0153659D01*
X0014610Y0153350D02*
X0016337Y0154066D01*
X0017659Y0155388D01*
X0018375Y0157115D01*
X0018375Y0158985D01*
X0017659Y0160712D01*
X0016337Y0162034D01*
X0014610Y0162750D01*
X0012740Y0162750D01*
X0011013Y0162034D01*
X0009691Y0160712D01*
X0008975Y0158985D01*
X0008975Y0157115D01*
X0009691Y0155388D01*
X0011013Y0154066D01*
X0012740Y0153350D01*
X0014610Y0153350D01*
X0011995Y0153659D02*
X0004100Y0153659D01*
X0004100Y0155257D02*
X0009821Y0155257D01*
X0009082Y0156856D02*
X0004100Y0156856D01*
X0004100Y0158454D02*
X0008975Y0158454D01*
X0009417Y0160053D02*
X0004100Y0160053D01*
X0004100Y0161651D02*
X0010629Y0161651D01*
X0004100Y0163250D02*
X0241757Y0163250D01*
X0241880Y0161651D02*
X0016721Y0161651D01*
X0017933Y0160053D02*
X0239580Y0160053D01*
X0238839Y0158454D02*
X0018375Y0158454D01*
X0018267Y0156856D02*
X0099079Y0156856D01*
X0096221Y0155257D02*
X0017529Y0155257D01*
X0011074Y0152060D02*
X0004100Y0152060D01*
X0004100Y0150462D02*
X0009587Y0150462D01*
X0008975Y0148863D02*
X0004100Y0148863D01*
X0004100Y0147265D02*
X0008975Y0147265D01*
X0009575Y0145666D02*
X0004100Y0145666D01*
X0004100Y0144068D02*
X0011011Y0144068D01*
X0011717Y0142776D02*
X0011002Y0142412D01*
X0010353Y0141940D01*
X0009785Y0141372D01*
X0009313Y0140723D01*
X0008949Y0140008D01*
X0008701Y0139244D01*
X0008575Y0138451D01*
X0008575Y0138136D01*
X0013589Y0138136D01*
X0013589Y0143150D01*
X0013274Y0143150D01*
X0012481Y0143024D01*
X0011717Y0142776D01*
X0011114Y0142469D02*
X0004100Y0142469D01*
X0004100Y0140870D02*
X0009420Y0140870D01*
X0008710Y0139272D02*
X0004100Y0139272D01*
X0004100Y0137673D02*
X0008575Y0137673D01*
X0008575Y0137649D02*
X0008701Y0136856D01*
X0008949Y0136092D01*
X0009313Y0135377D01*
X0009785Y0134728D01*
X0010353Y0134160D01*
X0011002Y0133688D01*
X0011717Y0133324D01*
X0012481Y0133076D01*
X0013274Y0132950D01*
X0013589Y0132950D01*
X0013589Y0137964D01*
X0008575Y0137964D01*
X0008575Y0137649D01*
X0008957Y0136075D02*
X0004100Y0136075D01*
X0004100Y0134476D02*
X0010036Y0134476D01*
X0013589Y0134476D02*
X0013761Y0134476D01*
X0013761Y0132950D02*
X0014076Y0132950D01*
X0014869Y0133076D01*
X0015633Y0133324D01*
X0016348Y0133688D01*
X0016997Y0134160D01*
X0017565Y0134728D01*
X0018037Y0135377D01*
X0018401Y0136092D01*
X0018649Y0136856D01*
X0018775Y0137649D01*
X0018775Y0137964D01*
X0013761Y0137964D01*
X0013761Y0138136D01*
X0013589Y0138136D01*
X0013589Y0137964D01*
X0013761Y0137964D01*
X0013761Y0132950D01*
X0013761Y0136075D02*
X0013589Y0136075D01*
X0013589Y0137673D02*
X0013761Y0137673D01*
X0013761Y0138136D02*
X0018775Y0138136D01*
X0018775Y0138451D01*
X0018649Y0139244D01*
X0018401Y0140008D01*
X0018037Y0140723D01*
X0017565Y0141372D01*
X0016997Y0141940D01*
X0016348Y0142412D01*
X0015633Y0142776D01*
X0014869Y0143024D01*
X0014076Y0143150D01*
X0013761Y0143150D01*
X0013761Y0138136D01*
X0013761Y0139272D02*
X0013589Y0139272D01*
X0013589Y0140870D02*
X0013761Y0140870D01*
X0013761Y0142469D02*
X0013589Y0142469D01*
X0016236Y0142469D02*
X0016492Y0142469D01*
X0017930Y0140870D02*
X0018229Y0140870D01*
X0018640Y0139272D02*
X0019967Y0139272D01*
X0018775Y0137673D02*
X0021704Y0137673D01*
X0023442Y0136075D02*
X0018393Y0136075D01*
X0017314Y0134476D02*
X0025180Y0134476D01*
X0026917Y0132878D02*
X0004100Y0132878D01*
X0004100Y0131279D02*
X0028655Y0131279D01*
X0030392Y0129681D02*
X0004100Y0129681D01*
X0004100Y0128082D02*
X0032130Y0128082D01*
X0033867Y0126484D02*
X0004100Y0126484D01*
X0004100Y0124885D02*
X0035605Y0124885D01*
X0037342Y0123287D02*
X0004100Y0123287D01*
X0004100Y0121688D02*
X0039080Y0121688D01*
X0040817Y0120090D02*
X0004100Y0120090D01*
X0004100Y0118491D02*
X0042555Y0118491D01*
X0042741Y0116440D02*
X0041127Y0116440D01*
X0039635Y0115822D01*
X0038494Y0114681D01*
X0037876Y0113190D01*
X0037876Y0111576D01*
X0038494Y0110084D01*
X0039635Y0108943D01*
X0041127Y0108325D01*
X0042741Y0108325D01*
X0044232Y0108943D01*
X0045374Y0110084D01*
X0045991Y0111576D01*
X0045991Y0113190D01*
X0045374Y0114681D01*
X0044232Y0115822D01*
X0042741Y0116440D01*
X0044292Y0116893D02*
X0004100Y0116893D01*
X0004100Y0115294D02*
X0018422Y0115294D01*
X0018935Y0115807D02*
X0017793Y0114665D01*
X0017176Y0113174D01*
X0017176Y0111560D01*
X0017793Y0110069D01*
X0018935Y0108927D01*
X0020426Y0108309D01*
X0022040Y0108309D01*
X0023531Y0108927D01*
X0024673Y0110069D01*
X0025291Y0111560D01*
X0025291Y0113174D01*
X0024673Y0114665D01*
X0023531Y0115807D01*
X0022040Y0116424D01*
X0020426Y0116424D01*
X0018935Y0115807D01*
X0017392Y0113696D02*
X0004100Y0113696D01*
X0004100Y0112097D02*
X0017176Y0112097D01*
X0017615Y0110499D02*
X0004100Y0110499D01*
X0004100Y0108900D02*
X0019000Y0108900D01*
X0023466Y0108900D02*
X0039738Y0108900D01*
X0038322Y0110499D02*
X0024851Y0110499D01*
X0025291Y0112097D02*
X0037876Y0112097D01*
X0038086Y0113696D02*
X0025074Y0113696D01*
X0024044Y0115294D02*
X0039107Y0115294D01*
X0044760Y0115294D02*
X0046030Y0115294D01*
X0045782Y0113696D02*
X0047767Y0113696D01*
X0049505Y0112097D02*
X0045991Y0112097D01*
X0045545Y0110499D02*
X0051242Y0110499D01*
X0052980Y0108900D02*
X0044129Y0108900D01*
X0054717Y0107302D02*
X0004100Y0107302D01*
X0004100Y0105703D02*
X0056455Y0105703D01*
X0058192Y0104105D02*
X0004100Y0104105D01*
X0004100Y0102506D02*
X0074579Y0102506D01*
X0076800Y0104925D02*
X0060550Y0104925D01*
X0013675Y0148050D01*
X0004100Y0164848D02*
X0239529Y0164848D01*
X0238818Y0166447D02*
X0004100Y0166447D01*
X0004100Y0168045D02*
X0238775Y0168045D01*
X0239331Y0169644D02*
X0004100Y0169644D01*
X0004100Y0171242D02*
X0240893Y0171242D01*
X0227484Y0177636D02*
X0227116Y0177636D01*
X0227116Y0179235D02*
X0227484Y0179235D01*
X0227484Y0180833D02*
X0227116Y0180833D01*
X0227116Y0182432D02*
X0227484Y0182432D01*
X0227484Y0184030D02*
X0227116Y0184030D01*
X0227116Y0185629D02*
X0227484Y0185629D01*
X0227484Y0187227D02*
X0227116Y0187227D01*
X0227116Y0188826D02*
X0227484Y0188826D01*
X0223704Y0188826D02*
X0054080Y0188826D01*
X0056174Y0187227D02*
X0221934Y0187227D01*
X0221008Y0185629D02*
X0057159Y0185629D01*
X0057700Y0184030D02*
X0220570Y0184030D01*
X0220523Y0182432D02*
X0057700Y0182432D01*
X0057309Y0180833D02*
X0220858Y0180833D01*
X0221656Y0179235D02*
X0056536Y0179235D01*
X0054937Y0177636D02*
X0223185Y0177636D01*
X0250500Y0198417D02*
X0028100Y0198417D01*
X0028100Y0200015D02*
X0250500Y0200015D01*
X0250733Y0201614D02*
X0027867Y0201614D01*
X0027204Y0203212D02*
X0251396Y0203212D01*
X0252366Y0204811D02*
X0026234Y0204811D01*
X0024636Y0206409D02*
X0253964Y0206409D01*
X0250803Y0196818D02*
X0027797Y0196818D01*
X0027135Y0195220D02*
X0251465Y0195220D01*
X0252534Y0193621D02*
X0026066Y0193621D01*
X0024468Y0192023D02*
X0254132Y0192023D01*
X0238775Y0156856D02*
X0179521Y0156856D01*
X0182379Y0155257D02*
X0239310Y0155257D01*
X0240770Y0153659D02*
X0183978Y0153659D01*
X0184706Y0152060D02*
X0241907Y0152060D01*
X0239448Y0150462D02*
X0185368Y0150462D01*
X0185399Y0148863D02*
X0238595Y0148863D01*
X0238375Y0147225D02*
X0238375Y0147047D01*
X0238493Y0146301D01*
X0238727Y0145582D01*
X0239070Y0144909D01*
X0239514Y0144298D01*
X0240048Y0143764D01*
X0240659Y0143320D01*
X0241332Y0142977D01*
X0242051Y0142743D01*
X0242797Y0142625D01*
X0245975Y0142625D01*
X0245975Y0147225D01*
X0238375Y0147225D01*
X0238699Y0145666D02*
X0184861Y0145666D01*
X0185399Y0147265D02*
X0245975Y0147265D01*
X0246375Y0147265D02*
X0274500Y0147265D01*
X0274500Y0142469D02*
X0182755Y0142469D01*
X0184199Y0144068D02*
X0239744Y0144068D01*
X0245975Y0144068D02*
X0246375Y0144068D01*
X0246375Y0145666D02*
X0245975Y0145666D01*
X0245975Y0148863D02*
X0246375Y0148863D01*
X0246375Y0150462D02*
X0245975Y0150462D01*
X0245975Y0152060D02*
X0246375Y0152060D01*
X0274500Y0140870D02*
X0180429Y0140870D01*
X0193132Y0131279D02*
X0193643Y0131279D01*
X0174079Y0156856D02*
X0104521Y0156856D01*
X0107379Y0155257D02*
X0171221Y0155257D01*
X0153550Y0152060D02*
X0153150Y0152060D01*
X0153150Y0150462D02*
X0153550Y0150462D01*
X0153550Y0148863D02*
X0153150Y0148863D01*
X0153150Y0148000D02*
X0145550Y0148000D01*
X0145550Y0147822D01*
X0145668Y0147076D01*
X0145902Y0146357D01*
X0146245Y0145684D01*
X0146689Y0145073D01*
X0147223Y0144539D01*
X0147834Y0144095D01*
X0148507Y0143752D01*
X0149226Y0143518D01*
X0149972Y0143400D01*
X0153150Y0143400D01*
X0153150Y0148000D01*
X0153150Y0147265D02*
X0153550Y0147265D01*
X0153550Y0145666D02*
X0153150Y0145666D01*
X0153150Y0144068D02*
X0153550Y0144068D01*
X0147888Y0144068D02*
X0133212Y0144068D01*
X0133266Y0144095D02*
X0133877Y0144539D01*
X0134411Y0145073D01*
X0134855Y0145684D01*
X0135198Y0146357D01*
X0135432Y0147076D01*
X0135550Y0147822D01*
X0135550Y0148000D01*
X0127950Y0148000D01*
X0127950Y0143400D01*
X0131128Y0143400D01*
X0131874Y0143518D01*
X0132593Y0143752D01*
X0133266Y0144095D01*
X0134842Y0145666D02*
X0146258Y0145666D01*
X0145638Y0147265D02*
X0135462Y0147265D01*
X0135550Y0148400D02*
X0135550Y0148578D01*
X0135432Y0149324D01*
X0135198Y0150043D01*
X0134855Y0150716D01*
X0134411Y0151327D01*
X0133877Y0151861D01*
X0133266Y0152305D01*
X0132593Y0152648D01*
X0131874Y0152882D01*
X0131128Y0153000D01*
X0127950Y0153000D01*
X0127950Y0148400D01*
X0135550Y0148400D01*
X0135505Y0148863D02*
X0145595Y0148863D01*
X0146115Y0150462D02*
X0134985Y0150462D01*
X0133603Y0152060D02*
X0147497Y0152060D01*
X0127950Y0152060D02*
X0127550Y0152060D01*
X0127550Y0150462D02*
X0127950Y0150462D01*
X0127950Y0148863D02*
X0127550Y0148863D01*
X0127550Y0147265D02*
X0127950Y0147265D01*
X0127950Y0145666D02*
X0127550Y0145666D01*
X0127550Y0144068D02*
X0127950Y0144068D01*
X0132406Y0134476D02*
X0148694Y0134476D01*
X0146614Y0132878D02*
X0134486Y0132878D01*
X0135148Y0131279D02*
X0145952Y0131279D01*
X0145950Y0129681D02*
X0135150Y0129681D01*
X0134553Y0128082D02*
X0146547Y0128082D01*
X0148307Y0126484D02*
X0132793Y0126484D01*
X0128593Y0116893D02*
X0139128Y0116893D01*
X0128390Y0116893D02*
X0109325Y0116893D01*
X0109325Y0115294D02*
X0124528Y0115294D01*
X0123150Y0113696D02*
X0109325Y0113696D01*
X0109325Y0112097D02*
X0122894Y0112097D01*
X0123461Y0110499D02*
X0109325Y0110499D01*
X0109325Y0108900D02*
X0127883Y0108900D01*
X0127883Y0107302D02*
X0109325Y0107302D01*
X0109325Y0105703D02*
X0127883Y0105703D01*
X0127883Y0104105D02*
X0109325Y0104105D01*
X0109325Y0102506D02*
X0127883Y0102506D01*
X0127883Y0100908D02*
X0109325Y0100908D01*
X0109325Y0099309D02*
X0127883Y0099309D01*
X0127883Y0097711D02*
X0109325Y0097711D01*
X0109325Y0096112D02*
X0127883Y0096112D01*
X0127883Y0094514D02*
X0109325Y0094514D01*
X0109325Y0092915D02*
X0127856Y0092915D01*
X0128687Y0091317D02*
X0109325Y0091317D01*
X0109325Y0067339D02*
X0152074Y0067339D01*
X0154300Y0064925D02*
X0133050Y0064925D01*
X0120550Y0052425D01*
X0118036Y0054551D02*
X0107863Y0054551D01*
X0109325Y0056149D02*
X0121163Y0056149D01*
X0122762Y0057748D02*
X0109325Y0057748D01*
X0109325Y0059346D02*
X0124360Y0059346D01*
X0125959Y0060945D02*
X0109325Y0060945D01*
X0109325Y0062543D02*
X0127557Y0062543D01*
X0129156Y0064142D02*
X0109325Y0064142D01*
X0109325Y0065740D02*
X0130754Y0065740D01*
X0133780Y0062543D02*
X0152041Y0062543D01*
X0157416Y0046558D02*
X0004100Y0046558D01*
X0004100Y0044960D02*
X0157269Y0044960D01*
X0158099Y0043361D02*
X0048587Y0043361D01*
X0046800Y0040550D02*
X0073675Y0014925D01*
X0070840Y0014588D02*
X0026873Y0014588D01*
X0027535Y0016187D02*
X0069164Y0016187D01*
X0067487Y0017785D02*
X0028100Y0017785D01*
X0028100Y0019384D02*
X0065811Y0019384D01*
X0064134Y0020982D02*
X0028100Y0020982D01*
X0027466Y0022581D02*
X0062458Y0022581D01*
X0060781Y0024179D02*
X0026804Y0024179D01*
X0025267Y0025778D02*
X0059105Y0025778D01*
X0057428Y0027376D02*
X0022798Y0027376D01*
X0015802Y0027376D02*
X0004100Y0027376D01*
X0004100Y0025778D02*
X0013333Y0025778D01*
X0011796Y0024179D02*
X0004100Y0024179D01*
X0004100Y0022581D02*
X0011134Y0022581D01*
X0010500Y0020982D02*
X0004100Y0020982D01*
X0004100Y0019384D02*
X0010500Y0019384D01*
X0010500Y0017785D02*
X0004100Y0017785D01*
X0004100Y0016187D02*
X0011065Y0016187D01*
X0011727Y0014588D02*
X0004100Y0014588D01*
X0004100Y0012990D02*
X0013165Y0012990D01*
X0015398Y0011391D02*
X0004100Y0011391D01*
X0004100Y0009793D02*
X0274500Y0009793D01*
X0274500Y0008194D02*
X0004100Y0008194D01*
X0004100Y0006596D02*
X0274500Y0006596D01*
X0274500Y0004997D02*
X0004100Y0004997D01*
X0004100Y0028975D02*
X0055752Y0028975D01*
X0054075Y0030573D02*
X0004100Y0030573D01*
X0004100Y0032172D02*
X0052399Y0032172D01*
X0050722Y0033770D02*
X0004100Y0033770D01*
X0004100Y0035369D02*
X0049046Y0035369D01*
X0047369Y0036967D02*
X0004100Y0036967D01*
X0004100Y0038566D02*
X0044144Y0038566D01*
X0043519Y0040164D02*
X0004100Y0040164D01*
X0004100Y0041763D02*
X0043751Y0041763D01*
X0045013Y0043361D02*
X0004100Y0043361D01*
X0004100Y0083324D02*
X0059668Y0083324D01*
X0058697Y0083726D02*
X0058697Y0083726D01*
X0057567Y0084923D02*
X0004100Y0084923D01*
X0004100Y0086521D02*
X0056616Y0086521D01*
X0055630Y0088120D02*
X0043937Y0088120D01*
X0044185Y0088222D02*
X0045326Y0089364D01*
X0045944Y0090855D01*
X0045944Y0092469D01*
X0045326Y0093961D01*
X0044185Y0095102D01*
X0042694Y0095720D01*
X0041080Y0095720D01*
X0039588Y0095102D01*
X0038447Y0093961D01*
X0037829Y0092469D01*
X0037829Y0090855D01*
X0038447Y0089364D01*
X0039588Y0088222D01*
X0041080Y0087605D01*
X0042694Y0087605D01*
X0044185Y0088222D01*
X0045473Y0089718D02*
X0054589Y0089718D01*
X0054162Y0091317D02*
X0045944Y0091317D01*
X0045759Y0092915D02*
X0054200Y0092915D01*
X0054200Y0094514D02*
X0044773Y0094514D01*
X0039000Y0094514D02*
X0024057Y0094514D01*
X0024626Y0093945D02*
X0023484Y0095086D01*
X0021993Y0095704D01*
X0020379Y0095704D01*
X0018887Y0095086D01*
X0017746Y0093945D01*
X0017128Y0092454D01*
X0017128Y0090839D01*
X0017746Y0089348D01*
X0018887Y0088207D01*
X0020379Y0087589D01*
X0021993Y0087589D01*
X0023484Y0088207D01*
X0024626Y0089348D01*
X0025243Y0090839D01*
X0025243Y0092454D01*
X0024626Y0093945D01*
X0025052Y0092915D02*
X0038014Y0092915D01*
X0037829Y0091317D02*
X0025243Y0091317D01*
X0024779Y0089718D02*
X0038300Y0089718D01*
X0039836Y0088120D02*
X0023274Y0088120D01*
X0019098Y0088120D02*
X0004100Y0088120D01*
X0004100Y0089718D02*
X0017593Y0089718D01*
X0017128Y0091317D02*
X0004100Y0091317D01*
X0004100Y0092915D02*
X0017320Y0092915D01*
X0018315Y0094514D02*
X0004100Y0094514D01*
X0004100Y0096112D02*
X0054200Y0096112D01*
X0053648Y0097711D02*
X0004100Y0097711D01*
X0004100Y0099309D02*
X0053519Y0099309D01*
X0054393Y0100908D02*
X0004100Y0100908D01*
X0059767Y0091317D02*
X0080426Y0091317D01*
X0079306Y0089718D02*
X0060753Y0089718D01*
X0061216Y0107302D02*
X0074537Y0107302D01*
X0106264Y0052952D02*
X0117269Y0052952D01*
X0122947Y0022581D02*
X0068834Y0022581D01*
X0070510Y0020982D02*
X0122962Y0020982D01*
X0123951Y0019384D02*
X0072187Y0019384D01*
X0073863Y0017785D02*
X0179049Y0017785D01*
X0180647Y0019384D02*
X0128399Y0019384D01*
X0177432Y0025778D02*
X0253333Y0025778D01*
X0255802Y0027376D02*
X0178908Y0027376D01*
X0185271Y0017785D02*
X0250500Y0017785D01*
X0251065Y0016187D02*
X0183673Y0016187D01*
X0182074Y0014588D02*
X0251727Y0014588D01*
X0253165Y0012990D02*
X0180476Y0012990D01*
X0157400Y0110499D02*
X0157014Y0110499D01*
X0014132Y0192023D02*
X0004100Y0192023D01*
X0004100Y0193621D02*
X0012534Y0193621D01*
X0011465Y0195220D02*
X0004100Y0195220D01*
X0004100Y0196818D02*
X0010803Y0196818D01*
X0010500Y0198417D02*
X0004100Y0198417D01*
X0004100Y0200015D02*
X0010500Y0200015D01*
X0010733Y0201614D02*
X0004100Y0201614D01*
X0004100Y0203212D02*
X0011396Y0203212D01*
X0012366Y0204811D02*
X0004100Y0204811D01*
X0004100Y0206409D02*
X0013964Y0206409D01*
D19*
X0056800Y0098675D02*
X0056800Y0091175D01*
X0059818Y0086282D01*
X0061586Y0085550D02*
X0079300Y0085550D01*
X0082425Y0088675D01*
X0061586Y0085550D02*
X0061488Y0085552D01*
X0061390Y0085558D01*
X0061292Y0085567D01*
X0061195Y0085581D01*
X0061098Y0085598D01*
X0061002Y0085619D01*
X0060907Y0085644D01*
X0060813Y0085672D01*
X0060721Y0085705D01*
X0060629Y0085740D01*
X0060539Y0085780D01*
X0060451Y0085822D01*
X0060364Y0085869D01*
X0060280Y0085918D01*
X0060197Y0085971D01*
X0060117Y0086027D01*
X0060038Y0086087D01*
X0059962Y0086149D01*
X0059889Y0086214D01*
X0059818Y0086282D01*
M02*
