%
M48
M72
T01C0.0236
T02C0.0354
T03C0.0394
T04C0.0400
T05C0.1260
T06C0.1300
%
T01
X1305Y3680
X4680Y4055
X6368Y4430
X8555Y5368
X8618Y7118
X8243Y8868
X7680Y10493
X5680Y9868
X4430Y13118
X7055Y14993
X7743Y13493
X12618Y11243
X14180Y11493
X15180Y12368
X15930Y12368
X15430Y11243
X15368Y10555
X17055Y10555
X14555Y8930
X14055Y8930
X13555Y8930
X14180Y6868
X15430Y6493
X16055Y4555
X14618Y2680
X12618Y2180
X11368Y2055
X12055Y5243
X5930Y1305
X1055Y10243
X8305Y17993
X11930Y19055
X17055Y18180
X19618Y17368
X21868Y14243
X19493Y13430
X19930Y12368
X22430Y10430
X20555Y9493
X20555Y7680
X24305Y4930
X26618Y4805
X22243Y1930
X18618Y2180
X25305Y10118
X26993Y11680
T02
X25737Y11237
X23665Y11241
X23666Y9171
X25738Y9167
X4189Y9166
X2119Y9165
X2123Y11237
X4193Y11238
X1368Y13805
X1368Y14805
X1368Y15805
T03
X5130Y18305
X22730Y18305
T04
X24618Y16743
X24618Y15743
X24618Y14743
X24618Y13430
X24618Y12430
X16680Y13868
X15335Y13040
X15335Y14820
X12775Y14820
X12775Y13040
T05
X10180Y14868
X17680Y14868
T06
X1930Y1930
X1930Y19930
X25930Y19930
X25930Y1930
M30
