G75*
%MOIN*%
%OFA0B0*%
%FSLAX25Y25*%
%IPPOS*%
%LPD*%
%AMOC8*
5,1,8,0,0,1.08239X$1,22.5*
%
%ADD10C,0.13098*%
%ADD11C,0.10500*%
%ADD12OC8,0.06500*%
%ADD13C,0.06500*%
%ADD14C,0.07100*%
%ADD15C,0.05815*%
%ADD16C,0.13500*%
%ADD17C,0.04262*%
%ADD18C,0.06100*%
D10*
X0101800Y0148675D03*
X0176800Y0148675D03*
D11*
X0227300Y0183050D03*
X0051300Y0183050D03*
D12*
X0166800Y0138675D03*
D13*
X0156350Y0130400D02*
X0150350Y0130400D01*
X0130750Y0130400D02*
X0124750Y0130400D01*
X0124750Y0148200D02*
X0130750Y0148200D01*
X0150350Y0148200D02*
X0156350Y0148200D01*
X0243175Y0147425D02*
X0249175Y0147425D01*
X0249175Y0157425D02*
X0243175Y0157425D01*
X0243175Y0167425D02*
X0249175Y0167425D01*
X0249175Y0134300D02*
X0243175Y0134300D01*
X0243175Y0124300D02*
X0249175Y0124300D01*
D14*
X0013675Y0138050D03*
X0013675Y0148050D03*
X0013675Y0158050D03*
D15*
X0021233Y0112367D03*
X0041934Y0112383D03*
X0041887Y0091662D03*
X0021186Y0091646D03*
X0236662Y0091713D03*
X0257383Y0091666D03*
X0257367Y0112367D03*
X0236646Y0112414D03*
D16*
X0019300Y0019300D03*
X0019300Y0199300D03*
X0259300Y0199300D03*
X0259300Y0019300D03*
D17*
X0186175Y0021800D03*
X0160550Y0045550D03*
X0154300Y0064925D03*
X0141800Y0068675D03*
X0120550Y0052425D03*
X0085550Y0053675D03*
X0046800Y0040550D03*
X0082425Y0088675D03*
X0076800Y0104925D03*
X0056800Y0098675D03*
X0126175Y0112425D03*
X0141800Y0114925D03*
X0151800Y0123675D03*
X0159300Y0123675D03*
X0154300Y0112425D03*
X0153675Y0105550D03*
X0170550Y0105550D03*
X0145550Y0089300D03*
X0140550Y0089300D03*
X0135550Y0089300D03*
X0194925Y0134300D03*
X0199300Y0123675D03*
X0224300Y0104300D03*
X0205550Y0094925D03*
X0126175Y0021800D03*
D18*
X0113675Y0020550D03*
X0146175Y0026800D03*
X0086175Y0071175D03*
X0063675Y0044300D03*
X0059300Y0013050D03*
X0013050Y0036800D03*
X0010550Y0102425D03*
X0044300Y0131175D03*
X0070550Y0149925D03*
X0077425Y0134925D03*
X0083050Y0179925D03*
X0119300Y0190550D03*
X0170550Y0181800D03*
X0196175Y0173675D03*
X0218675Y0142425D03*
X0269925Y0116800D03*
X0253050Y0101175D03*
X0205550Y0076800D03*
X0243050Y0049300D03*
X0266175Y0048050D03*
X0222425Y0019300D03*
M02*
